%TF.GenerationSoftware,KiCad,Pcbnew,9.0.3*%
%TF.CreationDate,2025-09-06T14:30:13+03:00*%
%TF.ProjectId,ble_jammer_2.4ghz,626c655f-6a61-46d6-9d65-725f322e3467,rev?*%
%TF.SameCoordinates,Original*%
%TF.FileFunction,Soldermask,Bot*%
%TF.FilePolarity,Negative*%
%FSLAX46Y46*%
G04 Gerber Fmt 4.6, Leading zero omitted, Abs format (unit mm)*
G04 Created by KiCad (PCBNEW 9.0.3) date 2025-09-06 14:30:13*
%MOMM*%
%LPD*%
G01*
G04 APERTURE LIST*
G04 Aperture macros list*
%AMRoundRect*
0 Rectangle with rounded corners*
0 $1 Rounding radius*
0 $2 $3 $4 $5 $6 $7 $8 $9 X,Y pos of 4 corners*
0 Add a 4 corners polygon primitive as box body*
4,1,4,$2,$3,$4,$5,$6,$7,$8,$9,$2,$3,0*
0 Add four circle primitives for the rounded corners*
1,1,$1+$1,$2,$3*
1,1,$1+$1,$4,$5*
1,1,$1+$1,$6,$7*
1,1,$1+$1,$8,$9*
0 Add four rect primitives between the rounded corners*
20,1,$1+$1,$2,$3,$4,$5,0*
20,1,$1+$1,$4,$5,$6,$7,0*
20,1,$1+$1,$6,$7,$8,$9,0*
20,1,$1+$1,$8,$9,$2,$3,0*%
G04 Aperture macros list end*
%ADD10R,1.800000X1.800000*%
%ADD11C,1.800000*%
%ADD12C,2.000000*%
%ADD13C,1.600000*%
%ADD14RoundRect,0.250000X-0.550000X0.550000X-0.550000X-0.550000X0.550000X-0.550000X0.550000X0.550000X0*%
%ADD15R,2.000000X2.000000*%
%ADD16R,2.540000X2.540000*%
G04 APERTURE END LIST*
D10*
%TO.C,D3*%
X47500269Y-93470048D03*
D11*
X47500269Y-90930048D03*
%TD*%
D10*
%TO.C,D2*%
X47500269Y-86097548D03*
D11*
X47500269Y-83557548D03*
%TD*%
%TO.C,D1*%
X47500269Y-76185048D03*
D10*
X47500269Y-78725048D03*
%TD*%
D12*
%TO.C,SW1*%
X49750269Y-65292548D03*
X49750269Y-71792548D03*
X45250269Y-65292548D03*
X45250269Y-71792548D03*
%TD*%
D13*
%TO.C,SW2*%
X47487769Y-61800048D03*
D14*
X47487769Y-54180048D03*
%TD*%
D15*
%TO.C,nRF24L01+*%
X81692000Y-107826000D03*
D12*
X79152000Y-107826000D03*
X81692000Y-105286000D03*
X79152000Y-105286000D03*
X81692000Y-102746000D03*
X79152000Y-102746000D03*
X81692000Y-100206000D03*
X79152000Y-100206000D03*
%TD*%
%TO.C,ESP8266*%
X61600000Y-46174000D03*
X61600000Y-67256000D03*
X84460000Y-55318000D03*
X84460000Y-46174000D03*
X61600000Y-48460000D03*
X61600000Y-64970000D03*
X84460000Y-48460000D03*
X84460000Y-57604000D03*
X61600000Y-50746000D03*
X84460000Y-50746000D03*
X61600000Y-53032000D03*
X84460000Y-53032000D03*
X61600000Y-55318000D03*
X61600000Y-57604000D03*
X61600000Y-59890000D03*
X84460000Y-59890000D03*
X61600000Y-62430000D03*
X84460000Y-62430000D03*
X84460000Y-64970000D03*
X84460000Y-67256000D03*
X61600000Y-69542000D03*
X84460000Y-69542000D03*
X61600000Y-71828000D03*
X84460000Y-71828000D03*
X61600000Y-74114000D03*
X84460000Y-74114000D03*
X61600000Y-76400000D03*
X84460000Y-76400000D03*
X61600000Y-78686000D03*
X84460000Y-78686000D03*
%TD*%
D16*
%TO.C,TO4056*%
X102500000Y-40156000D03*
X102500000Y-62000000D03*
X99198000Y-62000000D03*
X88276000Y-40156000D03*
X91578000Y-62000000D03*
X88276000Y-62000000D03*
%TD*%
D13*
%TO.C,R2*%
X55000000Y-75080000D03*
X55000000Y-64920000D03*
%TD*%
%TO.C,R1*%
X55000000Y-61080000D03*
X55000000Y-50920000D03*
%TD*%
%TO.C,R3*%
X55000000Y-89080000D03*
X55000000Y-78920000D03*
%TD*%
M02*
