%TF.GenerationSoftware,KiCad,Pcbnew,9.0.3*%
%TF.CreationDate,2025-10-27T16:18:56+03:00*%
%TF.ProjectId,ble_jammer_2.4ghz,626c655f-6a61-46d6-9d65-725f322e3467,rev?*%
%TF.SameCoordinates,Original*%
%TF.FileFunction,Legend,Top*%
%TF.FilePolarity,Positive*%
%FSLAX46Y46*%
G04 Gerber Fmt 4.6, Leading zero omitted, Abs format (unit mm)*
G04 Created by KiCad (PCBNEW 9.0.3) date 2025-10-27 16:18:56*
%MOMM*%
%LPD*%
G01*
G04 APERTURE LIST*
%ADD10C,0.150000*%
%ADD11C,0.100000*%
%ADD12C,0.120000*%
G04 APERTURE END LIST*
D10*
X43995088Y-85565642D02*
X42995088Y-85565642D01*
X42995088Y-85565642D02*
X42995088Y-85327547D01*
X42995088Y-85327547D02*
X43042707Y-85184690D01*
X43042707Y-85184690D02*
X43137945Y-85089452D01*
X43137945Y-85089452D02*
X43233183Y-85041833D01*
X43233183Y-85041833D02*
X43423659Y-84994214D01*
X43423659Y-84994214D02*
X43566516Y-84994214D01*
X43566516Y-84994214D02*
X43756992Y-85041833D01*
X43756992Y-85041833D02*
X43852230Y-85089452D01*
X43852230Y-85089452D02*
X43947469Y-85184690D01*
X43947469Y-85184690D02*
X43995088Y-85327547D01*
X43995088Y-85327547D02*
X43995088Y-85565642D01*
X43090326Y-84613261D02*
X43042707Y-84565642D01*
X43042707Y-84565642D02*
X42995088Y-84470404D01*
X42995088Y-84470404D02*
X42995088Y-84232309D01*
X42995088Y-84232309D02*
X43042707Y-84137071D01*
X43042707Y-84137071D02*
X43090326Y-84089452D01*
X43090326Y-84089452D02*
X43185564Y-84041833D01*
X43185564Y-84041833D02*
X43280802Y-84041833D01*
X43280802Y-84041833D02*
X43423659Y-84089452D01*
X43423659Y-84089452D02*
X43995088Y-84660880D01*
X43995088Y-84660880D02*
X43995088Y-84041833D01*
D11*
X72963609Y-62985237D02*
X72963609Y-62651904D01*
X73487419Y-62509047D02*
X73487419Y-62985237D01*
X73487419Y-62985237D02*
X72487419Y-62985237D01*
X72487419Y-62985237D02*
X72487419Y-62509047D01*
X73439800Y-62128094D02*
X73487419Y-61985237D01*
X73487419Y-61985237D02*
X73487419Y-61747142D01*
X73487419Y-61747142D02*
X73439800Y-61651904D01*
X73439800Y-61651904D02*
X73392180Y-61604285D01*
X73392180Y-61604285D02*
X73296942Y-61556666D01*
X73296942Y-61556666D02*
X73201704Y-61556666D01*
X73201704Y-61556666D02*
X73106466Y-61604285D01*
X73106466Y-61604285D02*
X73058847Y-61651904D01*
X73058847Y-61651904D02*
X73011228Y-61747142D01*
X73011228Y-61747142D02*
X72963609Y-61937618D01*
X72963609Y-61937618D02*
X72915990Y-62032856D01*
X72915990Y-62032856D02*
X72868371Y-62080475D01*
X72868371Y-62080475D02*
X72773133Y-62128094D01*
X72773133Y-62128094D02*
X72677895Y-62128094D01*
X72677895Y-62128094D02*
X72582657Y-62080475D01*
X72582657Y-62080475D02*
X72535038Y-62032856D01*
X72535038Y-62032856D02*
X72487419Y-61937618D01*
X72487419Y-61937618D02*
X72487419Y-61699523D01*
X72487419Y-61699523D02*
X72535038Y-61556666D01*
X73487419Y-61128094D02*
X72487419Y-61128094D01*
X72487419Y-61128094D02*
X72487419Y-60747142D01*
X72487419Y-60747142D02*
X72535038Y-60651904D01*
X72535038Y-60651904D02*
X72582657Y-60604285D01*
X72582657Y-60604285D02*
X72677895Y-60556666D01*
X72677895Y-60556666D02*
X72820752Y-60556666D01*
X72820752Y-60556666D02*
X72915990Y-60604285D01*
X72915990Y-60604285D02*
X72963609Y-60651904D01*
X72963609Y-60651904D02*
X73011228Y-60747142D01*
X73011228Y-60747142D02*
X73011228Y-61128094D01*
X72915990Y-59985237D02*
X72868371Y-60080475D01*
X72868371Y-60080475D02*
X72820752Y-60128094D01*
X72820752Y-60128094D02*
X72725514Y-60175713D01*
X72725514Y-60175713D02*
X72677895Y-60175713D01*
X72677895Y-60175713D02*
X72582657Y-60128094D01*
X72582657Y-60128094D02*
X72535038Y-60080475D01*
X72535038Y-60080475D02*
X72487419Y-59985237D01*
X72487419Y-59985237D02*
X72487419Y-59794761D01*
X72487419Y-59794761D02*
X72535038Y-59699523D01*
X72535038Y-59699523D02*
X72582657Y-59651904D01*
X72582657Y-59651904D02*
X72677895Y-59604285D01*
X72677895Y-59604285D02*
X72725514Y-59604285D01*
X72725514Y-59604285D02*
X72820752Y-59651904D01*
X72820752Y-59651904D02*
X72868371Y-59699523D01*
X72868371Y-59699523D02*
X72915990Y-59794761D01*
X72915990Y-59794761D02*
X72915990Y-59985237D01*
X72915990Y-59985237D02*
X72963609Y-60080475D01*
X72963609Y-60080475D02*
X73011228Y-60128094D01*
X73011228Y-60128094D02*
X73106466Y-60175713D01*
X73106466Y-60175713D02*
X73296942Y-60175713D01*
X73296942Y-60175713D02*
X73392180Y-60128094D01*
X73392180Y-60128094D02*
X73439800Y-60080475D01*
X73439800Y-60080475D02*
X73487419Y-59985237D01*
X73487419Y-59985237D02*
X73487419Y-59794761D01*
X73487419Y-59794761D02*
X73439800Y-59699523D01*
X73439800Y-59699523D02*
X73392180Y-59651904D01*
X73392180Y-59651904D02*
X73296942Y-59604285D01*
X73296942Y-59604285D02*
X73106466Y-59604285D01*
X73106466Y-59604285D02*
X73011228Y-59651904D01*
X73011228Y-59651904D02*
X72963609Y-59699523D01*
X72963609Y-59699523D02*
X72915990Y-59794761D01*
X72582657Y-59223332D02*
X72535038Y-59175713D01*
X72535038Y-59175713D02*
X72487419Y-59080475D01*
X72487419Y-59080475D02*
X72487419Y-58842380D01*
X72487419Y-58842380D02*
X72535038Y-58747142D01*
X72535038Y-58747142D02*
X72582657Y-58699523D01*
X72582657Y-58699523D02*
X72677895Y-58651904D01*
X72677895Y-58651904D02*
X72773133Y-58651904D01*
X72773133Y-58651904D02*
X72915990Y-58699523D01*
X72915990Y-58699523D02*
X73487419Y-59270951D01*
X73487419Y-59270951D02*
X73487419Y-58651904D01*
X72487419Y-57794761D02*
X72487419Y-57985237D01*
X72487419Y-57985237D02*
X72535038Y-58080475D01*
X72535038Y-58080475D02*
X72582657Y-58128094D01*
X72582657Y-58128094D02*
X72725514Y-58223332D01*
X72725514Y-58223332D02*
X72915990Y-58270951D01*
X72915990Y-58270951D02*
X73296942Y-58270951D01*
X73296942Y-58270951D02*
X73392180Y-58223332D01*
X73392180Y-58223332D02*
X73439800Y-58175713D01*
X73439800Y-58175713D02*
X73487419Y-58080475D01*
X73487419Y-58080475D02*
X73487419Y-57889999D01*
X73487419Y-57889999D02*
X73439800Y-57794761D01*
X73439800Y-57794761D02*
X73392180Y-57747142D01*
X73392180Y-57747142D02*
X73296942Y-57699523D01*
X73296942Y-57699523D02*
X73058847Y-57699523D01*
X73058847Y-57699523D02*
X72963609Y-57747142D01*
X72963609Y-57747142D02*
X72915990Y-57794761D01*
X72915990Y-57794761D02*
X72868371Y-57889999D01*
X72868371Y-57889999D02*
X72868371Y-58080475D01*
X72868371Y-58080475D02*
X72915990Y-58175713D01*
X72915990Y-58175713D02*
X72963609Y-58223332D01*
X72963609Y-58223332D02*
X73058847Y-58270951D01*
X72487419Y-56842380D02*
X72487419Y-57032856D01*
X72487419Y-57032856D02*
X72535038Y-57128094D01*
X72535038Y-57128094D02*
X72582657Y-57175713D01*
X72582657Y-57175713D02*
X72725514Y-57270951D01*
X72725514Y-57270951D02*
X72915990Y-57318570D01*
X72915990Y-57318570D02*
X73296942Y-57318570D01*
X73296942Y-57318570D02*
X73392180Y-57270951D01*
X73392180Y-57270951D02*
X73439800Y-57223332D01*
X73439800Y-57223332D02*
X73487419Y-57128094D01*
X73487419Y-57128094D02*
X73487419Y-56937618D01*
X73487419Y-56937618D02*
X73439800Y-56842380D01*
X73439800Y-56842380D02*
X73392180Y-56794761D01*
X73392180Y-56794761D02*
X73296942Y-56747142D01*
X73296942Y-56747142D02*
X73058847Y-56747142D01*
X73058847Y-56747142D02*
X72963609Y-56794761D01*
X72963609Y-56794761D02*
X72915990Y-56842380D01*
X72915990Y-56842380D02*
X72868371Y-56937618D01*
X72868371Y-56937618D02*
X72868371Y-57128094D01*
X72868371Y-57128094D02*
X72915990Y-57223332D01*
X72915990Y-57223332D02*
X72963609Y-57270951D01*
X72963609Y-57270951D02*
X73058847Y-57318570D01*
D10*
X91266666Y-77774819D02*
X91266666Y-78489104D01*
X91266666Y-78489104D02*
X91219047Y-78631961D01*
X91219047Y-78631961D02*
X91123809Y-78727200D01*
X91123809Y-78727200D02*
X90980952Y-78774819D01*
X90980952Y-78774819D02*
X90885714Y-78774819D01*
X91695238Y-77870057D02*
X91742857Y-77822438D01*
X91742857Y-77822438D02*
X91838095Y-77774819D01*
X91838095Y-77774819D02*
X92076190Y-77774819D01*
X92076190Y-77774819D02*
X92171428Y-77822438D01*
X92171428Y-77822438D02*
X92219047Y-77870057D01*
X92219047Y-77870057D02*
X92266666Y-77965295D01*
X92266666Y-77965295D02*
X92266666Y-78060533D01*
X92266666Y-78060533D02*
X92219047Y-78203390D01*
X92219047Y-78203390D02*
X91647619Y-78774819D01*
X91647619Y-78774819D02*
X92266666Y-78774819D01*
D11*
X46315200Y-52466667D02*
X46267580Y-52609524D01*
X46267580Y-52609524D02*
X46267580Y-52847619D01*
X46267580Y-52847619D02*
X46315200Y-52942857D01*
X46315200Y-52942857D02*
X46362819Y-52990476D01*
X46362819Y-52990476D02*
X46458057Y-53038095D01*
X46458057Y-53038095D02*
X46553295Y-53038095D01*
X46553295Y-53038095D02*
X46648533Y-52990476D01*
X46648533Y-52990476D02*
X46696152Y-52942857D01*
X46696152Y-52942857D02*
X46743771Y-52847619D01*
X46743771Y-52847619D02*
X46791390Y-52657143D01*
X46791390Y-52657143D02*
X46839009Y-52561905D01*
X46839009Y-52561905D02*
X46886628Y-52514286D01*
X46886628Y-52514286D02*
X46981866Y-52466667D01*
X46981866Y-52466667D02*
X47077104Y-52466667D01*
X47077104Y-52466667D02*
X47172342Y-52514286D01*
X47172342Y-52514286D02*
X47219961Y-52561905D01*
X47219961Y-52561905D02*
X47267580Y-52657143D01*
X47267580Y-52657143D02*
X47267580Y-52895238D01*
X47267580Y-52895238D02*
X47219961Y-53038095D01*
X47267580Y-53371429D02*
X46267580Y-53609524D01*
X46267580Y-53609524D02*
X46981866Y-53800000D01*
X46981866Y-53800000D02*
X46267580Y-53990476D01*
X46267580Y-53990476D02*
X47267580Y-54228572D01*
X47172342Y-54561905D02*
X47219961Y-54609524D01*
X47219961Y-54609524D02*
X47267580Y-54704762D01*
X47267580Y-54704762D02*
X47267580Y-54942857D01*
X47267580Y-54942857D02*
X47219961Y-55038095D01*
X47219961Y-55038095D02*
X47172342Y-55085714D01*
X47172342Y-55085714D02*
X47077104Y-55133333D01*
X47077104Y-55133333D02*
X46981866Y-55133333D01*
X46981866Y-55133333D02*
X46839009Y-55085714D01*
X46839009Y-55085714D02*
X46267580Y-54514286D01*
X46267580Y-54514286D02*
X46267580Y-55133333D01*
D10*
X43995088Y-78193142D02*
X42995088Y-78193142D01*
X42995088Y-78193142D02*
X42995088Y-77955047D01*
X42995088Y-77955047D02*
X43042707Y-77812190D01*
X43042707Y-77812190D02*
X43137945Y-77716952D01*
X43137945Y-77716952D02*
X43233183Y-77669333D01*
X43233183Y-77669333D02*
X43423659Y-77621714D01*
X43423659Y-77621714D02*
X43566516Y-77621714D01*
X43566516Y-77621714D02*
X43756992Y-77669333D01*
X43756992Y-77669333D02*
X43852230Y-77716952D01*
X43852230Y-77716952D02*
X43947469Y-77812190D01*
X43947469Y-77812190D02*
X43995088Y-77955047D01*
X43995088Y-77955047D02*
X43995088Y-78193142D01*
X43995088Y-76669333D02*
X43995088Y-77240761D01*
X43995088Y-76955047D02*
X42995088Y-76955047D01*
X42995088Y-76955047D02*
X43137945Y-77050285D01*
X43137945Y-77050285D02*
X43233183Y-77145523D01*
X43233183Y-77145523D02*
X43280802Y-77240761D01*
X98866666Y-77774819D02*
X98866666Y-78489104D01*
X98866666Y-78489104D02*
X98819047Y-78631961D01*
X98819047Y-78631961D02*
X98723809Y-78727200D01*
X98723809Y-78727200D02*
X98580952Y-78774819D01*
X98580952Y-78774819D02*
X98485714Y-78774819D01*
X99866666Y-78774819D02*
X99295238Y-78774819D01*
X99580952Y-78774819D02*
X99580952Y-77774819D01*
X99580952Y-77774819D02*
X99485714Y-77917676D01*
X99485714Y-77917676D02*
X99390476Y-78012914D01*
X99390476Y-78012914D02*
X99295238Y-78060533D01*
D11*
X97893419Y-49704475D02*
X97893419Y-49133047D01*
X98893419Y-49418761D02*
X97893419Y-49418761D01*
X98893419Y-48799713D02*
X97893419Y-48799713D01*
X97893419Y-48799713D02*
X97893419Y-48418761D01*
X97893419Y-48418761D02*
X97941038Y-48323523D01*
X97941038Y-48323523D02*
X97988657Y-48275904D01*
X97988657Y-48275904D02*
X98083895Y-48228285D01*
X98083895Y-48228285D02*
X98226752Y-48228285D01*
X98226752Y-48228285D02*
X98321990Y-48275904D01*
X98321990Y-48275904D02*
X98369609Y-48323523D01*
X98369609Y-48323523D02*
X98417228Y-48418761D01*
X98417228Y-48418761D02*
X98417228Y-48799713D01*
X98226752Y-47371142D02*
X98893419Y-47371142D01*
X97845800Y-47609237D02*
X98560085Y-47847332D01*
X98560085Y-47847332D02*
X98560085Y-47228285D01*
X97893419Y-46656856D02*
X97893419Y-46561618D01*
X97893419Y-46561618D02*
X97941038Y-46466380D01*
X97941038Y-46466380D02*
X97988657Y-46418761D01*
X97988657Y-46418761D02*
X98083895Y-46371142D01*
X98083895Y-46371142D02*
X98274371Y-46323523D01*
X98274371Y-46323523D02*
X98512466Y-46323523D01*
X98512466Y-46323523D02*
X98702942Y-46371142D01*
X98702942Y-46371142D02*
X98798180Y-46418761D01*
X98798180Y-46418761D02*
X98845800Y-46466380D01*
X98845800Y-46466380D02*
X98893419Y-46561618D01*
X98893419Y-46561618D02*
X98893419Y-46656856D01*
X98893419Y-46656856D02*
X98845800Y-46752094D01*
X98845800Y-46752094D02*
X98798180Y-46799713D01*
X98798180Y-46799713D02*
X98702942Y-46847332D01*
X98702942Y-46847332D02*
X98512466Y-46894951D01*
X98512466Y-46894951D02*
X98274371Y-46894951D01*
X98274371Y-46894951D02*
X98083895Y-46847332D01*
X98083895Y-46847332D02*
X97988657Y-46799713D01*
X97988657Y-46799713D02*
X97941038Y-46752094D01*
X97941038Y-46752094D02*
X97893419Y-46656856D01*
X97893419Y-45418761D02*
X97893419Y-45894951D01*
X97893419Y-45894951D02*
X98369609Y-45942570D01*
X98369609Y-45942570D02*
X98321990Y-45894951D01*
X98321990Y-45894951D02*
X98274371Y-45799713D01*
X98274371Y-45799713D02*
X98274371Y-45561618D01*
X98274371Y-45561618D02*
X98321990Y-45466380D01*
X98321990Y-45466380D02*
X98369609Y-45418761D01*
X98369609Y-45418761D02*
X98464847Y-45371142D01*
X98464847Y-45371142D02*
X98702942Y-45371142D01*
X98702942Y-45371142D02*
X98798180Y-45418761D01*
X98798180Y-45418761D02*
X98845800Y-45466380D01*
X98845800Y-45466380D02*
X98893419Y-45561618D01*
X98893419Y-45561618D02*
X98893419Y-45799713D01*
X98893419Y-45799713D02*
X98845800Y-45894951D01*
X98845800Y-45894951D02*
X98798180Y-45942570D01*
X97893419Y-44513999D02*
X97893419Y-44704475D01*
X97893419Y-44704475D02*
X97941038Y-44799713D01*
X97941038Y-44799713D02*
X97988657Y-44847332D01*
X97988657Y-44847332D02*
X98131514Y-44942570D01*
X98131514Y-44942570D02*
X98321990Y-44990189D01*
X98321990Y-44990189D02*
X98702942Y-44990189D01*
X98702942Y-44990189D02*
X98798180Y-44942570D01*
X98798180Y-44942570D02*
X98845800Y-44894951D01*
X98845800Y-44894951D02*
X98893419Y-44799713D01*
X98893419Y-44799713D02*
X98893419Y-44609237D01*
X98893419Y-44609237D02*
X98845800Y-44513999D01*
X98845800Y-44513999D02*
X98798180Y-44466380D01*
X98798180Y-44466380D02*
X98702942Y-44418761D01*
X98702942Y-44418761D02*
X98464847Y-44418761D01*
X98464847Y-44418761D02*
X98369609Y-44466380D01*
X98369609Y-44466380D02*
X98321990Y-44513999D01*
X98321990Y-44513999D02*
X98274371Y-44609237D01*
X98274371Y-44609237D02*
X98274371Y-44799713D01*
X98274371Y-44799713D02*
X98321990Y-44894951D01*
X98321990Y-44894951D02*
X98369609Y-44942570D01*
X98369609Y-44942570D02*
X98464847Y-44990189D01*
X75954752Y-109546618D02*
X76621419Y-109546618D01*
X76049990Y-109546618D02*
X76002371Y-109498999D01*
X76002371Y-109498999D02*
X75954752Y-109403761D01*
X75954752Y-109403761D02*
X75954752Y-109260904D01*
X75954752Y-109260904D02*
X76002371Y-109165666D01*
X76002371Y-109165666D02*
X76097609Y-109118047D01*
X76097609Y-109118047D02*
X76621419Y-109118047D01*
X76621419Y-108070428D02*
X76145228Y-108403761D01*
X76621419Y-108641856D02*
X75621419Y-108641856D01*
X75621419Y-108641856D02*
X75621419Y-108260904D01*
X75621419Y-108260904D02*
X75669038Y-108165666D01*
X75669038Y-108165666D02*
X75716657Y-108118047D01*
X75716657Y-108118047D02*
X75811895Y-108070428D01*
X75811895Y-108070428D02*
X75954752Y-108070428D01*
X75954752Y-108070428D02*
X76049990Y-108118047D01*
X76049990Y-108118047D02*
X76097609Y-108165666D01*
X76097609Y-108165666D02*
X76145228Y-108260904D01*
X76145228Y-108260904D02*
X76145228Y-108641856D01*
X76097609Y-107308523D02*
X76097609Y-107641856D01*
X76621419Y-107641856D02*
X75621419Y-107641856D01*
X75621419Y-107641856D02*
X75621419Y-107165666D01*
X75716657Y-106832332D02*
X75669038Y-106784713D01*
X75669038Y-106784713D02*
X75621419Y-106689475D01*
X75621419Y-106689475D02*
X75621419Y-106451380D01*
X75621419Y-106451380D02*
X75669038Y-106356142D01*
X75669038Y-106356142D02*
X75716657Y-106308523D01*
X75716657Y-106308523D02*
X75811895Y-106260904D01*
X75811895Y-106260904D02*
X75907133Y-106260904D01*
X75907133Y-106260904D02*
X76049990Y-106308523D01*
X76049990Y-106308523D02*
X76621419Y-106879951D01*
X76621419Y-106879951D02*
X76621419Y-106260904D01*
X75954752Y-105403761D02*
X76621419Y-105403761D01*
X75573800Y-105641856D02*
X76288085Y-105879951D01*
X76288085Y-105879951D02*
X76288085Y-105260904D01*
X76621419Y-104403761D02*
X76621419Y-104879951D01*
X76621419Y-104879951D02*
X75621419Y-104879951D01*
X75621419Y-103879951D02*
X75621419Y-103784713D01*
X75621419Y-103784713D02*
X75669038Y-103689475D01*
X75669038Y-103689475D02*
X75716657Y-103641856D01*
X75716657Y-103641856D02*
X75811895Y-103594237D01*
X75811895Y-103594237D02*
X76002371Y-103546618D01*
X76002371Y-103546618D02*
X76240466Y-103546618D01*
X76240466Y-103546618D02*
X76430942Y-103594237D01*
X76430942Y-103594237D02*
X76526180Y-103641856D01*
X76526180Y-103641856D02*
X76573800Y-103689475D01*
X76573800Y-103689475D02*
X76621419Y-103784713D01*
X76621419Y-103784713D02*
X76621419Y-103879951D01*
X76621419Y-103879951D02*
X76573800Y-103975189D01*
X76573800Y-103975189D02*
X76526180Y-104022808D01*
X76526180Y-104022808D02*
X76430942Y-104070427D01*
X76430942Y-104070427D02*
X76240466Y-104118046D01*
X76240466Y-104118046D02*
X76002371Y-104118046D01*
X76002371Y-104118046D02*
X75811895Y-104070427D01*
X75811895Y-104070427D02*
X75716657Y-104022808D01*
X75716657Y-104022808D02*
X75669038Y-103975189D01*
X75669038Y-103975189D02*
X75621419Y-103879951D01*
X76621419Y-102594237D02*
X76621419Y-103165665D01*
X76621419Y-102879951D02*
X75621419Y-102879951D01*
X75621419Y-102879951D02*
X75764276Y-102975189D01*
X75764276Y-102975189D02*
X75859514Y-103070427D01*
X75859514Y-103070427D02*
X75907133Y-103165665D01*
X76240466Y-102165665D02*
X76240466Y-101403761D01*
X76621419Y-101784713D02*
X75859514Y-101784713D01*
X76621419Y-100403761D02*
X76621419Y-100975189D01*
X76621419Y-100689475D02*
X75621419Y-100689475D01*
X75621419Y-100689475D02*
X75764276Y-100784713D01*
X75764276Y-100784713D02*
X75859514Y-100879951D01*
X75859514Y-100879951D02*
X75907133Y-100975189D01*
D10*
X55454819Y-70166666D02*
X54978628Y-70499999D01*
X55454819Y-70738094D02*
X54454819Y-70738094D01*
X54454819Y-70738094D02*
X54454819Y-70357142D01*
X54454819Y-70357142D02*
X54502438Y-70261904D01*
X54502438Y-70261904D02*
X54550057Y-70214285D01*
X54550057Y-70214285D02*
X54645295Y-70166666D01*
X54645295Y-70166666D02*
X54788152Y-70166666D01*
X54788152Y-70166666D02*
X54883390Y-70214285D01*
X54883390Y-70214285D02*
X54931009Y-70261904D01*
X54931009Y-70261904D02*
X54978628Y-70357142D01*
X54978628Y-70357142D02*
X54978628Y-70738094D01*
X54550057Y-69785713D02*
X54502438Y-69738094D01*
X54502438Y-69738094D02*
X54454819Y-69642856D01*
X54454819Y-69642856D02*
X54454819Y-69404761D01*
X54454819Y-69404761D02*
X54502438Y-69309523D01*
X54502438Y-69309523D02*
X54550057Y-69261904D01*
X54550057Y-69261904D02*
X54645295Y-69214285D01*
X54645295Y-69214285D02*
X54740533Y-69214285D01*
X54740533Y-69214285D02*
X54883390Y-69261904D01*
X54883390Y-69261904D02*
X55454819Y-69833332D01*
X55454819Y-69833332D02*
X55454819Y-69214285D01*
X55454819Y-56166666D02*
X54978628Y-56499999D01*
X55454819Y-56738094D02*
X54454819Y-56738094D01*
X54454819Y-56738094D02*
X54454819Y-56357142D01*
X54454819Y-56357142D02*
X54502438Y-56261904D01*
X54502438Y-56261904D02*
X54550057Y-56214285D01*
X54550057Y-56214285D02*
X54645295Y-56166666D01*
X54645295Y-56166666D02*
X54788152Y-56166666D01*
X54788152Y-56166666D02*
X54883390Y-56214285D01*
X54883390Y-56214285D02*
X54931009Y-56261904D01*
X54931009Y-56261904D02*
X54978628Y-56357142D01*
X54978628Y-56357142D02*
X54978628Y-56738094D01*
X55454819Y-55214285D02*
X55454819Y-55785713D01*
X55454819Y-55499999D02*
X54454819Y-55499999D01*
X54454819Y-55499999D02*
X54597676Y-55595237D01*
X54597676Y-55595237D02*
X54692914Y-55690475D01*
X54692914Y-55690475D02*
X54740533Y-55785713D01*
X43995088Y-92938142D02*
X42995088Y-92938142D01*
X42995088Y-92938142D02*
X42995088Y-92700047D01*
X42995088Y-92700047D02*
X43042707Y-92557190D01*
X43042707Y-92557190D02*
X43137945Y-92461952D01*
X43137945Y-92461952D02*
X43233183Y-92414333D01*
X43233183Y-92414333D02*
X43423659Y-92366714D01*
X43423659Y-92366714D02*
X43566516Y-92366714D01*
X43566516Y-92366714D02*
X43756992Y-92414333D01*
X43756992Y-92414333D02*
X43852230Y-92461952D01*
X43852230Y-92461952D02*
X43947469Y-92557190D01*
X43947469Y-92557190D02*
X43995088Y-92700047D01*
X43995088Y-92700047D02*
X43995088Y-92938142D01*
X42995088Y-92033380D02*
X42995088Y-91414333D01*
X42995088Y-91414333D02*
X43376040Y-91747666D01*
X43376040Y-91747666D02*
X43376040Y-91604809D01*
X43376040Y-91604809D02*
X43423659Y-91509571D01*
X43423659Y-91509571D02*
X43471278Y-91461952D01*
X43471278Y-91461952D02*
X43566516Y-91414333D01*
X43566516Y-91414333D02*
X43804611Y-91414333D01*
X43804611Y-91414333D02*
X43899849Y-91461952D01*
X43899849Y-91461952D02*
X43947469Y-91509571D01*
X43947469Y-91509571D02*
X43995088Y-91604809D01*
X43995088Y-91604809D02*
X43995088Y-91890523D01*
X43995088Y-91890523D02*
X43947469Y-91985761D01*
X43947469Y-91985761D02*
X43899849Y-92033380D01*
X46007469Y-69675880D02*
X46055088Y-69533023D01*
X46055088Y-69533023D02*
X46055088Y-69294928D01*
X46055088Y-69294928D02*
X46007469Y-69199690D01*
X46007469Y-69199690D02*
X45959849Y-69152071D01*
X45959849Y-69152071D02*
X45864611Y-69104452D01*
X45864611Y-69104452D02*
X45769373Y-69104452D01*
X45769373Y-69104452D02*
X45674135Y-69152071D01*
X45674135Y-69152071D02*
X45626516Y-69199690D01*
X45626516Y-69199690D02*
X45578897Y-69294928D01*
X45578897Y-69294928D02*
X45531278Y-69485404D01*
X45531278Y-69485404D02*
X45483659Y-69580642D01*
X45483659Y-69580642D02*
X45436040Y-69628261D01*
X45436040Y-69628261D02*
X45340802Y-69675880D01*
X45340802Y-69675880D02*
X45245564Y-69675880D01*
X45245564Y-69675880D02*
X45150326Y-69628261D01*
X45150326Y-69628261D02*
X45102707Y-69580642D01*
X45102707Y-69580642D02*
X45055088Y-69485404D01*
X45055088Y-69485404D02*
X45055088Y-69247309D01*
X45055088Y-69247309D02*
X45102707Y-69104452D01*
X45055088Y-68771118D02*
X46055088Y-68533023D01*
X46055088Y-68533023D02*
X45340802Y-68342547D01*
X45340802Y-68342547D02*
X46055088Y-68152071D01*
X46055088Y-68152071D02*
X45055088Y-67913976D01*
X46055088Y-67009214D02*
X46055088Y-67580642D01*
X46055088Y-67294928D02*
X45055088Y-67294928D01*
X45055088Y-67294928D02*
X45197945Y-67390166D01*
X45197945Y-67390166D02*
X45293183Y-67485404D01*
X45293183Y-67485404D02*
X45340802Y-67580642D01*
X55454819Y-84166666D02*
X54978628Y-84499999D01*
X55454819Y-84738094D02*
X54454819Y-84738094D01*
X54454819Y-84738094D02*
X54454819Y-84357142D01*
X54454819Y-84357142D02*
X54502438Y-84261904D01*
X54502438Y-84261904D02*
X54550057Y-84214285D01*
X54550057Y-84214285D02*
X54645295Y-84166666D01*
X54645295Y-84166666D02*
X54788152Y-84166666D01*
X54788152Y-84166666D02*
X54883390Y-84214285D01*
X54883390Y-84214285D02*
X54931009Y-84261904D01*
X54931009Y-84261904D02*
X54978628Y-84357142D01*
X54978628Y-84357142D02*
X54978628Y-84738094D01*
X54454819Y-83833332D02*
X54454819Y-83214285D01*
X54454819Y-83214285D02*
X54835771Y-83547618D01*
X54835771Y-83547618D02*
X54835771Y-83404761D01*
X54835771Y-83404761D02*
X54883390Y-83309523D01*
X54883390Y-83309523D02*
X54931009Y-83261904D01*
X54931009Y-83261904D02*
X55026247Y-83214285D01*
X55026247Y-83214285D02*
X55264342Y-83214285D01*
X55264342Y-83214285D02*
X55359580Y-83261904D01*
X55359580Y-83261904D02*
X55407200Y-83309523D01*
X55407200Y-83309523D02*
X55454819Y-83404761D01*
X55454819Y-83404761D02*
X55454819Y-83690475D01*
X55454819Y-83690475D02*
X55407200Y-83785713D01*
X55407200Y-83785713D02*
X55359580Y-83833332D01*
D12*
%TO.C,D2*%
X45955269Y-87387548D02*
X49045269Y-87387548D01*
X45955439Y-87387548D02*
G75*
G02*
X47500269Y-81837548I1544830J2560000D01*
G01*
X47500269Y-81837548D02*
G75*
G02*
X49045099Y-87387548I0J-2990000D01*
G01*
X50000269Y-84827548D02*
G75*
G02*
X45000269Y-84827548I-2500000J0D01*
G01*
X45000269Y-84827548D02*
G75*
G02*
X50000269Y-84827548I2500000J0D01*
G01*
D11*
%TO.C,ESP8266*%
X60076000Y-82560000D02*
X60076000Y-42300000D01*
X60076000Y-84560000D02*
X60076000Y-40300000D01*
X62076000Y-38300000D02*
X83984000Y-38300000D01*
X81984000Y-86560000D02*
X64076000Y-86560000D01*
X83984000Y-86560000D02*
X62076000Y-86560000D01*
X85984000Y-40300000D02*
X85984000Y-84560000D01*
X85984000Y-42300000D02*
X85984000Y-82560000D01*
X60076000Y-40300000D02*
G75*
G02*
X62076000Y-38300000I1999999J1D01*
G01*
X62076000Y-86560000D02*
G75*
G02*
X60076000Y-84560000I-1J1999999D01*
G01*
X83984000Y-38300000D02*
G75*
G02*
X85984000Y-40300000I0J-2000000D01*
G01*
X85984000Y-84560000D02*
G75*
G02*
X83984000Y-86560000I-2000000J0D01*
G01*
%TO.C,SW2*%
X42415000Y-50244000D02*
X37335000Y-50244000D01*
X37335000Y-53038000D01*
X42415000Y-53038000D01*
X42415000Y-50244000D01*
X48257000Y-47323000D02*
X42415000Y-47323000D01*
X42415000Y-60277000D01*
X48257000Y-60277000D01*
X48257000Y-47323000D01*
D12*
%TO.C,D1*%
X45955269Y-80015048D02*
X49045269Y-80015048D01*
X45955439Y-80015048D02*
G75*
G02*
X47500269Y-74465048I1544830J2560000D01*
G01*
X47500269Y-74465048D02*
G75*
G02*
X49045099Y-80015048I0J-2990000D01*
G01*
X50000269Y-77455048D02*
G75*
G02*
X45000269Y-77455048I-2500000J0D01*
G01*
X45000269Y-77455048D02*
G75*
G02*
X50000269Y-77455048I2500000J0D01*
G01*
D11*
%TO.C,TP4056*%
X86752000Y-38632000D02*
X104024000Y-38632000D01*
X86752000Y-65556000D02*
X86752000Y-38632000D01*
X86752000Y-65556000D02*
X88784000Y-65556000D01*
X90308000Y-64032000D02*
X100468000Y-64032000D01*
X104024000Y-38632000D02*
X104024000Y-65556000D01*
X104024000Y-65556000D02*
X101992000Y-65556000D01*
X88784000Y-65556000D02*
G75*
G02*
X90308000Y-64032000I1523999J1D01*
G01*
X100468000Y-64032000D02*
G75*
G02*
X101992000Y-65556000I0J-1524000D01*
G01*
%TO.C,nRF24L01+1*%
X93690000Y-108555000D02*
X88610000Y-108555000D01*
X88610000Y-98395000D01*
X93690000Y-98395000D01*
X93690000Y-108555000D01*
X94960000Y-111857000D02*
X53812000Y-111857000D01*
X53812000Y-95093000D01*
X94960000Y-95093000D01*
X94960000Y-111857000D01*
D12*
%TO.C,R2*%
X55000000Y-65960000D02*
X55000000Y-66730000D01*
X55000000Y-74040000D02*
X55000000Y-73270000D01*
X53630000Y-73270000D02*
X56370000Y-73270000D01*
X56370000Y-66730000D01*
X53630000Y-66730000D01*
X53630000Y-73270000D01*
%TO.C,R1*%
X55000000Y-51960000D02*
X55000000Y-52730000D01*
X55000000Y-60040000D02*
X55000000Y-59270000D01*
X53630000Y-59270000D02*
X56370000Y-59270000D01*
X56370000Y-52730000D01*
X53630000Y-52730000D01*
X53630000Y-59270000D01*
%TO.C,D3*%
X45955269Y-94760048D02*
X49045269Y-94760048D01*
X45955439Y-94760048D02*
G75*
G02*
X47500269Y-89210048I1544830J2560000D01*
G01*
X47500269Y-89210048D02*
G75*
G02*
X49045099Y-94760048I0J-2990000D01*
G01*
X50000269Y-92200048D02*
G75*
G02*
X45000269Y-92200048I-2500000J0D01*
G01*
X45000269Y-92200048D02*
G75*
G02*
X50000269Y-92200048I2500000J0D01*
G01*
%TO.C,SW1*%
X44250269Y-66292548D02*
X44250269Y-70792548D01*
X46750269Y-72042548D02*
X48250269Y-72042548D01*
X48250269Y-65042548D02*
X46750269Y-65042548D01*
X50750269Y-70792548D02*
X50750269Y-66292548D01*
%TO.C,R3*%
X55000000Y-79960000D02*
X55000000Y-80730000D01*
X55000000Y-88040000D02*
X55000000Y-87270000D01*
X53630000Y-87270000D02*
X56370000Y-87270000D01*
X56370000Y-80730000D01*
X53630000Y-80730000D01*
X53630000Y-87270000D01*
%TD*%
M02*
