M48
; DRILL file {KiCad 9.0.3} date 2025-09-06T14:30:11+0300
; FORMAT={-:-/ absolute / metric / decimal}
; #@! TF.CreationDate,2025-09-06T14:30:11+03:00
; #@! TF.GenerationSoftware,Kicad,Pcbnew,9.0.3
; #@! TF.FileFunction,Plated,1,2,PTH
FMAT,2
METRIC
; #@! TA.AperFunction,Plated,PTH,ComponentDrill
T1C0.800
; #@! TA.AperFunction,Plated,PTH,ComponentDrill
T2C0.900
; #@! TA.AperFunction,Plated,PTH,ComponentDrill
T3C1.100
; #@! TA.AperFunction,Plated,PTH,ComponentDrill
T4C1.200
%
G90
G05
T1
X47.488Y-54.18
X47.488Y-61.8
X55.0Y-50.92
X55.0Y-61.08
X55.0Y-64.92
X55.0Y-75.08
X55.0Y-78.92
X55.0Y-89.08
T2
X47.5Y-76.185
X47.5Y-78.725
X47.5Y-83.558
X47.5Y-86.098
X47.5Y-90.93
X47.5Y-93.47
X61.6Y-46.174
X61.6Y-48.46
X61.6Y-50.746
X61.6Y-53.032
X61.6Y-55.318
X61.6Y-57.604
X61.6Y-59.89
X61.6Y-62.43
X61.6Y-64.97
X61.6Y-67.256
X61.6Y-69.542
X61.6Y-71.828
X61.6Y-74.114
X61.6Y-76.4
X61.6Y-78.686
X79.152Y-100.206
X79.152Y-102.746
X79.152Y-105.286
X79.152Y-107.826
X81.692Y-100.206
X81.692Y-102.746
X81.692Y-105.286
X81.692Y-107.826
X84.46Y-46.174
X84.46Y-48.46
X84.46Y-50.746
X84.46Y-53.032
X84.46Y-55.318
X84.46Y-57.604
X84.46Y-59.89
X84.46Y-62.43
X84.46Y-64.97
X84.46Y-67.256
X84.46Y-69.542
X84.46Y-71.828
X84.46Y-74.114
X84.46Y-76.4
X84.46Y-78.686
T3
X45.25Y-65.293
X45.25Y-71.793
X49.75Y-65.293
X49.75Y-71.793
T4
X88.276Y-40.156
X88.276Y-62.0
X91.578Y-62.0
X99.198Y-62.0
X102.5Y-40.156
X102.5Y-62.0
M30
