%TF.GenerationSoftware,KiCad,Pcbnew,9.0.3*%
%TF.CreationDate,2025-09-06T14:30:13+03:00*%
%TF.ProjectId,ble_jammer_2.4ghz,626c655f-6a61-46d6-9d65-725f322e3467,rev?*%
%TF.SameCoordinates,Original*%
%TF.FileFunction,Copper,L1,Top*%
%TF.FilePolarity,Positive*%
%FSLAX46Y46*%
G04 Gerber Fmt 4.6, Leading zero omitted, Abs format (unit mm)*
G04 Created by KiCad (PCBNEW 9.0.3) date 2025-09-06 14:30:13*
%MOMM*%
%LPD*%
G01*
G04 APERTURE LIST*
G04 Aperture macros list*
%AMRoundRect*
0 Rectangle with rounded corners*
0 $1 Rounding radius*
0 $2 $3 $4 $5 $6 $7 $8 $9 X,Y pos of 4 corners*
0 Add a 4 corners polygon primitive as box body*
4,1,4,$2,$3,$4,$5,$6,$7,$8,$9,$2,$3,0*
0 Add four circle primitives for the rounded corners*
1,1,$1+$1,$2,$3*
1,1,$1+$1,$4,$5*
1,1,$1+$1,$6,$7*
1,1,$1+$1,$8,$9*
0 Add four rect primitives between the rounded corners*
20,1,$1+$1,$2,$3,$4,$5,0*
20,1,$1+$1,$4,$5,$6,$7,0*
20,1,$1+$1,$6,$7,$8,$9,0*
20,1,$1+$1,$8,$9,$2,$3,0*%
G04 Aperture macros list end*
%TA.AperFunction,SMDPad,CuDef*%
%ADD10RoundRect,0.250000X-0.825000X-0.825000X0.825000X-0.825000X0.825000X0.825000X-0.825000X0.825000X0*%
%TD*%
%TA.AperFunction,ComponentPad*%
%ADD11R,1.800000X1.800000*%
%TD*%
%TA.AperFunction,ComponentPad*%
%ADD12C,1.800000*%
%TD*%
%TA.AperFunction,ComponentPad*%
%ADD13C,2.000000*%
%TD*%
%TA.AperFunction,ComponentPad*%
%ADD14C,1.600000*%
%TD*%
%TA.AperFunction,ComponentPad*%
%ADD15RoundRect,0.250000X-0.550000X0.550000X-0.550000X-0.550000X0.550000X-0.550000X0.550000X0.550000X0*%
%TD*%
%TA.AperFunction,ComponentPad*%
%ADD16R,2.000000X2.000000*%
%TD*%
%TA.AperFunction,ComponentPad*%
%ADD17R,2.540000X2.540000*%
%TD*%
%TA.AperFunction,Conductor*%
%ADD18C,0.200000*%
%TD*%
%TA.AperFunction,Conductor*%
%ADD19C,1.000000*%
%TD*%
%TA.AperFunction,Conductor*%
%ADD20C,3.000000*%
%TD*%
G04 APERTURE END LIST*
D10*
%TO.P,B-,1,Pin_1*%
%TO.N,Net-(J2-Pin_1)*%
X91600000Y-80600000D03*
%TD*%
%TO.P,B+,1,Pin_1*%
%TO.N,Net-(J1-Pin_1)*%
X99200000Y-80600000D03*
%TD*%
D11*
%TO.P,D3,1,K*%
%TO.N,Net-(A1-GND)_1*%
X47500269Y-93470048D03*
D12*
%TO.P,D3,2,A*%
%TO.N,Net-(D3-A)*%
X47500269Y-90930048D03*
%TD*%
D11*
%TO.P,D2,1,K*%
%TO.N,Net-(A1-GND)_1*%
X47500269Y-86097548D03*
D12*
%TO.P,D2,2,A*%
%TO.N,Net-(D2-A)*%
X47500269Y-83557548D03*
%TD*%
%TO.P,D1,2,A*%
%TO.N,Net-(D1-A)*%
X47500269Y-76185048D03*
D11*
%TO.P,D1,1,K*%
%TO.N,Net-(A1-GND)_1*%
X47500269Y-78725048D03*
%TD*%
D13*
%TO.P,SW1,2,2*%
%TO.N,Net-(A1-RX)*%
X49750269Y-65292548D03*
X49750269Y-71792548D03*
%TO.P,SW1,1,1*%
%TO.N,Net-(A1-GND)_1*%
X45250269Y-65292548D03*
X45250269Y-71792548D03*
%TD*%
D14*
%TO.P,SW2,2,B*%
%TO.N,Net-(A1-Vin)*%
X47487769Y-61800048D03*
D15*
%TO.P,SW2,1,A*%
%TO.N,Net-(A2-VCC)*%
X47487769Y-54180048D03*
%TD*%
D16*
%TO.P,nRF24L01+,1,GND*%
%TO.N,Net-(A1-GND)_1*%
X81692000Y-107826000D03*
D13*
%TO.P,nRF24L01+,2,VCC*%
%TO.N,Net-(A2-VCC)*%
X79152000Y-107826000D03*
%TO.P,nRF24L01+,3,CE*%
%TO.N,Net-(A1-D4)*%
X81692000Y-105286000D03*
%TO.P,nRF24L01+,4,CNS*%
%TO.N,Net-(A1-D2)*%
X79152000Y-105286000D03*
%TO.P,nRF24L01+,5,SCK*%
%TO.N,Net-(A1-D5)*%
X81692000Y-102746000D03*
%TO.P,nRF24L01+,6,MOSI*%
%TO.N,Net-(A1-D7)*%
X79152000Y-102746000D03*
%TO.P,nRF24L01+,7,MISO*%
%TO.N,Net-(A1-D6)*%
X81692000Y-100206000D03*
%TO.P,nRF24L01+,8,IRQ*%
%TO.N,unconnected-(A2-IRQ-Pad8)*%
X79152000Y-100206000D03*
%TD*%
%TO.P,ESP8266,1,3V3*%
%TO.N,unconnected-(A1-3V3-Pad1)*%
X61600000Y-46174000D03*
X61600000Y-67256000D03*
X84460000Y-55318000D03*
%TO.P,ESP8266,2,Vin*%
%TO.N,Net-(A1-Vin)*%
X84460000Y-46174000D03*
%TO.P,ESP8266,3,GND*%
%TO.N,Net-(A1-GND)_1*%
X61600000Y-48460000D03*
X61600000Y-64970000D03*
X84460000Y-48460000D03*
X84460000Y-57604000D03*
%TO.P,ESP8266,5,TX*%
%TO.N,unconnected-(A1-TX-Pad5)*%
X61600000Y-50746000D03*
%TO.P,ESP8266,6,RST*%
%TO.N,unconnected-(A1-RST-Pad6)*%
X84460000Y-50746000D03*
%TO.P,ESP8266,7,RX*%
%TO.N,Net-(A1-RX)*%
X61600000Y-53032000D03*
%TO.P,ESP8266,8,EN*%
%TO.N,unconnected-(A1-EN-Pad8)*%
X84460000Y-53032000D03*
%TO.P,ESP8266,9,D8*%
%TO.N,unconnected-(A1-D8-Pad9)*%
X61600000Y-55318000D03*
%TO.P,ESP8266,11,D7*%
%TO.N,Net-(A1-D7)*%
X61600000Y-57604000D03*
%TO.P,ESP8266,13,D6*%
%TO.N,Net-(A1-D6)*%
X61600000Y-59890000D03*
%TO.P,ESP8266,14,CLK*%
%TO.N,unconnected-(A1-CLK-Pad14)*%
X84460000Y-59890000D03*
%TO.P,ESP8266,15,D5*%
%TO.N,Net-(A1-D5)*%
X61600000Y-62430000D03*
%TO.P,ESP8266,16,SD0*%
%TO.N,unconnected-(A1-SD0-Pad16)*%
X84460000Y-62430000D03*
%TO.P,ESP8266,18,CMD*%
%TO.N,unconnected-(A1-CMD-Pad18)*%
X84460000Y-64970000D03*
%TO.P,ESP8266,20,SD1*%
%TO.N,unconnected-(A1-SD1-Pad20)*%
X84460000Y-67256000D03*
%TO.P,ESP8266,21,D4*%
%TO.N,Net-(A1-D4)*%
X61600000Y-69542000D03*
%TO.P,ESP8266,22,SD2*%
%TO.N,unconnected-(A1-SD2-Pad22)*%
X84460000Y-69542000D03*
%TO.P,ESP8266,23,D3*%
%TO.N,Net-(A1-D3)*%
X61600000Y-71828000D03*
%TO.P,ESP8266,24,SD3*%
%TO.N,unconnected-(A1-SD3-Pad24)*%
X84460000Y-71828000D03*
%TO.P,ESP8266,25,D2*%
%TO.N,Net-(A1-D2)*%
X61600000Y-74114000D03*
%TO.P,ESP8266,26,RSV*%
%TO.N,unconnected-(A1-RSV-Pad26)*%
X84460000Y-74114000D03*
%TO.P,ESP8266,27,D1*%
%TO.N,Net-(A1-D1)*%
X61600000Y-76400000D03*
%TO.P,ESP8266,28,RSV*%
%TO.N,unconnected-(A1-RSV-Pad28)*%
X84460000Y-76400000D03*
%TO.P,ESP8266,29,D0*%
%TO.N,Net-(A1-D0)*%
X61600000Y-78686000D03*
%TO.P,ESP8266,30,A0*%
%TO.N,unconnected-(A1-A0-Pad30)*%
X84460000Y-78686000D03*
%TD*%
D17*
%TO.P,TO4056,1,+*%
%TO.N,unconnected-(U1-+-Pad1)*%
X102500000Y-40156000D03*
%TO.P,TO4056,2,OUT+*%
%TO.N,Net-(A2-VCC)*%
X102500000Y-62000000D03*
%TO.P,TO4056,3,B+*%
%TO.N,Net-(J1-Pin_1)*%
X99198000Y-62000000D03*
%TO.P,TO4056,4,-*%
%TO.N,unconnected-(U1---Pad4)*%
X88276000Y-40156000D03*
%TO.P,TO4056,5,B-*%
%TO.N,Net-(J2-Pin_1)*%
X91578000Y-62000000D03*
%TO.P,TO4056,6,OUT-*%
%TO.N,Net-(A1-GND)_1*%
X88276000Y-62000000D03*
%TD*%
D14*
%TO.P,R2,1*%
%TO.N,Net-(A1-D1)*%
X55000000Y-75080000D03*
%TO.P,R2,2*%
%TO.N,Net-(D2-A)*%
X55000000Y-64920000D03*
%TD*%
%TO.P,R1,1*%
%TO.N,Net-(A1-D3)*%
X55000000Y-61080000D03*
%TO.P,R1,2*%
%TO.N,Net-(D1-A)*%
X55000000Y-50920000D03*
%TD*%
%TO.P,R3,1*%
%TO.N,Net-(A1-D0)*%
X55000000Y-89080000D03*
%TO.P,R3,2*%
%TO.N,Net-(D3-A)*%
X55000000Y-78920000D03*
%TD*%
D18*
%TO.N,Net-(D3-A)*%
X55000000Y-83430317D02*
X47500269Y-90930048D01*
X55000000Y-78920000D02*
X55000000Y-83430317D01*
%TO.N,Net-(D2-A)*%
X50929952Y-77470048D02*
X50929952Y-80127865D01*
X53400000Y-75000000D02*
X50929952Y-77470048D01*
X50929952Y-80127865D02*
X47500269Y-83557548D01*
X53400000Y-66520000D02*
X53400000Y-75000000D01*
X55000000Y-64920000D02*
X53400000Y-66520000D01*
%TO.N,Net-(D1-A)*%
X48414952Y-76185048D02*
X47500269Y-76185048D01*
X52200000Y-72400000D02*
X48414952Y-76185048D01*
X52200000Y-53720000D02*
X52200000Y-72400000D01*
X55000000Y-50920000D02*
X52200000Y-53720000D01*
D19*
%TO.N,Net-(A2-VCC)*%
X47487769Y-47112231D02*
X51400000Y-43200000D01*
X47487769Y-54180048D02*
X47487769Y-47112231D01*
D18*
%TO.N,Net-(A1-RX)*%
X54200000Y-49000000D02*
X57568000Y-49000000D01*
X49850000Y-53350000D02*
X54200000Y-49000000D01*
X49850000Y-60540431D02*
X49850000Y-53350000D01*
X49750269Y-65292548D02*
X49750269Y-60640162D01*
X57568000Y-49000000D02*
X61600000Y-53032000D01*
X49750269Y-60640162D02*
X49850000Y-60540431D01*
X49750269Y-65292548D02*
X49750269Y-71792548D01*
%TO.N,Net-(A1-D3)*%
X57000000Y-67228000D02*
X61600000Y-71828000D01*
X57000000Y-63080000D02*
X57000000Y-67228000D01*
X55000000Y-61080000D02*
X57000000Y-63080000D01*
%TO.N,Net-(A1-D1)*%
X60280000Y-75080000D02*
X61600000Y-76400000D01*
X55000000Y-75080000D02*
X60280000Y-75080000D01*
%TO.N,Net-(A1-D0)*%
X55000000Y-85286000D02*
X61600000Y-78686000D01*
X55000000Y-89080000D02*
X55000000Y-85286000D01*
D20*
%TO.N,Net-(J1-Pin_1)*%
X99198000Y-62000000D02*
X99198000Y-80598000D01*
D18*
X99198000Y-80598000D02*
X99200000Y-80600000D01*
%TO.N,Net-(J2-Pin_1)*%
X91600000Y-62022000D02*
X91578000Y-62000000D01*
%TO.N,Net-(A1-D2)*%
X70200000Y-80200000D02*
X70200000Y-96334000D01*
X70200000Y-96334000D02*
X79152000Y-105286000D01*
X64114000Y-74114000D02*
X70200000Y-80200000D01*
X61600000Y-74114000D02*
X64114000Y-74114000D01*
%TO.N,Net-(A1-D7)*%
X71800000Y-95394000D02*
X71800000Y-67804000D01*
X71800000Y-67804000D02*
X61600000Y-57604000D01*
X79152000Y-102746000D02*
X71800000Y-95394000D01*
%TD*%
%TA.AperFunction,Conductor*%
%TO.N,Net-(A1-Vin)*%
G36*
X78806293Y-42525185D02*
G01*
X78826935Y-42541819D01*
X82453296Y-46168180D01*
X82453308Y-46168190D01*
X82516527Y-46221797D01*
X82516550Y-46221815D01*
X82549502Y-46245398D01*
X82549511Y-46245405D01*
X82582067Y-46264878D01*
X82620665Y-46287967D01*
X82757503Y-46332429D01*
X82826349Y-46344344D01*
X82826352Y-46344345D01*
X82880753Y-46345899D01*
X82881795Y-46345948D01*
X82913831Y-46357005D01*
X82945990Y-46367454D01*
X82946731Y-46368361D01*
X82947841Y-46368744D01*
X82968793Y-46395341D01*
X82990219Y-46421543D01*
X82990490Y-46422883D01*
X82991078Y-46423629D01*
X82991473Y-46427734D01*
X83000000Y-46469813D01*
X83000000Y-48079155D01*
X82997083Y-48103800D01*
X82997209Y-48103820D01*
X82996704Y-48107002D01*
X82996576Y-48108092D01*
X82996447Y-48108626D01*
X82959500Y-48341902D01*
X82959500Y-48578097D01*
X82996445Y-48811359D01*
X82996573Y-48811891D01*
X82996701Y-48812977D01*
X82997209Y-48816181D01*
X82997083Y-48816200D01*
X83000000Y-48840843D01*
X83000000Y-50365155D01*
X82997083Y-50389800D01*
X82997209Y-50389820D01*
X82996704Y-50393002D01*
X82996576Y-50394092D01*
X82996447Y-50394626D01*
X82959500Y-50627902D01*
X82959500Y-50864097D01*
X82996445Y-51097359D01*
X82996573Y-51097891D01*
X82996701Y-51098977D01*
X82997209Y-51102181D01*
X82997083Y-51102200D01*
X83000000Y-51126843D01*
X83000000Y-52651155D01*
X82997083Y-52675800D01*
X82997209Y-52675820D01*
X82996704Y-52679002D01*
X82996576Y-52680092D01*
X82996447Y-52680626D01*
X82959500Y-52913902D01*
X82959500Y-53150097D01*
X82996445Y-53383359D01*
X82996573Y-53383891D01*
X82996701Y-53384977D01*
X82997209Y-53388181D01*
X82997083Y-53388200D01*
X83000000Y-53412843D01*
X83000000Y-54937155D01*
X82997083Y-54961800D01*
X82997209Y-54961820D01*
X82996704Y-54965002D01*
X82996576Y-54966092D01*
X82996447Y-54966626D01*
X82959500Y-55199902D01*
X82959500Y-55436097D01*
X82996445Y-55669359D01*
X82996573Y-55669891D01*
X82996701Y-55670977D01*
X82997209Y-55674181D01*
X82997083Y-55674200D01*
X83000000Y-55698843D01*
X83000000Y-55962473D01*
X82980315Y-56029512D01*
X82927511Y-56075267D01*
X82903050Y-56083487D01*
X82862213Y-56092614D01*
X82762496Y-56126120D01*
X82641462Y-56203904D01*
X82641451Y-56203913D01*
X82588659Y-56249657D01*
X82494433Y-56358398D01*
X82494430Y-56358402D01*
X82434664Y-56489268D01*
X82414976Y-56556316D01*
X82394500Y-56698735D01*
X82394500Y-57976162D01*
X82406052Y-58083604D01*
X82406054Y-58083614D01*
X82417258Y-58135116D01*
X82451387Y-58237660D01*
X82529171Y-58358692D01*
X82529173Y-58358696D01*
X82572067Y-58408198D01*
X82573466Y-58409933D01*
X82574925Y-58411498D01*
X82574930Y-58411502D01*
X82574933Y-58411506D01*
X82683671Y-58505726D01*
X82749110Y-58535610D01*
X82814545Y-58565493D01*
X82814546Y-58565493D01*
X82814550Y-58565495D01*
X82881590Y-58585179D01*
X82881599Y-58585180D01*
X82881602Y-58585181D01*
X82893643Y-58586912D01*
X82957200Y-58615934D01*
X82994976Y-58674711D01*
X83000000Y-58709650D01*
X83000000Y-59509155D01*
X82997083Y-59533800D01*
X82997209Y-59533820D01*
X82996704Y-59537002D01*
X82996576Y-59538092D01*
X82996447Y-59538626D01*
X82959500Y-59771902D01*
X82959500Y-60008097D01*
X82996445Y-60241359D01*
X82996573Y-60241891D01*
X82996701Y-60242977D01*
X82997209Y-60246181D01*
X82997083Y-60246200D01*
X83000000Y-60270843D01*
X83000000Y-62049155D01*
X82997083Y-62073800D01*
X82997209Y-62073820D01*
X82996704Y-62077002D01*
X82996576Y-62078092D01*
X82996447Y-62078626D01*
X82959500Y-62311902D01*
X82959500Y-62548097D01*
X82996445Y-62781359D01*
X82996573Y-62781891D01*
X82996701Y-62782977D01*
X82997209Y-62786181D01*
X82997083Y-62786200D01*
X83000000Y-62810843D01*
X83000000Y-64589155D01*
X82997083Y-64613800D01*
X82997209Y-64613820D01*
X82996704Y-64617002D01*
X82996576Y-64618092D01*
X82996447Y-64618626D01*
X82959500Y-64851902D01*
X82959500Y-65088097D01*
X82996445Y-65321359D01*
X82996573Y-65321891D01*
X82996701Y-65322977D01*
X82997209Y-65326181D01*
X82997083Y-65326200D01*
X83000000Y-65350843D01*
X83000000Y-66376000D01*
X82980315Y-66443039D01*
X82927511Y-66488794D01*
X82876000Y-66500000D01*
X71396597Y-66500000D01*
X71329558Y-66480315D01*
X71308916Y-66463681D01*
X63052798Y-58207563D01*
X63019313Y-58146240D01*
X63022547Y-58081566D01*
X63063553Y-57955368D01*
X63083705Y-57828126D01*
X63100500Y-57722097D01*
X63100500Y-57485902D01*
X63063553Y-57252631D01*
X62990566Y-57028003D01*
X62883342Y-56817566D01*
X62744517Y-56626490D01*
X62666708Y-56548681D01*
X62633223Y-56487358D01*
X62638207Y-56417666D01*
X62666708Y-56373319D01*
X62681629Y-56358398D01*
X62744517Y-56295510D01*
X62883343Y-56104433D01*
X62990568Y-55893992D01*
X63063553Y-55669368D01*
X63063554Y-55669359D01*
X63100500Y-55436097D01*
X63100500Y-55199902D01*
X63063553Y-54966631D01*
X63002931Y-54780057D01*
X62990568Y-54742008D01*
X62990566Y-54742005D01*
X62990566Y-54742003D01*
X62883342Y-54531566D01*
X62744517Y-54340490D01*
X62666708Y-54262681D01*
X62633223Y-54201358D01*
X62638207Y-54131666D01*
X62666708Y-54087319D01*
X62744517Y-54009510D01*
X62883343Y-53818433D01*
X62990568Y-53607992D01*
X63063553Y-53383368D01*
X63081359Y-53270945D01*
X63100500Y-53150097D01*
X63100500Y-52913902D01*
X63063553Y-52680631D01*
X63001534Y-52489758D01*
X62990568Y-52456008D01*
X62990566Y-52456005D01*
X62990566Y-52456003D01*
X62883342Y-52245566D01*
X62744517Y-52054490D01*
X62666708Y-51976681D01*
X62633223Y-51915358D01*
X62638207Y-51845666D01*
X62666708Y-51801319D01*
X62700814Y-51767213D01*
X62744517Y-51723510D01*
X62883343Y-51532433D01*
X62990568Y-51321992D01*
X63063553Y-51097368D01*
X63063554Y-51097359D01*
X63100500Y-50864097D01*
X63100500Y-50627902D01*
X63063553Y-50394631D01*
X62990566Y-50170003D01*
X62883342Y-49959566D01*
X62744517Y-49768490D01*
X62666708Y-49690681D01*
X62633223Y-49629358D01*
X62638207Y-49559666D01*
X62666708Y-49515319D01*
X62744517Y-49437510D01*
X62883343Y-49246433D01*
X62990568Y-49035992D01*
X63063553Y-48811368D01*
X63063554Y-48811359D01*
X63100500Y-48578097D01*
X63100500Y-48341902D01*
X63063553Y-48108631D01*
X62990566Y-47884003D01*
X62883342Y-47673566D01*
X62744517Y-47482490D01*
X62666708Y-47404681D01*
X62633223Y-47343358D01*
X62638207Y-47273666D01*
X62666708Y-47229319D01*
X62744517Y-47151510D01*
X62883343Y-46960433D01*
X62990568Y-46749992D01*
X63063553Y-46525368D01*
X63082302Y-46406992D01*
X63100500Y-46292097D01*
X63100500Y-46055902D01*
X63063553Y-45822631D01*
X62990566Y-45598003D01*
X62897351Y-45415060D01*
X62883343Y-45387567D01*
X62744517Y-45196490D01*
X62577510Y-45029483D01*
X62386433Y-44890657D01*
X62365408Y-44879944D01*
X62175996Y-44783433D01*
X61951368Y-44710446D01*
X61718097Y-44673500D01*
X61718092Y-44673500D01*
X61481908Y-44673500D01*
X61481903Y-44673500D01*
X61248631Y-44710446D01*
X61024003Y-44783433D01*
X60813566Y-44890657D01*
X60714228Y-44962831D01*
X60622490Y-45029483D01*
X60622488Y-45029485D01*
X60622487Y-45029485D01*
X60455485Y-45196487D01*
X60455485Y-45196488D01*
X60455483Y-45196490D01*
X60450391Y-45203499D01*
X60316657Y-45387566D01*
X60209433Y-45598003D01*
X60136446Y-45822631D01*
X60099500Y-46055902D01*
X60099500Y-46292097D01*
X60136446Y-46525368D01*
X60209433Y-46749996D01*
X60314408Y-46956019D01*
X60316657Y-46960433D01*
X60455483Y-47151510D01*
X60455485Y-47151512D01*
X60533292Y-47229319D01*
X60566777Y-47290642D01*
X60561793Y-47360334D01*
X60533292Y-47404681D01*
X60455485Y-47482487D01*
X60455485Y-47482488D01*
X60455483Y-47482490D01*
X60434788Y-47510974D01*
X60316657Y-47673566D01*
X60209433Y-47884003D01*
X60136446Y-48108631D01*
X60099500Y-48341902D01*
X60099500Y-48578097D01*
X60136446Y-48811368D01*
X60209433Y-49035996D01*
X60316657Y-49246433D01*
X60455483Y-49437510D01*
X60455485Y-49437512D01*
X60533292Y-49515319D01*
X60566777Y-49576642D01*
X60561793Y-49646334D01*
X60533292Y-49690681D01*
X60455485Y-49768487D01*
X60455485Y-49768488D01*
X60455483Y-49768490D01*
X60395862Y-49850550D01*
X60316657Y-49959566D01*
X60209433Y-50170003D01*
X60136447Y-50394629D01*
X60130137Y-50434467D01*
X60100206Y-50497601D01*
X60040894Y-50534532D01*
X59971031Y-50533532D01*
X59919983Y-50502748D01*
X58055590Y-48638355D01*
X58055588Y-48638352D01*
X57936717Y-48519481D01*
X57936716Y-48519480D01*
X57849904Y-48469360D01*
X57849904Y-48469359D01*
X57849900Y-48469358D01*
X57799785Y-48440423D01*
X57647057Y-48399499D01*
X57488943Y-48399499D01*
X57481347Y-48399499D01*
X57481331Y-48399500D01*
X54286669Y-48399500D01*
X54286653Y-48399499D01*
X54279057Y-48399499D01*
X54120943Y-48399499D01*
X54013587Y-48428265D01*
X53968210Y-48440424D01*
X53968209Y-48440425D01*
X53918096Y-48469359D01*
X53918095Y-48469360D01*
X53874689Y-48494420D01*
X53831285Y-48519479D01*
X53831282Y-48519481D01*
X49369479Y-52981284D01*
X49346733Y-53020682D01*
X49337119Y-53037336D01*
X49326633Y-53055498D01*
X49290423Y-53118214D01*
X49290423Y-53118215D01*
X49249499Y-53270943D01*
X49249499Y-53270945D01*
X49249499Y-53439046D01*
X49249500Y-53439059D01*
X49249500Y-60273292D01*
X49245350Y-60288780D01*
X49246005Y-60302523D01*
X49232889Y-60335289D01*
X49219631Y-60358254D01*
X49219628Y-60358258D01*
X49190694Y-60408371D01*
X49190693Y-60408372D01*
X49190692Y-60408377D01*
X49149768Y-60561105D01*
X49149768Y-60561107D01*
X49149768Y-60729208D01*
X49149769Y-60729221D01*
X49149769Y-63838479D01*
X49130084Y-63905518D01*
X49082065Y-63948963D01*
X48963837Y-64009203D01*
X48830165Y-64106322D01*
X48772759Y-64148031D01*
X48772757Y-64148033D01*
X48772756Y-64148033D01*
X48605754Y-64315035D01*
X48605754Y-64315036D01*
X48605752Y-64315038D01*
X48559069Y-64379292D01*
X48466926Y-64506114D01*
X48359702Y-64716551D01*
X48286715Y-64941179D01*
X48249769Y-65174450D01*
X48249769Y-65410645D01*
X48286715Y-65643916D01*
X48359702Y-65868544D01*
X48456533Y-66058583D01*
X48466926Y-66078981D01*
X48605752Y-66270058D01*
X48605754Y-66270060D01*
X48624013Y-66288319D01*
X48657498Y-66349642D01*
X48652514Y-66419334D01*
X48610642Y-66475267D01*
X48545178Y-66499684D01*
X48536332Y-66500000D01*
X46464206Y-66500000D01*
X46397167Y-66480315D01*
X46351412Y-66427511D01*
X46341468Y-66358353D01*
X46370493Y-66294797D01*
X46376525Y-66288319D01*
X46376629Y-66288215D01*
X46394786Y-66270058D01*
X46533612Y-66078981D01*
X46640837Y-65868540D01*
X46713822Y-65643916D01*
X46744049Y-65453071D01*
X46750769Y-65410645D01*
X46750769Y-65174450D01*
X46713822Y-64941179D01*
X46640835Y-64716551D01*
X46533611Y-64506114D01*
X46394786Y-64315038D01*
X46227779Y-64148031D01*
X46036702Y-64009205D01*
X46003891Y-63992487D01*
X45826265Y-63901981D01*
X45601637Y-63828994D01*
X45368366Y-63792048D01*
X45368361Y-63792048D01*
X45132177Y-63792048D01*
X45132172Y-63792048D01*
X44898900Y-63828994D01*
X44674272Y-63901981D01*
X44463835Y-64009205D01*
X44354819Y-64088410D01*
X44272759Y-64148031D01*
X44272757Y-64148033D01*
X44272756Y-64148033D01*
X44105754Y-64315035D01*
X44105754Y-64315036D01*
X44105752Y-64315038D01*
X44059069Y-64379292D01*
X43966926Y-64506114D01*
X43859702Y-64716551D01*
X43786715Y-64941179D01*
X43749769Y-65174450D01*
X43749769Y-65410645D01*
X43786715Y-65643916D01*
X43859702Y-65868544D01*
X43956533Y-66058583D01*
X43966926Y-66078981D01*
X44105752Y-66270058D01*
X44105754Y-66270060D01*
X44124013Y-66288319D01*
X44157498Y-66349642D01*
X44152514Y-66419334D01*
X44110642Y-66475267D01*
X44045178Y-66499684D01*
X44036332Y-66500000D01*
X42624500Y-66500000D01*
X42557461Y-66480315D01*
X42511706Y-66427511D01*
X42500500Y-66376000D01*
X42500500Y-45129500D01*
X42520185Y-45062461D01*
X42572989Y-45016706D01*
X42624500Y-45005500D01*
X44164416Y-45005500D01*
X44182398Y-45005179D01*
X44182408Y-45005178D01*
X44182443Y-45005178D01*
X44191289Y-45004862D01*
X44209306Y-45003896D01*
X44349898Y-44973312D01*
X44415362Y-44948895D01*
X44541637Y-44879944D01*
X44643377Y-44778207D01*
X44668167Y-44745092D01*
X44724099Y-44703221D01*
X44793791Y-44698237D01*
X44821235Y-44707683D01*
X44826975Y-44710447D01*
X45041592Y-44813801D01*
X45172444Y-44859588D01*
X45306670Y-44906556D01*
X45306682Y-44906560D01*
X45580491Y-44969055D01*
X45580497Y-44969055D01*
X45580505Y-44969057D01*
X45766547Y-44990018D01*
X45859569Y-45000499D01*
X45859572Y-45000500D01*
X45859575Y-45000500D01*
X46140428Y-45000500D01*
X46140429Y-45000499D01*
X46283055Y-44984429D01*
X46419494Y-44969057D01*
X46419499Y-44969056D01*
X46419509Y-44969055D01*
X46693318Y-44906560D01*
X46958408Y-44813801D01*
X47178709Y-44707709D01*
X47247647Y-44696358D01*
X47311782Y-44724080D01*
X47336823Y-44752389D01*
X47340778Y-44758543D01*
X47340782Y-44758548D01*
X47386526Y-44811340D01*
X47386529Y-44811343D01*
X47386533Y-44811347D01*
X47495267Y-44905567D01*
X47495270Y-44905568D01*
X47495271Y-44905569D01*
X47620656Y-44962832D01*
X47626144Y-44965338D01*
X47693183Y-44985023D01*
X47693187Y-44985024D01*
X47835603Y-45005500D01*
X47880218Y-45005500D01*
X47947257Y-45025185D01*
X47993012Y-45077989D01*
X48002956Y-45147147D01*
X47973931Y-45210703D01*
X47967901Y-45217178D01*
X46849990Y-46335089D01*
X46849987Y-46335092D01*
X46789738Y-46395341D01*
X46710628Y-46474450D01*
X46601140Y-46638311D01*
X46601135Y-46638320D01*
X46577455Y-46695491D01*
X46525719Y-46820392D01*
X46525716Y-46820402D01*
X46515477Y-46871878D01*
X46515477Y-46871879D01*
X46487269Y-47013687D01*
X46487269Y-52967817D01*
X46467584Y-53034856D01*
X46450951Y-53055498D01*
X46345056Y-53161393D01*
X46252956Y-53310711D01*
X46252955Y-53310714D01*
X46197770Y-53477251D01*
X46197770Y-53477252D01*
X46197769Y-53477252D01*
X46187269Y-53580031D01*
X46187269Y-54780049D01*
X46187270Y-54780066D01*
X46197769Y-54882844D01*
X46197770Y-54882847D01*
X46224994Y-54965002D01*
X46252955Y-55049382D01*
X46345057Y-55198704D01*
X46469113Y-55322760D01*
X46618435Y-55414862D01*
X46784972Y-55470047D01*
X46887760Y-55480548D01*
X48087777Y-55480547D01*
X48190566Y-55470047D01*
X48357103Y-55414862D01*
X48506425Y-55322760D01*
X48630481Y-55198704D01*
X48722583Y-55049382D01*
X48777768Y-54882845D01*
X48788269Y-54780057D01*
X48788268Y-53580040D01*
X48777768Y-53477251D01*
X48722583Y-53310714D01*
X48630481Y-53161392D01*
X48524587Y-53055498D01*
X48491103Y-52994175D01*
X48488269Y-52967817D01*
X48488269Y-47578013D01*
X48507954Y-47510974D01*
X48524588Y-47490332D01*
X50973101Y-45041819D01*
X51034424Y-45008334D01*
X51060782Y-45005500D01*
X52455103Y-45005500D01*
X52455106Y-45005500D01*
X52486309Y-45004536D01*
X52501589Y-45003591D01*
X52509597Y-45002846D01*
X52532674Y-45000703D01*
X52532676Y-45000702D01*
X52532679Y-45000702D01*
X52671486Y-44962832D01*
X52735589Y-44935036D01*
X52858102Y-44859595D01*
X55648527Y-42534241D01*
X55712630Y-42506445D01*
X55727910Y-42505500D01*
X78739254Y-42505500D01*
X78806293Y-42525185D01*
G37*
%TD.AperFunction*%
%TD*%
%TA.AperFunction,Conductor*%
%TO.N,Net-(A2-VCC)*%
G36*
X81516177Y-39020185D02*
G01*
X81536819Y-39036819D01*
X87000000Y-44500000D01*
X95337369Y-44500000D01*
X95404408Y-44519685D01*
X95424154Y-44535433D01*
X100962794Y-49963537D01*
X100996894Y-50024517D01*
X101000000Y-50052095D01*
X101000000Y-61122856D01*
X100996043Y-61113303D01*
X100982604Y-61090026D01*
X100980457Y-61085498D01*
X100977159Y-61064689D01*
X100968499Y-61032369D01*
X100968499Y-60682129D01*
X100968498Y-60682123D01*
X100968497Y-60682116D01*
X100962091Y-60622517D01*
X100960961Y-60619488D01*
X100911797Y-60487671D01*
X100911793Y-60487664D01*
X100825547Y-60372455D01*
X100825544Y-60372452D01*
X100710335Y-60286206D01*
X100710328Y-60286202D01*
X100575482Y-60235908D01*
X100575483Y-60235908D01*
X100515883Y-60229501D01*
X100515881Y-60229500D01*
X100515873Y-60229500D01*
X100515865Y-60229500D01*
X100165628Y-60229500D01*
X100103629Y-60212887D01*
X100084697Y-60201957D01*
X100084691Y-60201954D01*
X100084690Y-60201953D01*
X99842428Y-60101605D01*
X99842421Y-60101603D01*
X99842419Y-60101602D01*
X99589116Y-60033730D01*
X99531339Y-60026123D01*
X99329127Y-59999500D01*
X99329120Y-59999500D01*
X99066880Y-59999500D01*
X99066872Y-59999500D01*
X98835772Y-60029926D01*
X98806884Y-60033730D01*
X98604218Y-60088034D01*
X98553581Y-60101602D01*
X98553571Y-60101605D01*
X98311306Y-60201955D01*
X98311294Y-60201961D01*
X98292368Y-60212888D01*
X98230370Y-60229500D01*
X97880130Y-60229500D01*
X97880123Y-60229501D01*
X97820516Y-60235908D01*
X97685671Y-60286202D01*
X97685664Y-60286206D01*
X97570455Y-60372452D01*
X97570452Y-60372455D01*
X97484206Y-60487664D01*
X97484202Y-60487671D01*
X97433908Y-60622517D01*
X97428112Y-60676433D01*
X97427501Y-60682123D01*
X97427500Y-60682135D01*
X97427500Y-61032370D01*
X97410889Y-61094367D01*
X97399957Y-61113301D01*
X97399953Y-61113309D01*
X97299605Y-61355571D01*
X97299602Y-61355581D01*
X97273636Y-61452490D01*
X97231730Y-61608885D01*
X97197500Y-61868872D01*
X97197500Y-63500000D01*
X96500000Y-63500000D01*
X96500000Y-61000000D01*
X95000000Y-59500000D01*
X90069880Y-59500000D01*
X90098279Y-56631732D01*
X90086674Y-56518916D01*
X90083879Y-56506116D01*
X90074885Y-56464908D01*
X90074882Y-56464900D01*
X90074882Y-56464898D01*
X90050116Y-56391964D01*
X90038415Y-56357504D01*
X90038411Y-56357497D01*
X89959260Y-56237362D01*
X89959258Y-56237359D01*
X89959256Y-56237357D01*
X89959255Y-56237355D01*
X89936509Y-56211700D01*
X89912908Y-56185080D01*
X89912895Y-56185068D01*
X89803107Y-56092098D01*
X89671557Y-56033818D01*
X89671553Y-56033817D01*
X89607144Y-56015697D01*
X89605250Y-56015115D01*
X89604302Y-56014897D01*
X89604297Y-56014896D01*
X89604296Y-56014896D01*
X89461657Y-55996040D01*
X89461656Y-55996040D01*
X85976620Y-56035641D01*
X85909361Y-56016719D01*
X85863009Y-55964439D01*
X85852281Y-55895398D01*
X85857276Y-55873345D01*
X85923553Y-55669368D01*
X85960500Y-55436097D01*
X85960500Y-55199902D01*
X85923553Y-54966631D01*
X85850566Y-54742003D01*
X85743342Y-54531566D01*
X85604517Y-54340490D01*
X85526708Y-54262681D01*
X85493223Y-54201358D01*
X85498207Y-54131666D01*
X85526708Y-54087319D01*
X85604517Y-54009510D01*
X85743343Y-53818433D01*
X85850568Y-53607992D01*
X85923553Y-53383368D01*
X85928635Y-53351284D01*
X85960500Y-53150097D01*
X85960500Y-52913902D01*
X85923553Y-52680631D01*
X85889689Y-52576412D01*
X85850568Y-52456008D01*
X85850566Y-52456005D01*
X85850566Y-52456003D01*
X85743342Y-52245566D01*
X85604517Y-52054490D01*
X85526708Y-51976681D01*
X85493223Y-51915358D01*
X85498207Y-51845666D01*
X85526708Y-51801319D01*
X85560808Y-51767219D01*
X85604517Y-51723510D01*
X85743343Y-51532433D01*
X85850568Y-51321992D01*
X85923553Y-51097368D01*
X85960500Y-50864097D01*
X85960500Y-50627902D01*
X85923553Y-50394631D01*
X85850566Y-50170003D01*
X85790488Y-50052095D01*
X85743343Y-49959567D01*
X85604517Y-49768490D01*
X85526708Y-49690681D01*
X85493223Y-49629358D01*
X85498207Y-49559666D01*
X85526708Y-49515319D01*
X85604517Y-49437510D01*
X85743343Y-49246433D01*
X85850568Y-49035992D01*
X85923553Y-48811368D01*
X85960500Y-48578097D01*
X85960500Y-48341902D01*
X85923553Y-48108631D01*
X85850566Y-47884003D01*
X85743342Y-47673566D01*
X85604517Y-47482490D01*
X85526708Y-47404681D01*
X85493223Y-47343358D01*
X85498207Y-47273666D01*
X85526708Y-47229319D01*
X85604517Y-47151510D01*
X85743343Y-46960433D01*
X85850568Y-46749992D01*
X85923553Y-46525368D01*
X85960500Y-46292097D01*
X85960500Y-46055902D01*
X85923553Y-45822631D01*
X85850566Y-45598003D01*
X85743342Y-45387566D01*
X85604517Y-45196490D01*
X85437510Y-45029483D01*
X85246433Y-44890657D01*
X85035996Y-44783433D01*
X84811368Y-44710446D01*
X84578097Y-44673500D01*
X84578092Y-44673500D01*
X84341908Y-44673500D01*
X84341903Y-44673500D01*
X84108631Y-44710446D01*
X83884003Y-44783433D01*
X83673566Y-44890657D01*
X83651678Y-44906560D01*
X83482490Y-45029483D01*
X83482488Y-45029485D01*
X83482487Y-45029485D01*
X83315485Y-45196487D01*
X83315485Y-45196488D01*
X83315483Y-45196490D01*
X83255862Y-45278550D01*
X83176657Y-45387566D01*
X83069433Y-45598003D01*
X83016350Y-45761376D01*
X82976912Y-45819051D01*
X82912553Y-45846249D01*
X82843707Y-45834334D01*
X82810738Y-45810738D01*
X79000000Y-42000000D01*
X55500000Y-42000000D01*
X52534489Y-44471259D01*
X52470386Y-44499055D01*
X52455106Y-44500000D01*
X47835603Y-44500000D01*
X47768564Y-44480315D01*
X47722809Y-44427511D01*
X47712865Y-44358353D01*
X47741890Y-44294797D01*
X47747922Y-44288319D01*
X47867416Y-44168825D01*
X48042523Y-43949248D01*
X48191945Y-43711445D01*
X48313801Y-43458408D01*
X48406560Y-43193318D01*
X48469055Y-42919509D01*
X48500500Y-42640425D01*
X48500500Y-42359575D01*
X48469055Y-42080491D01*
X48406560Y-41806682D01*
X48313801Y-41541592D01*
X48191945Y-41288555D01*
X48042523Y-41050752D01*
X47867416Y-40831175D01*
X47668825Y-40632584D01*
X47449248Y-40457477D01*
X47211445Y-40308055D01*
X47211442Y-40308053D01*
X46958411Y-40186200D01*
X46693329Y-40093443D01*
X46693317Y-40093439D01*
X46419512Y-40030945D01*
X46419494Y-40030942D01*
X46140431Y-39999500D01*
X46140425Y-39999500D01*
X45859575Y-39999500D01*
X45859568Y-39999500D01*
X45580505Y-40030942D01*
X45580487Y-40030945D01*
X45306682Y-40093439D01*
X45306670Y-40093443D01*
X45041588Y-40186200D01*
X44788557Y-40308053D01*
X44550753Y-40457476D01*
X44331175Y-40632583D01*
X44132583Y-40831175D01*
X43957476Y-41050753D01*
X43808053Y-41288557D01*
X43686200Y-41541588D01*
X43593443Y-41806670D01*
X43593439Y-41806682D01*
X43530945Y-42080487D01*
X43530942Y-42080505D01*
X43499500Y-42359568D01*
X43499500Y-42640431D01*
X43530942Y-42919494D01*
X43530945Y-42919512D01*
X43593439Y-43193317D01*
X43593443Y-43193329D01*
X43686200Y-43458411D01*
X43808053Y-43711442D01*
X43808055Y-43711445D01*
X43957477Y-43949248D01*
X43964512Y-43958069D01*
X44132583Y-44168824D01*
X44252078Y-44288319D01*
X44285563Y-44349642D01*
X44280579Y-44419334D01*
X44238707Y-44475267D01*
X44173243Y-44499684D01*
X44164397Y-44500000D01*
X42624500Y-44500000D01*
X42557461Y-44480315D01*
X42511706Y-44427511D01*
X42500500Y-44376000D01*
X42500500Y-39124500D01*
X42520185Y-39057461D01*
X42572989Y-39011706D01*
X42624500Y-39000500D01*
X81449138Y-39000500D01*
X81516177Y-39020185D01*
G37*
%TD.AperFunction*%
%TD*%
%TA.AperFunction,Conductor*%
%TO.N,Net-(A2-VCC)*%
G36*
X104442539Y-58319685D02*
G01*
X104488294Y-58372489D01*
X104499500Y-58424000D01*
X104499500Y-112875500D01*
X104479815Y-112942539D01*
X104427011Y-112988294D01*
X104375500Y-112999500D01*
X42624500Y-112999500D01*
X42557461Y-112979815D01*
X42511706Y-112927011D01*
X42500500Y-112875500D01*
X42500500Y-109359568D01*
X98499500Y-109359568D01*
X98499500Y-109640431D01*
X98530942Y-109919494D01*
X98530945Y-109919512D01*
X98593439Y-110193317D01*
X98593443Y-110193329D01*
X98686200Y-110458411D01*
X98808053Y-110711442D01*
X98808055Y-110711445D01*
X98957477Y-110949248D01*
X99132584Y-111168825D01*
X99331175Y-111367416D01*
X99550752Y-111542523D01*
X99788555Y-111691945D01*
X100041592Y-111813801D01*
X100240680Y-111883465D01*
X100306670Y-111906556D01*
X100306682Y-111906560D01*
X100580491Y-111969055D01*
X100580497Y-111969055D01*
X100580505Y-111969057D01*
X100766547Y-111990018D01*
X100859569Y-112000499D01*
X100859572Y-112000500D01*
X100859575Y-112000500D01*
X101140428Y-112000500D01*
X101140429Y-112000499D01*
X101283055Y-111984429D01*
X101419494Y-111969057D01*
X101419499Y-111969056D01*
X101419509Y-111969055D01*
X101693318Y-111906560D01*
X101958408Y-111813801D01*
X102211445Y-111691945D01*
X102449248Y-111542523D01*
X102668825Y-111367416D01*
X102867416Y-111168825D01*
X103042523Y-110949248D01*
X103191945Y-110711445D01*
X103313801Y-110458408D01*
X103406560Y-110193318D01*
X103469055Y-109919509D01*
X103500500Y-109640425D01*
X103500500Y-109359575D01*
X103490018Y-109266547D01*
X103469057Y-109080505D01*
X103469054Y-109080487D01*
X103466279Y-109068331D01*
X103406560Y-108806682D01*
X103313801Y-108541592D01*
X103191945Y-108288555D01*
X103042523Y-108050752D01*
X102867416Y-107831175D01*
X102668825Y-107632584D01*
X102449248Y-107457477D01*
X102211445Y-107308055D01*
X102211442Y-107308053D01*
X101958411Y-107186200D01*
X101693329Y-107093443D01*
X101693317Y-107093439D01*
X101419512Y-107030945D01*
X101419494Y-107030942D01*
X101140431Y-106999500D01*
X101140425Y-106999500D01*
X100859575Y-106999500D01*
X100859568Y-106999500D01*
X100580505Y-107030942D01*
X100580487Y-107030945D01*
X100306682Y-107093439D01*
X100306670Y-107093443D01*
X100041588Y-107186200D01*
X99788557Y-107308053D01*
X99550753Y-107457476D01*
X99331175Y-107632583D01*
X99132583Y-107831175D01*
X98957476Y-108050753D01*
X98808053Y-108288557D01*
X98686200Y-108541588D01*
X98593443Y-108806670D01*
X98593439Y-108806682D01*
X98530945Y-109080487D01*
X98530942Y-109080505D01*
X98499500Y-109359568D01*
X42500500Y-109359568D01*
X42500500Y-71674450D01*
X43749769Y-71674450D01*
X43749769Y-71910645D01*
X43786715Y-72143916D01*
X43859702Y-72368544D01*
X43917914Y-72482790D01*
X43966926Y-72578981D01*
X44105752Y-72770058D01*
X44272759Y-72937065D01*
X44463836Y-73075891D01*
X44563260Y-73126550D01*
X44674272Y-73183114D01*
X44674274Y-73183114D01*
X44674277Y-73183116D01*
X44794681Y-73222237D01*
X44898900Y-73256101D01*
X45132172Y-73293048D01*
X45132177Y-73293048D01*
X45368366Y-73293048D01*
X45601637Y-73256101D01*
X45601643Y-73256099D01*
X45826261Y-73183116D01*
X46036702Y-73075891D01*
X46227779Y-72937065D01*
X46394786Y-72770058D01*
X46533612Y-72578981D01*
X46640837Y-72368540D01*
X46713822Y-72143916D01*
X46720793Y-72099902D01*
X46750769Y-71910645D01*
X46750769Y-71674450D01*
X46713822Y-71441179D01*
X46640835Y-71216551D01*
X46584271Y-71105539D01*
X46533612Y-71006115D01*
X46394786Y-70815038D01*
X46227779Y-70648031D01*
X46036702Y-70509205D01*
X46036698Y-70509203D01*
X45826265Y-70401981D01*
X45601637Y-70328994D01*
X45368366Y-70292048D01*
X45368361Y-70292048D01*
X45132177Y-70292048D01*
X45132172Y-70292048D01*
X44898900Y-70328994D01*
X44674272Y-70401981D01*
X44463835Y-70509205D01*
X44354819Y-70588410D01*
X44272759Y-70648031D01*
X44272757Y-70648033D01*
X44272756Y-70648033D01*
X44105754Y-70815035D01*
X44105754Y-70815036D01*
X44105752Y-70815038D01*
X44079997Y-70850487D01*
X43966926Y-71006114D01*
X43859702Y-71216551D01*
X43786715Y-71441179D01*
X43749769Y-71674450D01*
X42500500Y-71674450D01*
X42500500Y-67129500D01*
X42520185Y-67062461D01*
X42572989Y-67016706D01*
X42624500Y-67005500D01*
X44036351Y-67005500D01*
X44054333Y-67005179D01*
X44054343Y-67005178D01*
X44054378Y-67005178D01*
X44063224Y-67004862D01*
X44081241Y-67003896D01*
X44221833Y-66973312D01*
X44287297Y-66948895D01*
X44413572Y-66879944D01*
X44515312Y-66778207D01*
X44550488Y-66731217D01*
X44606420Y-66689347D01*
X44676112Y-66684363D01*
X44688061Y-66687594D01*
X44794768Y-66722266D01*
X44898900Y-66756101D01*
X45132172Y-66793048D01*
X45132177Y-66793048D01*
X45368366Y-66793048D01*
X45601637Y-66756101D01*
X45813621Y-66687222D01*
X45883459Y-66685228D01*
X45943292Y-66721308D01*
X45956252Y-66738114D01*
X45969380Y-66758542D01*
X45969386Y-66758549D01*
X46015129Y-66811340D01*
X46015132Y-66811343D01*
X46015136Y-66811347D01*
X46123870Y-66905567D01*
X46123873Y-66905568D01*
X46123874Y-66905569D01*
X46218742Y-66948895D01*
X46254747Y-66965338D01*
X46321786Y-66985023D01*
X46321790Y-66985024D01*
X46464206Y-67005500D01*
X46464209Y-67005500D01*
X48536351Y-67005500D01*
X48554333Y-67005179D01*
X48554343Y-67005178D01*
X48554378Y-67005178D01*
X48563224Y-67004862D01*
X48581241Y-67003896D01*
X48721833Y-66973312D01*
X48787297Y-66948895D01*
X48913572Y-66879944D01*
X48938090Y-66855426D01*
X48999413Y-66821943D01*
X49069104Y-66826929D01*
X49125037Y-66868801D01*
X49149453Y-66934266D01*
X49149769Y-66943110D01*
X49149769Y-70338479D01*
X49130084Y-70405518D01*
X49082065Y-70448963D01*
X48963837Y-70509203D01*
X48842558Y-70597319D01*
X48772759Y-70648031D01*
X48772757Y-70648033D01*
X48772756Y-70648033D01*
X48605754Y-70815035D01*
X48605754Y-70815036D01*
X48605752Y-70815038D01*
X48579997Y-70850487D01*
X48466926Y-71006114D01*
X48359702Y-71216551D01*
X48286715Y-71441179D01*
X48249769Y-71674450D01*
X48249769Y-71910645D01*
X48286715Y-72143916D01*
X48359702Y-72368544D01*
X48417914Y-72482790D01*
X48466926Y-72578981D01*
X48605752Y-72770058D01*
X48772759Y-72937065D01*
X48963836Y-73075891D01*
X49063260Y-73126550D01*
X49174272Y-73183114D01*
X49174274Y-73183114D01*
X49174277Y-73183116D01*
X49294681Y-73222237D01*
X49398900Y-73256101D01*
X49632172Y-73293048D01*
X49632177Y-73293048D01*
X49868366Y-73293048D01*
X49981453Y-73275136D01*
X50101637Y-73256101D01*
X50101642Y-73256099D01*
X50101644Y-73256099D01*
X50144436Y-73242194D01*
X50192610Y-73226541D01*
X50262450Y-73224545D01*
X50322284Y-73260625D01*
X50353113Y-73323326D01*
X50345149Y-73392740D01*
X50318610Y-73432153D01*
X48610977Y-75139787D01*
X48549654Y-75173272D01*
X48479962Y-75168288D01*
X48435615Y-75139787D01*
X48412632Y-75116804D01*
X48412627Y-75116800D01*
X48234294Y-74987235D01*
X48234293Y-74987234D01*
X48234291Y-74987233D01*
X48171365Y-74955170D01*
X48037875Y-74887152D01*
X48037872Y-74887151D01*
X47828221Y-74819033D01*
X47719355Y-74801790D01*
X47610491Y-74784548D01*
X47390047Y-74784548D01*
X47317470Y-74796043D01*
X47172316Y-74819033D01*
X46962665Y-74887151D01*
X46962662Y-74887152D01*
X46766243Y-74987235D01*
X46587910Y-75116800D01*
X46587905Y-75116804D01*
X46432025Y-75272684D01*
X46432021Y-75272689D01*
X46302456Y-75451022D01*
X46202373Y-75647441D01*
X46202372Y-75647444D01*
X46134254Y-75857095D01*
X46099769Y-76074826D01*
X46099769Y-76295269D01*
X46134254Y-76513000D01*
X46202372Y-76722651D01*
X46202373Y-76722654D01*
X46302456Y-76919073D01*
X46432021Y-77097406D01*
X46432025Y-77097411D01*
X46482197Y-77147583D01*
X46515682Y-77208906D01*
X46510698Y-77278598D01*
X46468826Y-77334531D01*
X46437850Y-77351446D01*
X46357938Y-77381251D01*
X46357933Y-77381254D01*
X46242724Y-77467500D01*
X46242721Y-77467503D01*
X46156475Y-77582712D01*
X46156471Y-77582719D01*
X46106177Y-77717565D01*
X46100525Y-77770144D01*
X46099770Y-77777171D01*
X46099769Y-77777183D01*
X46099769Y-79672918D01*
X46099770Y-79672924D01*
X46106177Y-79732531D01*
X46156471Y-79867376D01*
X46156475Y-79867383D01*
X46242721Y-79982592D01*
X46242724Y-79982595D01*
X46357933Y-80068841D01*
X46357940Y-80068845D01*
X46492786Y-80119139D01*
X46492785Y-80119139D01*
X46499713Y-80119883D01*
X46552396Y-80125548D01*
X48448141Y-80125547D01*
X48507752Y-80119139D01*
X48642600Y-80068844D01*
X48757815Y-79982594D01*
X48844065Y-79867379D01*
X48894360Y-79732531D01*
X48900769Y-79672921D01*
X48900768Y-77777176D01*
X48894360Y-77717565D01*
X48893321Y-77714780D01*
X48844066Y-77582719D01*
X48844062Y-77582712D01*
X48757816Y-77467503D01*
X48757813Y-77467500D01*
X48642604Y-77381254D01*
X48642597Y-77381250D01*
X48562688Y-77351446D01*
X48506754Y-77309575D01*
X48482337Y-77244110D01*
X48497189Y-77175837D01*
X48518338Y-77147585D01*
X48568511Y-77097413D01*
X48698084Y-76919070D01*
X48798164Y-76722654D01*
X48823417Y-76644930D01*
X48830402Y-76633530D01*
X48832514Y-76623825D01*
X48853660Y-76595575D01*
X48895472Y-76553764D01*
X48895473Y-76553761D01*
X52558506Y-72890728D01*
X52558511Y-72890724D01*
X52568715Y-72880520D01*
X52568716Y-72880520D01*
X52587819Y-72861417D01*
X52649142Y-72827932D01*
X52718834Y-72832916D01*
X52774767Y-72874788D01*
X52799184Y-72940252D01*
X52799500Y-72949098D01*
X52799500Y-74699902D01*
X52779815Y-74766941D01*
X52763181Y-74787583D01*
X50449434Y-77101329D01*
X50449432Y-77101331D01*
X50438027Y-77121085D01*
X50429678Y-77135548D01*
X50370375Y-77238263D01*
X50329451Y-77390991D01*
X50329451Y-77390993D01*
X50329451Y-77559094D01*
X50329452Y-77559107D01*
X50329452Y-79827767D01*
X50309767Y-79894806D01*
X50293133Y-79915448D01*
X48024471Y-82184109D01*
X47963148Y-82217594D01*
X47898472Y-82214359D01*
X47873853Y-82206360D01*
X47828221Y-82191533D01*
X47660685Y-82164998D01*
X47610491Y-82157048D01*
X47390047Y-82157048D01*
X47339853Y-82164998D01*
X47172316Y-82191533D01*
X46962665Y-82259651D01*
X46962662Y-82259652D01*
X46766243Y-82359735D01*
X46587910Y-82489300D01*
X46587905Y-82489304D01*
X46432025Y-82645184D01*
X46432021Y-82645189D01*
X46302456Y-82823522D01*
X46202373Y-83019941D01*
X46202372Y-83019944D01*
X46134254Y-83229595D01*
X46099769Y-83447326D01*
X46099769Y-83667769D01*
X46134254Y-83885500D01*
X46202372Y-84095151D01*
X46202373Y-84095154D01*
X46302456Y-84291573D01*
X46432021Y-84469906D01*
X46432025Y-84469911D01*
X46482197Y-84520083D01*
X46515682Y-84581406D01*
X46510698Y-84651098D01*
X46468826Y-84707031D01*
X46437850Y-84723946D01*
X46357938Y-84753751D01*
X46357933Y-84753754D01*
X46242724Y-84840000D01*
X46242721Y-84840003D01*
X46156475Y-84955212D01*
X46156471Y-84955219D01*
X46106177Y-85090065D01*
X46099770Y-85149664D01*
X46099770Y-85149671D01*
X46099769Y-85149683D01*
X46099769Y-87045418D01*
X46099770Y-87045424D01*
X46106177Y-87105031D01*
X46156471Y-87239876D01*
X46156475Y-87239883D01*
X46242721Y-87355092D01*
X46242724Y-87355095D01*
X46357933Y-87441341D01*
X46357940Y-87441345D01*
X46492786Y-87491639D01*
X46492785Y-87491639D01*
X46499713Y-87492383D01*
X46552396Y-87498048D01*
X48448141Y-87498047D01*
X48507752Y-87491639D01*
X48642600Y-87441344D01*
X48757815Y-87355094D01*
X48844065Y-87239879D01*
X48894360Y-87105031D01*
X48900769Y-87045421D01*
X48900768Y-85149676D01*
X48894360Y-85090065D01*
X48893452Y-85087631D01*
X48844066Y-84955219D01*
X48844062Y-84955212D01*
X48757816Y-84840003D01*
X48757813Y-84840000D01*
X48642604Y-84753754D01*
X48642597Y-84753750D01*
X48562688Y-84723946D01*
X48506754Y-84682075D01*
X48482337Y-84616610D01*
X48497189Y-84548337D01*
X48518338Y-84520085D01*
X48568511Y-84469913D01*
X48698084Y-84291570D01*
X48798164Y-84095154D01*
X48866284Y-83885499D01*
X48900769Y-83667770D01*
X48900769Y-83447326D01*
X48866284Y-83229597D01*
X48843457Y-83159342D01*
X48841462Y-83089501D01*
X48873705Y-83033345D01*
X51298665Y-80608386D01*
X51298668Y-80608385D01*
X51410472Y-80496581D01*
X51460591Y-80409769D01*
X51489529Y-80359650D01*
X51530452Y-80206923D01*
X51530452Y-80048808D01*
X51530452Y-77770144D01*
X51550137Y-77703105D01*
X51566766Y-77682468D01*
X53631985Y-75617248D01*
X53693306Y-75583765D01*
X53762998Y-75588749D01*
X53818931Y-75630621D01*
X53830148Y-75648635D01*
X53887713Y-75761611D01*
X54008028Y-75927213D01*
X54152786Y-76071971D01*
X54307749Y-76184556D01*
X54318390Y-76192287D01*
X54434607Y-76251503D01*
X54500776Y-76285218D01*
X54500778Y-76285218D01*
X54500781Y-76285220D01*
X54605137Y-76319127D01*
X54695465Y-76348477D01*
X54796557Y-76364488D01*
X54897648Y-76380500D01*
X54897649Y-76380500D01*
X55102351Y-76380500D01*
X55102352Y-76380500D01*
X55304534Y-76348477D01*
X55499219Y-76285220D01*
X55681610Y-76192287D01*
X55843283Y-76074826D01*
X55847213Y-76071971D01*
X55847215Y-76071968D01*
X55847219Y-76071966D01*
X55991966Y-75927219D01*
X55991968Y-75927215D01*
X55991971Y-75927213D01*
X56112284Y-75761614D01*
X56112286Y-75761611D01*
X56112287Y-75761610D01*
X56119117Y-75748204D01*
X56167091Y-75697409D01*
X56229602Y-75680500D01*
X59979903Y-75680500D01*
X60009343Y-75689144D01*
X60039330Y-75695668D01*
X60044345Y-75699422D01*
X60046942Y-75700185D01*
X60067584Y-75716819D01*
X60147200Y-75796435D01*
X60180685Y-75857758D01*
X60177450Y-75922433D01*
X60136447Y-76048628D01*
X60099500Y-76281902D01*
X60099500Y-76518097D01*
X60136446Y-76751368D01*
X60209433Y-76975996D01*
X60290729Y-77135547D01*
X60316657Y-77186433D01*
X60455483Y-77377510D01*
X60455485Y-77377512D01*
X60533292Y-77455319D01*
X60566777Y-77516642D01*
X60561793Y-77586334D01*
X60533292Y-77630681D01*
X60455485Y-77708487D01*
X60455485Y-77708488D01*
X60455483Y-77708490D01*
X60395862Y-77790550D01*
X60316657Y-77899566D01*
X60209433Y-78110003D01*
X60136446Y-78334631D01*
X60099500Y-78567902D01*
X60099500Y-78804097D01*
X60136447Y-79037369D01*
X60136447Y-79037372D01*
X60177450Y-79163564D01*
X60179445Y-79233405D01*
X60147200Y-79289563D01*
X55808080Y-83628683D01*
X55746757Y-83662168D01*
X55677065Y-83657184D01*
X55621132Y-83615312D01*
X55596715Y-83549848D01*
X55599806Y-83517479D01*
X55599439Y-83517431D01*
X55600500Y-83509373D01*
X55600500Y-80149601D01*
X55620185Y-80082562D01*
X55668206Y-80039116D01*
X55681610Y-80032287D01*
X55847219Y-79911966D01*
X55991966Y-79767219D01*
X55991968Y-79767215D01*
X55991971Y-79767213D01*
X56044732Y-79694590D01*
X56112287Y-79601610D01*
X56205220Y-79419219D01*
X56268477Y-79224534D01*
X56300500Y-79022352D01*
X56300500Y-78817648D01*
X56268477Y-78615466D01*
X56253024Y-78567908D01*
X56205218Y-78420776D01*
X56161324Y-78334631D01*
X56112287Y-78238390D01*
X56104556Y-78227749D01*
X55991971Y-78072786D01*
X55847213Y-77928028D01*
X55681613Y-77807715D01*
X55681612Y-77807714D01*
X55681610Y-77807713D01*
X55607877Y-77770144D01*
X55499223Y-77714781D01*
X55304534Y-77651522D01*
X55129995Y-77623878D01*
X55102352Y-77619500D01*
X54897648Y-77619500D01*
X54873329Y-77623351D01*
X54695465Y-77651522D01*
X54500776Y-77714781D01*
X54318386Y-77807715D01*
X54152786Y-77928028D01*
X54008028Y-78072786D01*
X53887715Y-78238386D01*
X53794781Y-78420776D01*
X53731522Y-78615465D01*
X53701647Y-78804092D01*
X53699500Y-78817648D01*
X53699500Y-79022352D01*
X53701879Y-79037372D01*
X53731522Y-79224534D01*
X53794781Y-79419223D01*
X53887715Y-79601613D01*
X54008028Y-79767213D01*
X54008034Y-79767219D01*
X54152781Y-79911966D01*
X54318390Y-80032287D01*
X54331793Y-80039116D01*
X54382589Y-80087088D01*
X54399500Y-80149601D01*
X54399500Y-83130219D01*
X54379815Y-83197258D01*
X54363181Y-83217900D01*
X48024471Y-89556609D01*
X47963148Y-89590094D01*
X47898472Y-89586859D01*
X47873853Y-89578860D01*
X47828221Y-89564033D01*
X47719355Y-89546790D01*
X47610491Y-89529548D01*
X47390047Y-89529548D01*
X47317470Y-89541043D01*
X47172316Y-89564033D01*
X46962665Y-89632151D01*
X46962662Y-89632152D01*
X46766243Y-89732235D01*
X46587910Y-89861800D01*
X46587905Y-89861804D01*
X46432025Y-90017684D01*
X46432021Y-90017689D01*
X46302456Y-90196022D01*
X46202373Y-90392441D01*
X46202372Y-90392444D01*
X46134254Y-90602095D01*
X46099769Y-90819826D01*
X46099769Y-91040269D01*
X46134254Y-91258000D01*
X46202372Y-91467651D01*
X46202373Y-91467654D01*
X46302456Y-91664073D01*
X46432021Y-91842406D01*
X46432025Y-91842411D01*
X46482197Y-91892583D01*
X46515682Y-91953906D01*
X46510698Y-92023598D01*
X46468826Y-92079531D01*
X46437850Y-92096446D01*
X46357938Y-92126251D01*
X46357933Y-92126254D01*
X46242724Y-92212500D01*
X46242721Y-92212503D01*
X46156475Y-92327712D01*
X46156471Y-92327719D01*
X46106177Y-92462565D01*
X46099770Y-92522164D01*
X46099770Y-92522171D01*
X46099769Y-92522183D01*
X46099769Y-94417918D01*
X46099770Y-94417924D01*
X46106177Y-94477531D01*
X46156471Y-94612376D01*
X46156475Y-94612383D01*
X46242721Y-94727592D01*
X46242724Y-94727595D01*
X46357933Y-94813841D01*
X46357940Y-94813845D01*
X46492786Y-94864139D01*
X46492785Y-94864139D01*
X46499713Y-94864883D01*
X46552396Y-94870548D01*
X48448141Y-94870547D01*
X48507752Y-94864139D01*
X48642600Y-94813844D01*
X48757815Y-94727594D01*
X48844065Y-94612379D01*
X48894360Y-94477531D01*
X48900769Y-94417921D01*
X48900768Y-92522176D01*
X48894360Y-92462565D01*
X48844065Y-92327717D01*
X48844064Y-92327716D01*
X48844062Y-92327712D01*
X48757816Y-92212503D01*
X48757813Y-92212500D01*
X48642604Y-92126254D01*
X48642597Y-92126250D01*
X48562688Y-92096446D01*
X48506754Y-92054575D01*
X48482337Y-91989110D01*
X48497189Y-91920837D01*
X48518338Y-91892585D01*
X48568511Y-91842413D01*
X48698084Y-91664070D01*
X48798164Y-91467654D01*
X48866284Y-91257999D01*
X48900769Y-91040270D01*
X48900769Y-90819826D01*
X48866284Y-90602097D01*
X48843457Y-90531842D01*
X48841462Y-90462001D01*
X48873705Y-90405845D01*
X54191921Y-85087629D01*
X54253242Y-85054146D01*
X54322934Y-85059130D01*
X54378867Y-85101002D01*
X54403284Y-85166466D01*
X54403574Y-85177857D01*
X54403265Y-85192886D01*
X54399499Y-85206943D01*
X54399499Y-85365057D01*
X54399500Y-85365060D01*
X54399500Y-85376337D01*
X54399500Y-87850397D01*
X54379815Y-87917436D01*
X54331800Y-87960879D01*
X54318389Y-87967712D01*
X54152786Y-88088028D01*
X54008028Y-88232786D01*
X53887715Y-88398386D01*
X53794781Y-88580776D01*
X53731522Y-88775465D01*
X53699500Y-88977648D01*
X53699500Y-89182351D01*
X53731522Y-89384534D01*
X53794781Y-89579223D01*
X53887715Y-89761613D01*
X54008028Y-89927213D01*
X54152786Y-90071971D01*
X54307749Y-90184556D01*
X54318390Y-90192287D01*
X54434607Y-90251503D01*
X54500776Y-90285218D01*
X54500778Y-90285218D01*
X54500781Y-90285220D01*
X54605137Y-90319127D01*
X54695465Y-90348477D01*
X54796557Y-90364488D01*
X54897648Y-90380500D01*
X54897649Y-90380500D01*
X55102351Y-90380500D01*
X55102352Y-90380500D01*
X55304534Y-90348477D01*
X55499219Y-90285220D01*
X55681610Y-90192287D01*
X55774590Y-90124732D01*
X55847213Y-90071971D01*
X55847215Y-90071968D01*
X55847219Y-90071966D01*
X55991966Y-89927219D01*
X55991968Y-89927215D01*
X55991971Y-89927213D01*
X56044732Y-89854590D01*
X56112287Y-89761610D01*
X56205220Y-89579219D01*
X56268477Y-89384534D01*
X56300500Y-89182352D01*
X56300500Y-88977648D01*
X56268477Y-88775466D01*
X56205220Y-88580781D01*
X56205218Y-88580778D01*
X56205218Y-88580776D01*
X56171503Y-88514607D01*
X56112287Y-88398390D01*
X56104556Y-88387749D01*
X55991971Y-88232786D01*
X55847213Y-88088028D01*
X55681610Y-87967712D01*
X55668200Y-87960879D01*
X55617406Y-87912903D01*
X55600500Y-87850397D01*
X55600500Y-85586096D01*
X55620185Y-85519057D01*
X55636814Y-85498420D01*
X60996437Y-80138796D01*
X61057758Y-80105313D01*
X61122433Y-80108547D01*
X61248632Y-80149553D01*
X61336110Y-80163408D01*
X61481903Y-80186500D01*
X61481908Y-80186500D01*
X61718097Y-80186500D01*
X61951368Y-80149553D01*
X61984468Y-80138798D01*
X62175992Y-80076568D01*
X62386433Y-79969343D01*
X62577510Y-79830517D01*
X62744517Y-79663510D01*
X62883343Y-79472433D01*
X62990568Y-79261992D01*
X63063553Y-79037368D01*
X63065931Y-79022351D01*
X63100500Y-78804097D01*
X63100500Y-78567902D01*
X63063553Y-78334631D01*
X62990566Y-78110003D01*
X62934002Y-77998991D01*
X62883343Y-77899567D01*
X62744517Y-77708490D01*
X62666708Y-77630681D01*
X62633223Y-77569358D01*
X62638207Y-77499666D01*
X62666708Y-77455319D01*
X62744517Y-77377510D01*
X62883343Y-77186433D01*
X62990568Y-76975992D01*
X63063553Y-76751368D01*
X63068101Y-76722651D01*
X63100500Y-76518097D01*
X63100500Y-76281902D01*
X63063553Y-76048631D01*
X63001319Y-75857097D01*
X62990568Y-75824008D01*
X62990566Y-75824005D01*
X62990566Y-75824003D01*
X62926063Y-75697409D01*
X62883343Y-75613567D01*
X62744517Y-75422490D01*
X62666708Y-75344681D01*
X62633223Y-75283358D01*
X62638207Y-75213666D01*
X62666708Y-75169319D01*
X62696240Y-75139787D01*
X62744517Y-75091510D01*
X62883343Y-74900433D01*
X62943583Y-74782204D01*
X62991558Y-74731409D01*
X63054068Y-74714500D01*
X63813903Y-74714500D01*
X63880942Y-74734185D01*
X63901584Y-74750819D01*
X69563181Y-80412416D01*
X69596666Y-80473739D01*
X69599500Y-80500097D01*
X69599500Y-96247330D01*
X69599499Y-96247348D01*
X69599499Y-96413054D01*
X69599498Y-96413054D01*
X69640423Y-96565785D01*
X69669358Y-96615900D01*
X69669359Y-96615904D01*
X69669360Y-96615904D01*
X69719479Y-96702714D01*
X69719481Y-96702717D01*
X69838349Y-96821585D01*
X69838355Y-96821590D01*
X77699200Y-104682435D01*
X77732685Y-104743758D01*
X77729450Y-104808433D01*
X77688447Y-104934628D01*
X77651500Y-105167902D01*
X77651500Y-105404097D01*
X77688446Y-105637368D01*
X77761433Y-105861996D01*
X77868657Y-106072433D01*
X78007483Y-106263510D01*
X78174490Y-106430517D01*
X78365567Y-106569343D01*
X78441530Y-106608048D01*
X78576003Y-106676566D01*
X78576005Y-106676566D01*
X78576008Y-106676568D01*
X78696412Y-106715689D01*
X78800631Y-106749553D01*
X79033903Y-106786500D01*
X79033908Y-106786500D01*
X79270097Y-106786500D01*
X79503368Y-106749553D01*
X79727992Y-106676568D01*
X79938433Y-106569343D01*
X80037838Y-106497120D01*
X80103643Y-106473640D01*
X80171697Y-106489465D01*
X80220392Y-106539570D01*
X80234268Y-106608048D01*
X80226905Y-106640770D01*
X80197909Y-106718514D01*
X80197908Y-106718516D01*
X80194572Y-106749553D01*
X80191501Y-106778123D01*
X80191500Y-106778135D01*
X80191500Y-108873870D01*
X80191501Y-108873876D01*
X80197908Y-108933483D01*
X80248202Y-109068328D01*
X80248206Y-109068335D01*
X80334452Y-109183544D01*
X80334455Y-109183547D01*
X80449664Y-109269793D01*
X80449671Y-109269797D01*
X80584517Y-109320091D01*
X80584516Y-109320091D01*
X80591444Y-109320835D01*
X80644127Y-109326500D01*
X82739872Y-109326499D01*
X82799483Y-109320091D01*
X82934331Y-109269796D01*
X83049546Y-109183546D01*
X83135796Y-109068331D01*
X83186091Y-108933483D01*
X83192500Y-108873873D01*
X83192499Y-106778128D01*
X83186091Y-106718517D01*
X83170444Y-106676566D01*
X83135797Y-106583671D01*
X83135793Y-106583664D01*
X83049547Y-106468455D01*
X83049544Y-106468452D01*
X82934335Y-106382206D01*
X82926546Y-106377953D01*
X82928331Y-106374683D01*
X82886448Y-106343284D01*
X82862078Y-106277803D01*
X82876978Y-106209540D01*
X82885441Y-106196171D01*
X82975343Y-106072433D01*
X83082568Y-105861992D01*
X83155553Y-105637368D01*
X83192500Y-105404097D01*
X83192500Y-105167902D01*
X83155553Y-104934631D01*
X83093534Y-104743758D01*
X83082568Y-104710008D01*
X83082566Y-104710005D01*
X83082566Y-104710003D01*
X82975342Y-104499566D01*
X82961999Y-104481201D01*
X82836517Y-104308490D01*
X82669510Y-104141483D01*
X82634872Y-104116317D01*
X82592207Y-104060989D01*
X82586228Y-103991375D01*
X82618833Y-103929580D01*
X82634873Y-103915682D01*
X82669510Y-103890517D01*
X82836517Y-103723510D01*
X82975343Y-103532433D01*
X83082568Y-103321992D01*
X83155553Y-103097368D01*
X83178918Y-102949847D01*
X83192500Y-102864097D01*
X83192500Y-102627902D01*
X83155553Y-102394631D01*
X83093534Y-102203758D01*
X83082568Y-102170008D01*
X83082566Y-102170005D01*
X83082566Y-102170003D01*
X82975342Y-101959566D01*
X82961999Y-101941201D01*
X82836517Y-101768490D01*
X82669510Y-101601483D01*
X82634872Y-101576317D01*
X82592207Y-101520989D01*
X82586228Y-101451375D01*
X82618833Y-101389580D01*
X82634873Y-101375682D01*
X82669510Y-101350517D01*
X82836517Y-101183510D01*
X82975343Y-100992433D01*
X83082568Y-100781992D01*
X83155553Y-100557368D01*
X83178918Y-100409847D01*
X83192500Y-100324097D01*
X83192500Y-100087902D01*
X83155553Y-99854631D01*
X83082566Y-99630003D01*
X82975342Y-99419566D01*
X82961999Y-99401201D01*
X82836517Y-99228490D01*
X82669510Y-99061483D01*
X82478433Y-98922657D01*
X82267996Y-98815433D01*
X82043368Y-98742446D01*
X81810097Y-98705500D01*
X81810092Y-98705500D01*
X81573908Y-98705500D01*
X81573903Y-98705500D01*
X81340631Y-98742446D01*
X81116003Y-98815433D01*
X80905566Y-98922657D01*
X80796550Y-99001862D01*
X80714490Y-99061483D01*
X80714488Y-99061485D01*
X80714487Y-99061485D01*
X80547484Y-99228488D01*
X80522318Y-99263127D01*
X80466987Y-99305792D01*
X80397374Y-99311771D01*
X80335579Y-99279165D01*
X80321682Y-99263127D01*
X80296517Y-99228490D01*
X80129510Y-99061483D01*
X79938433Y-98922657D01*
X79727996Y-98815433D01*
X79503368Y-98742446D01*
X79270097Y-98705500D01*
X79270092Y-98705500D01*
X79033908Y-98705500D01*
X79033903Y-98705500D01*
X78800631Y-98742446D01*
X78576003Y-98815433D01*
X78365566Y-98922657D01*
X78256550Y-99001862D01*
X78174490Y-99061483D01*
X78174488Y-99061485D01*
X78174487Y-99061485D01*
X78007485Y-99228487D01*
X78007485Y-99228488D01*
X78007483Y-99228490D01*
X77951320Y-99305792D01*
X77868657Y-99419566D01*
X77761433Y-99630003D01*
X77688446Y-99854631D01*
X77651500Y-100087902D01*
X77651500Y-100096903D01*
X77631815Y-100163942D01*
X77579011Y-100209697D01*
X77509853Y-100219641D01*
X77446297Y-100190616D01*
X77439819Y-100184584D01*
X72436819Y-95181584D01*
X72403334Y-95120261D01*
X72400500Y-95093903D01*
X72400500Y-67724942D01*
X72396099Y-67708520D01*
X72396098Y-67708517D01*
X72389534Y-67684020D01*
X72389534Y-67684019D01*
X72359577Y-67572216D01*
X72359573Y-67572209D01*
X72280524Y-67435290D01*
X72280521Y-67435286D01*
X72280520Y-67435284D01*
X72168716Y-67323480D01*
X72168715Y-67323479D01*
X72164385Y-67319149D01*
X72164374Y-67319139D01*
X72062416Y-67217181D01*
X72028931Y-67155858D01*
X72033915Y-67086166D01*
X72075787Y-67030233D01*
X72141251Y-67005816D01*
X72150097Y-67005500D01*
X82835778Y-67005500D01*
X82902817Y-67025185D01*
X82948572Y-67077989D01*
X82958304Y-67133036D01*
X82959500Y-67133036D01*
X82959500Y-67374097D01*
X82996446Y-67607368D01*
X83069433Y-67831996D01*
X83163401Y-68016416D01*
X83176657Y-68042433D01*
X83315483Y-68233510D01*
X83315485Y-68233512D01*
X83393292Y-68311319D01*
X83426777Y-68372642D01*
X83421793Y-68442334D01*
X83393292Y-68486681D01*
X83315485Y-68564487D01*
X83315485Y-68564488D01*
X83315483Y-68564490D01*
X83255862Y-68646550D01*
X83176657Y-68755566D01*
X83069433Y-68966003D01*
X82996446Y-69190631D01*
X82959500Y-69423902D01*
X82959500Y-69660097D01*
X82996446Y-69893368D01*
X83069433Y-70117996D01*
X83158118Y-70292048D01*
X83176657Y-70328433D01*
X83315483Y-70519510D01*
X83315485Y-70519512D01*
X83393292Y-70597319D01*
X83426777Y-70658642D01*
X83421793Y-70728334D01*
X83393292Y-70772681D01*
X83315485Y-70850487D01*
X83315485Y-70850488D01*
X83315483Y-70850490D01*
X83255862Y-70932550D01*
X83176657Y-71041566D01*
X83069433Y-71252003D01*
X82996446Y-71476631D01*
X82959500Y-71709902D01*
X82959500Y-71946097D01*
X82996446Y-72179368D01*
X83069433Y-72403996D01*
X83158593Y-72578981D01*
X83176657Y-72614433D01*
X83315483Y-72805510D01*
X83315485Y-72805512D01*
X83393292Y-72883319D01*
X83426777Y-72944642D01*
X83421793Y-73014334D01*
X83393292Y-73058681D01*
X83315485Y-73136487D01*
X83315485Y-73136488D01*
X83315483Y-73136490D01*
X83281609Y-73183114D01*
X83176657Y-73327566D01*
X83069433Y-73538003D01*
X82996446Y-73762631D01*
X82959500Y-73995902D01*
X82959500Y-74232097D01*
X82996446Y-74465368D01*
X83069433Y-74689996D01*
X83176657Y-74900433D01*
X83315483Y-75091510D01*
X83315485Y-75091512D01*
X83393292Y-75169319D01*
X83426777Y-75230642D01*
X83421793Y-75300334D01*
X83393292Y-75344681D01*
X83315485Y-75422487D01*
X83315485Y-75422488D01*
X83315483Y-75422490D01*
X83270030Y-75485051D01*
X83176657Y-75613566D01*
X83069433Y-75824003D01*
X82996446Y-76048631D01*
X82959500Y-76281902D01*
X82959500Y-76518097D01*
X82996446Y-76751368D01*
X83069433Y-76975996D01*
X83150729Y-77135547D01*
X83176657Y-77186433D01*
X83315483Y-77377510D01*
X83315485Y-77377512D01*
X83393292Y-77455319D01*
X83426777Y-77516642D01*
X83421793Y-77586334D01*
X83393292Y-77630681D01*
X83315485Y-77708487D01*
X83315485Y-77708488D01*
X83315483Y-77708490D01*
X83255862Y-77790550D01*
X83176657Y-77899566D01*
X83069433Y-78110003D01*
X82996446Y-78334631D01*
X82959500Y-78567902D01*
X82959500Y-78804097D01*
X82996446Y-79037368D01*
X83069433Y-79261996D01*
X83092029Y-79306342D01*
X83176657Y-79472433D01*
X83315483Y-79663510D01*
X83482490Y-79830517D01*
X83673567Y-79969343D01*
X83699570Y-79982592D01*
X83884003Y-80076566D01*
X83884005Y-80076566D01*
X83884008Y-80076568D01*
X83972476Y-80105313D01*
X84108631Y-80149553D01*
X84341903Y-80186500D01*
X84341908Y-80186500D01*
X84578097Y-80186500D01*
X84811368Y-80149553D01*
X84844468Y-80138798D01*
X85035992Y-80076568D01*
X85246433Y-79969343D01*
X85437510Y-79830517D01*
X85543031Y-79724996D01*
X90024500Y-79724996D01*
X90024500Y-81475001D01*
X90024501Y-81475018D01*
X90035000Y-81577796D01*
X90035001Y-81577799D01*
X90079406Y-81711803D01*
X90090186Y-81744334D01*
X90182288Y-81893656D01*
X90306344Y-82017712D01*
X90455666Y-82109814D01*
X90622203Y-82164999D01*
X90724991Y-82175500D01*
X92475008Y-82175499D01*
X92577797Y-82164999D01*
X92744334Y-82109814D01*
X92893656Y-82017712D01*
X93017712Y-81893656D01*
X93109814Y-81744334D01*
X93164999Y-81577797D01*
X93175500Y-81475009D01*
X93175499Y-79724992D01*
X93164999Y-79622203D01*
X93109814Y-79455666D01*
X93017712Y-79306344D01*
X92893656Y-79182288D01*
X92744334Y-79090186D01*
X92577797Y-79035001D01*
X92577795Y-79035000D01*
X92475010Y-79024500D01*
X90724998Y-79024500D01*
X90724981Y-79024501D01*
X90622203Y-79035000D01*
X90622200Y-79035001D01*
X90455668Y-79090185D01*
X90455663Y-79090187D01*
X90306342Y-79182289D01*
X90182289Y-79306342D01*
X90090187Y-79455663D01*
X90090186Y-79455666D01*
X90035001Y-79622203D01*
X90035001Y-79622204D01*
X90035000Y-79622204D01*
X90024501Y-79724980D01*
X90024500Y-79724996D01*
X85543031Y-79724996D01*
X85604517Y-79663510D01*
X85743343Y-79472433D01*
X85850568Y-79261992D01*
X85923553Y-79037368D01*
X85925931Y-79022351D01*
X85960500Y-78804097D01*
X85960500Y-78567902D01*
X85923553Y-78334631D01*
X85850566Y-78110003D01*
X85794002Y-77998991D01*
X85743343Y-77899567D01*
X85604517Y-77708490D01*
X85526708Y-77630681D01*
X85493223Y-77569358D01*
X85498207Y-77499666D01*
X85526708Y-77455319D01*
X85604517Y-77377510D01*
X85743343Y-77186433D01*
X85850568Y-76975992D01*
X85923553Y-76751368D01*
X85928101Y-76722651D01*
X85960500Y-76518097D01*
X85960500Y-76281902D01*
X85923553Y-76048631D01*
X85861319Y-75857097D01*
X85850568Y-75824008D01*
X85850566Y-75824005D01*
X85850566Y-75824003D01*
X85786063Y-75697409D01*
X85743343Y-75613567D01*
X85604517Y-75422490D01*
X85526708Y-75344681D01*
X85493223Y-75283358D01*
X85498207Y-75213666D01*
X85526708Y-75169319D01*
X85556240Y-75139787D01*
X85604517Y-75091510D01*
X85743343Y-74900433D01*
X85850568Y-74689992D01*
X85923553Y-74465368D01*
X85958749Y-74243150D01*
X85960500Y-74232097D01*
X85960500Y-73995902D01*
X85923553Y-73762631D01*
X85881589Y-73633480D01*
X85850568Y-73538008D01*
X85850566Y-73538005D01*
X85850566Y-73538003D01*
X85743342Y-73327566D01*
X85604517Y-73136490D01*
X85526708Y-73058681D01*
X85493223Y-72997358D01*
X85498207Y-72927666D01*
X85526708Y-72883319D01*
X85548610Y-72861417D01*
X85604517Y-72805510D01*
X85743343Y-72614433D01*
X85850568Y-72403992D01*
X85923553Y-72179368D01*
X85936139Y-72099902D01*
X85960500Y-71946097D01*
X85960500Y-71709902D01*
X85923553Y-71476631D01*
X85861534Y-71285758D01*
X85850568Y-71252008D01*
X85850566Y-71252005D01*
X85850566Y-71252003D01*
X85743342Y-71041566D01*
X85604517Y-70850490D01*
X85526708Y-70772681D01*
X85493223Y-70711358D01*
X85498207Y-70641666D01*
X85526708Y-70597319D01*
X85604517Y-70519510D01*
X85743343Y-70328433D01*
X85850568Y-70117992D01*
X85923553Y-69893368D01*
X85960500Y-69660097D01*
X85960500Y-69423902D01*
X85923553Y-69190631D01*
X85850566Y-68966003D01*
X85743342Y-68755566D01*
X85604517Y-68564490D01*
X85526708Y-68486681D01*
X85493223Y-68425358D01*
X85498207Y-68355666D01*
X85526708Y-68311319D01*
X85604517Y-68233510D01*
X85743343Y-68042433D01*
X85850568Y-67831992D01*
X85923553Y-67607368D01*
X85925240Y-67596714D01*
X85960500Y-67374097D01*
X85960500Y-67137902D01*
X85923553Y-66904631D01*
X85879397Y-66768735D01*
X85850568Y-66680008D01*
X85850566Y-66680005D01*
X85850566Y-66680003D01*
X85743342Y-66469566D01*
X85604517Y-66278490D01*
X85526708Y-66200681D01*
X85522370Y-66192737D01*
X85515124Y-66187313D01*
X85505887Y-66162551D01*
X85493223Y-66139358D01*
X85493868Y-66130330D01*
X85490705Y-66121849D01*
X85496321Y-66096025D01*
X85498207Y-66069666D01*
X85504024Y-66060614D01*
X85505555Y-66053576D01*
X85526706Y-66025321D01*
X85547117Y-66004909D01*
X85608437Y-65971424D01*
X85678129Y-65976407D01*
X85696818Y-65985214D01*
X85699946Y-65987020D01*
X85699951Y-65987024D01*
X85833519Y-66040516D01*
X85901417Y-66056997D01*
X85901418Y-66056997D01*
X85901423Y-66056998D01*
X86031265Y-66069411D01*
X86033923Y-66069666D01*
X86044634Y-66070690D01*
X86044644Y-66070691D01*
X89412978Y-65910660D01*
X89505698Y-65897573D01*
X89550205Y-65887012D01*
X89638924Y-65857045D01*
X89760728Y-65780460D01*
X89808495Y-65739890D01*
X89809575Y-65739076D01*
X89813983Y-65735230D01*
X89813986Y-65735228D01*
X89909279Y-65627428D01*
X89970341Y-65497148D01*
X89990688Y-65430307D01*
X90012573Y-65288103D01*
X90026548Y-63876566D01*
X90046895Y-63809727D01*
X90100150Y-63764497D01*
X90169403Y-63755239D01*
X90193874Y-63761614D01*
X90200514Y-63764090D01*
X90200516Y-63764091D01*
X90204293Y-63764497D01*
X90260127Y-63770500D01*
X92895872Y-63770499D01*
X92955483Y-63764091D01*
X93090331Y-63713796D01*
X93205546Y-63627546D01*
X93291796Y-63512331D01*
X93342091Y-63377483D01*
X93348500Y-63317873D01*
X93348499Y-60682128D01*
X93342091Y-60622517D01*
X93291796Y-60487669D01*
X93291795Y-60487668D01*
X93291793Y-60487664D01*
X93205547Y-60372455D01*
X93205544Y-60372452D01*
X93090335Y-60286206D01*
X93090328Y-60286202D01*
X92955482Y-60235908D01*
X92955483Y-60235908D01*
X92895883Y-60229501D01*
X92895881Y-60229500D01*
X92895873Y-60229500D01*
X92895864Y-60229500D01*
X90260129Y-60229500D01*
X90260118Y-60229501D01*
X90201072Y-60235848D01*
X90132313Y-60223440D01*
X90081177Y-60175828D01*
X90063827Y-60111330D01*
X90064934Y-59999500D01*
X90069880Y-59500000D01*
X95000000Y-59500000D01*
X96500000Y-61000000D01*
X96500000Y-63500000D01*
X97197500Y-63500000D01*
X97197500Y-80729127D01*
X97224123Y-80931339D01*
X97231730Y-80989116D01*
X97299602Y-81242418D01*
X97299605Y-81242428D01*
X97399953Y-81484690D01*
X97399958Y-81484700D01*
X97531075Y-81711803D01*
X97690718Y-81919851D01*
X97690726Y-81919860D01*
X97876140Y-82105274D01*
X97876148Y-82105281D01*
X98084196Y-82264924D01*
X98311299Y-82396041D01*
X98311309Y-82396046D01*
X98536459Y-82489306D01*
X98553581Y-82496398D01*
X98806884Y-82564270D01*
X99066880Y-82598500D01*
X99066887Y-82598500D01*
X99329113Y-82598500D01*
X99329120Y-82598500D01*
X99589116Y-82564270D01*
X99842419Y-82496398D01*
X100084697Y-82396043D01*
X100311803Y-82264924D01*
X100519851Y-82105282D01*
X100519855Y-82105277D01*
X100519860Y-82105274D01*
X100705274Y-81919860D01*
X100705277Y-81919855D01*
X100705282Y-81919851D01*
X100864924Y-81711803D01*
X100996043Y-81484697D01*
X101096398Y-81242419D01*
X101164270Y-80989116D01*
X101198500Y-80729120D01*
X101198500Y-61868880D01*
X101164270Y-61608884D01*
X101096398Y-61355581D01*
X101015386Y-61160000D01*
X101000000Y-61122854D01*
X101000000Y-58300000D01*
X104375500Y-58300000D01*
X104442539Y-58319685D01*
G37*
%TD.AperFunction*%
%TD*%
%TA.AperFunction,Conductor*%
%TO.N,Net-(A1-GND)_1*%
G36*
X89534660Y-56520429D02*
G01*
X89581012Y-56572709D01*
X89592804Y-56626727D01*
X89507098Y-65283098D01*
X89486751Y-65349939D01*
X89433496Y-65395169D01*
X89388989Y-65405730D01*
X86020655Y-65565761D01*
X85952757Y-65549280D01*
X85904547Y-65498707D01*
X85891333Y-65430099D01*
X85896840Y-65403581D01*
X85899574Y-65395169D01*
X85923553Y-65321368D01*
X85942588Y-65201184D01*
X85960500Y-65088097D01*
X85960500Y-64851902D01*
X85923553Y-64618631D01*
X85850566Y-64394003D01*
X85743342Y-64183566D01*
X85604517Y-63992490D01*
X85437510Y-63825483D01*
X85402872Y-63800317D01*
X85360207Y-63744989D01*
X85354228Y-63675375D01*
X85386833Y-63613580D01*
X85402868Y-63599685D01*
X85437510Y-63574517D01*
X85604517Y-63407510D01*
X85743343Y-63216433D01*
X85850568Y-63005992D01*
X85923553Y-62781368D01*
X85960500Y-62548097D01*
X85960500Y-62311902D01*
X85923553Y-62078631D01*
X85850566Y-61854003D01*
X85743342Y-61643566D01*
X85604517Y-61452490D01*
X85437510Y-61285483D01*
X85402872Y-61260317D01*
X85360207Y-61204989D01*
X85354228Y-61135375D01*
X85386833Y-61073580D01*
X85402873Y-61059682D01*
X85437510Y-61034517D01*
X85604517Y-60867510D01*
X85743343Y-60676433D01*
X85850568Y-60465992D01*
X85923553Y-60241368D01*
X85960500Y-60008097D01*
X85960500Y-59771902D01*
X85923553Y-59538631D01*
X85850566Y-59314003D01*
X85743342Y-59103566D01*
X85604517Y-58912490D01*
X85437510Y-58745483D01*
X85246433Y-58606657D01*
X85246432Y-58606656D01*
X85242491Y-58603793D01*
X85243812Y-58601973D01*
X85203179Y-58557085D01*
X85190846Y-58505053D01*
X85184617Y-58100137D01*
X83024001Y-58100154D01*
X82956961Y-58080470D01*
X82911206Y-58027666D01*
X82900000Y-57976154D01*
X82900000Y-56698734D01*
X82919685Y-56631695D01*
X82972489Y-56585940D01*
X83022586Y-56574742D01*
X83586428Y-56568335D01*
X83653685Y-56587257D01*
X83660704Y-56591997D01*
X83673567Y-56601343D01*
X83774993Y-56653022D01*
X83884003Y-56708566D01*
X83884005Y-56708566D01*
X83884008Y-56708568D01*
X84004412Y-56747689D01*
X84108631Y-56781553D01*
X84341903Y-56818500D01*
X84341908Y-56818500D01*
X84578097Y-56818500D01*
X84811368Y-56781553D01*
X85035992Y-56708568D01*
X85246433Y-56601343D01*
X85265821Y-56587257D01*
X85286994Y-56571874D01*
X85352800Y-56548393D01*
X85358464Y-56548199D01*
X89467401Y-56501507D01*
X89534660Y-56520429D01*
G37*
%TD.AperFunction*%
%TD*%
M02*
