%TF.GenerationSoftware,KiCad,Pcbnew,9.0.3*%
%TF.CreationDate,2025-10-27T16:18:56+03:00*%
%TF.ProjectId,ble_jammer_2.4ghz,626c655f-6a61-46d6-9d65-725f322e3467,rev?*%
%TF.SameCoordinates,Original*%
%TF.FileFunction,Soldermask,Bot*%
%TF.FilePolarity,Negative*%
%FSLAX46Y46*%
G04 Gerber Fmt 4.6, Leading zero omitted, Abs format (unit mm)*
G04 Created by KiCad (PCBNEW 9.0.3) date 2025-10-27 16:18:56*
%MOMM*%
%LPD*%
G01*
G04 APERTURE LIST*
G04 Aperture macros list*
%AMRoundRect*
0 Rectangle with rounded corners*
0 $1 Rounding radius*
0 $2 $3 $4 $5 $6 $7 $8 $9 X,Y pos of 4 corners*
0 Add a 4 corners polygon primitive as box body*
4,1,4,$2,$3,$4,$5,$6,$7,$8,$9,$2,$3,0*
0 Add four circle primitives for the rounded corners*
1,1,$1+$1,$2,$3*
1,1,$1+$1,$4,$5*
1,1,$1+$1,$6,$7*
1,1,$1+$1,$8,$9*
0 Add four rect primitives between the rounded corners*
20,1,$1+$1,$2,$3,$4,$5,0*
20,1,$1+$1,$4,$5,$6,$7,0*
20,1,$1+$1,$6,$7,$8,$9,0*
20,1,$1+$1,$8,$9,$2,$3,0*%
G04 Aperture macros list end*
%ADD10R,1.800000X1.800000*%
%ADD11C,1.800000*%
%ADD12C,2.000000*%
%ADD13RoundRect,0.250000X-0.825000X-0.825000X0.825000X-0.825000X0.825000X0.825000X-0.825000X0.825000X0*%
%ADD14O,3.810000X3.052000*%
%ADD15O,3.048000X2.032000*%
%ADD16R,2.032000X2.032000*%
%ADD17R,2.000000X2.000000*%
%ADD18C,1.600000*%
G04 APERTURE END LIST*
D10*
%TO.C,D2*%
X47500269Y-86097548D03*
D11*
X47500269Y-83557548D03*
%TD*%
D12*
%TO.C,ESP8266*%
X61600000Y-44650000D03*
X61600000Y-67510000D03*
X84460000Y-54810000D03*
X84460000Y-44650000D03*
X61600000Y-47190000D03*
X61600000Y-64970000D03*
X84460000Y-47190000D03*
X84460000Y-57350000D03*
X61600000Y-49730000D03*
X84460000Y-49730000D03*
X61600000Y-52270000D03*
X84460000Y-52270000D03*
X61600000Y-54810000D03*
X61600000Y-57350000D03*
X61600000Y-59890000D03*
X84460000Y-59890000D03*
X61600000Y-62430000D03*
X84460000Y-62430000D03*
X84460000Y-64970000D03*
X84460000Y-67510000D03*
X61600000Y-70050000D03*
X84460000Y-70050000D03*
X61600000Y-72590000D03*
X84460000Y-72590000D03*
X61600000Y-75130000D03*
X84460000Y-75130000D03*
X61600000Y-77670000D03*
X84460000Y-77670000D03*
X61600000Y-80210000D03*
X84460000Y-80210000D03*
%TD*%
D13*
%TO.C,J2*%
X91600000Y-80600000D03*
%TD*%
D14*
%TO.C,SW2*%
X48257000Y-47323000D03*
X48257000Y-60277000D03*
D15*
X48257000Y-50752000D03*
X48257000Y-53800000D03*
X48257000Y-56848000D03*
%TD*%
D10*
%TO.C,D1*%
X47500269Y-78725048D03*
D11*
X47500269Y-76185048D03*
%TD*%
D13*
%TO.C,J1*%
X99200000Y-80600000D03*
%TD*%
D16*
%TO.C,TP4056*%
X102500000Y-40156000D03*
X102500000Y-62000000D03*
X99960000Y-62000000D03*
X88276000Y-40156000D03*
X90816000Y-62000000D03*
X88276000Y-62000000D03*
%TD*%
D17*
%TO.C,nRF24L01+1*%
X92420000Y-107285000D03*
D12*
X89880000Y-107285000D03*
X92420000Y-104745000D03*
X89880000Y-104745000D03*
X92420000Y-102205000D03*
X89880000Y-102205000D03*
X92420000Y-99665000D03*
X89880000Y-99665000D03*
%TD*%
D18*
%TO.C,R2*%
X55000000Y-75080000D03*
X55000000Y-64920000D03*
%TD*%
%TO.C,R1*%
X55000000Y-61080000D03*
X55000000Y-50920000D03*
%TD*%
D10*
%TO.C,D3*%
X47500269Y-93470048D03*
D11*
X47500269Y-90930048D03*
%TD*%
D12*
%TO.C,SW1*%
X45250269Y-71792548D03*
X45250269Y-65292548D03*
X49750269Y-71792548D03*
X49750269Y-65292548D03*
%TD*%
D18*
%TO.C,R3*%
X55000000Y-89080000D03*
X55000000Y-78920000D03*
%TD*%
M02*
