%TF.GenerationSoftware,KiCad,Pcbnew,9.0.3*%
%TF.CreationDate,2025-09-06T14:30:13+03:00*%
%TF.ProjectId,ble_jammer_2.4ghz,626c655f-6a61-46d6-9d65-725f322e3467,rev?*%
%TF.SameCoordinates,Original*%
%TF.FileFunction,Copper,L2,Bot*%
%TF.FilePolarity,Positive*%
%FSLAX46Y46*%
G04 Gerber Fmt 4.6, Leading zero omitted, Abs format (unit mm)*
G04 Created by KiCad (PCBNEW 9.0.3) date 2025-09-06 14:30:13*
%MOMM*%
%LPD*%
G01*
G04 APERTURE LIST*
G04 Aperture macros list*
%AMRoundRect*
0 Rectangle with rounded corners*
0 $1 Rounding radius*
0 $2 $3 $4 $5 $6 $7 $8 $9 X,Y pos of 4 corners*
0 Add a 4 corners polygon primitive as box body*
4,1,4,$2,$3,$4,$5,$6,$7,$8,$9,$2,$3,0*
0 Add four circle primitives for the rounded corners*
1,1,$1+$1,$2,$3*
1,1,$1+$1,$4,$5*
1,1,$1+$1,$6,$7*
1,1,$1+$1,$8,$9*
0 Add four rect primitives between the rounded corners*
20,1,$1+$1,$2,$3,$4,$5,0*
20,1,$1+$1,$4,$5,$6,$7,0*
20,1,$1+$1,$6,$7,$8,$9,0*
20,1,$1+$1,$8,$9,$2,$3,0*%
G04 Aperture macros list end*
%TA.AperFunction,ComponentPad*%
%ADD10R,1.800000X1.800000*%
%TD*%
%TA.AperFunction,ComponentPad*%
%ADD11C,1.800000*%
%TD*%
%TA.AperFunction,ComponentPad*%
%ADD12C,2.000000*%
%TD*%
%TA.AperFunction,ComponentPad*%
%ADD13C,1.600000*%
%TD*%
%TA.AperFunction,ComponentPad*%
%ADD14RoundRect,0.250000X-0.550000X0.550000X-0.550000X-0.550000X0.550000X-0.550000X0.550000X0.550000X0*%
%TD*%
%TA.AperFunction,ComponentPad*%
%ADD15R,2.000000X2.000000*%
%TD*%
%TA.AperFunction,ComponentPad*%
%ADD16R,2.540000X2.540000*%
%TD*%
%TA.AperFunction,Conductor*%
%ADD17C,0.200000*%
%TD*%
%TA.AperFunction,Conductor*%
%ADD18C,3.000000*%
%TD*%
G04 APERTURE END LIST*
D10*
%TO.P,D3,1,K*%
%TO.N,Net-(A1-GND)_1*%
X47500269Y-93470048D03*
D11*
%TO.P,D3,2,A*%
%TO.N,Net-(D3-A)*%
X47500269Y-90930048D03*
%TD*%
D10*
%TO.P,D2,1,K*%
%TO.N,Net-(A1-GND)_1*%
X47500269Y-86097548D03*
D11*
%TO.P,D2,2,A*%
%TO.N,Net-(D2-A)*%
X47500269Y-83557548D03*
%TD*%
%TO.P,D1,2,A*%
%TO.N,Net-(D1-A)*%
X47500269Y-76185048D03*
D10*
%TO.P,D1,1,K*%
%TO.N,Net-(A1-GND)_1*%
X47500269Y-78725048D03*
%TD*%
D12*
%TO.P,SW1,2,2*%
%TO.N,Net-(A1-RX)*%
X49750269Y-65292548D03*
X49750269Y-71792548D03*
%TO.P,SW1,1,1*%
%TO.N,Net-(A1-GND)_1*%
X45250269Y-65292548D03*
X45250269Y-71792548D03*
%TD*%
D13*
%TO.P,SW2,2,B*%
%TO.N,Net-(A1-Vin)*%
X47487769Y-61800048D03*
D14*
%TO.P,SW2,1,A*%
%TO.N,Net-(A2-VCC)*%
X47487769Y-54180048D03*
%TD*%
D15*
%TO.P,nRF24L01+,1,GND*%
%TO.N,Net-(A1-GND)_1*%
X81692000Y-107826000D03*
D12*
%TO.P,nRF24L01+,2,VCC*%
%TO.N,Net-(A2-VCC)*%
X79152000Y-107826000D03*
%TO.P,nRF24L01+,3,CE*%
%TO.N,Net-(A1-D4)*%
X81692000Y-105286000D03*
%TO.P,nRF24L01+,4,CNS*%
%TO.N,Net-(A1-D2)*%
X79152000Y-105286000D03*
%TO.P,nRF24L01+,5,SCK*%
%TO.N,Net-(A1-D5)*%
X81692000Y-102746000D03*
%TO.P,nRF24L01+,6,MOSI*%
%TO.N,Net-(A1-D7)*%
X79152000Y-102746000D03*
%TO.P,nRF24L01+,7,MISO*%
%TO.N,Net-(A1-D6)*%
X81692000Y-100206000D03*
%TO.P,nRF24L01+,8,IRQ*%
%TO.N,unconnected-(A2-IRQ-Pad8)*%
X79152000Y-100206000D03*
%TD*%
%TO.P,ESP8266,1,3V3*%
%TO.N,unconnected-(A1-3V3-Pad1)*%
X61600000Y-46174000D03*
X61600000Y-67256000D03*
X84460000Y-55318000D03*
%TO.P,ESP8266,2,Vin*%
%TO.N,Net-(A1-Vin)*%
X84460000Y-46174000D03*
%TO.P,ESP8266,3,GND*%
%TO.N,Net-(A1-GND)_1*%
X61600000Y-48460000D03*
X61600000Y-64970000D03*
X84460000Y-48460000D03*
X84460000Y-57604000D03*
%TO.P,ESP8266,5,TX*%
%TO.N,unconnected-(A1-TX-Pad5)*%
X61600000Y-50746000D03*
%TO.P,ESP8266,6,RST*%
%TO.N,unconnected-(A1-RST-Pad6)*%
X84460000Y-50746000D03*
%TO.P,ESP8266,7,RX*%
%TO.N,Net-(A1-RX)*%
X61600000Y-53032000D03*
%TO.P,ESP8266,8,EN*%
%TO.N,unconnected-(A1-EN-Pad8)*%
X84460000Y-53032000D03*
%TO.P,ESP8266,9,D8*%
%TO.N,unconnected-(A1-D8-Pad9)*%
X61600000Y-55318000D03*
%TO.P,ESP8266,11,D7*%
%TO.N,Net-(A1-D7)*%
X61600000Y-57604000D03*
%TO.P,ESP8266,13,D6*%
%TO.N,Net-(A1-D6)*%
X61600000Y-59890000D03*
%TO.P,ESP8266,14,CLK*%
%TO.N,unconnected-(A1-CLK-Pad14)*%
X84460000Y-59890000D03*
%TO.P,ESP8266,15,D5*%
%TO.N,Net-(A1-D5)*%
X61600000Y-62430000D03*
%TO.P,ESP8266,16,SD0*%
%TO.N,unconnected-(A1-SD0-Pad16)*%
X84460000Y-62430000D03*
%TO.P,ESP8266,18,CMD*%
%TO.N,unconnected-(A1-CMD-Pad18)*%
X84460000Y-64970000D03*
%TO.P,ESP8266,20,SD1*%
%TO.N,unconnected-(A1-SD1-Pad20)*%
X84460000Y-67256000D03*
%TO.P,ESP8266,21,D4*%
%TO.N,Net-(A1-D4)*%
X61600000Y-69542000D03*
%TO.P,ESP8266,22,SD2*%
%TO.N,unconnected-(A1-SD2-Pad22)*%
X84460000Y-69542000D03*
%TO.P,ESP8266,23,D3*%
%TO.N,Net-(A1-D3)*%
X61600000Y-71828000D03*
%TO.P,ESP8266,24,SD3*%
%TO.N,unconnected-(A1-SD3-Pad24)*%
X84460000Y-71828000D03*
%TO.P,ESP8266,25,D2*%
%TO.N,Net-(A1-D2)*%
X61600000Y-74114000D03*
%TO.P,ESP8266,26,RSV*%
%TO.N,unconnected-(A1-RSV-Pad26)*%
X84460000Y-74114000D03*
%TO.P,ESP8266,27,D1*%
%TO.N,Net-(A1-D1)*%
X61600000Y-76400000D03*
%TO.P,ESP8266,28,RSV*%
%TO.N,unconnected-(A1-RSV-Pad28)*%
X84460000Y-76400000D03*
%TO.P,ESP8266,29,D0*%
%TO.N,Net-(A1-D0)*%
X61600000Y-78686000D03*
%TO.P,ESP8266,30,A0*%
%TO.N,unconnected-(A1-A0-Pad30)*%
X84460000Y-78686000D03*
%TD*%
D16*
%TO.P,TO4056,1,+*%
%TO.N,unconnected-(U1-+-Pad1)*%
X102500000Y-40156000D03*
%TO.P,TO4056,2,OUT+*%
%TO.N,Net-(A2-VCC)*%
X102500000Y-62000000D03*
%TO.P,TO4056,3,B+*%
%TO.N,Net-(J1-Pin_1)*%
X99198000Y-62000000D03*
%TO.P,TO4056,4,-*%
%TO.N,unconnected-(U1---Pad4)*%
X88276000Y-40156000D03*
%TO.P,TO4056,5,B-*%
%TO.N,Net-(J2-Pin_1)*%
X91578000Y-62000000D03*
%TO.P,TO4056,6,OUT-*%
%TO.N,Net-(A1-GND)_1*%
X88276000Y-62000000D03*
%TD*%
D13*
%TO.P,R2,1*%
%TO.N,Net-(A1-D1)*%
X55000000Y-75080000D03*
%TO.P,R2,2*%
%TO.N,Net-(D2-A)*%
X55000000Y-64920000D03*
%TD*%
%TO.P,R1,1*%
%TO.N,Net-(A1-D3)*%
X55000000Y-61080000D03*
%TO.P,R1,2*%
%TO.N,Net-(D1-A)*%
X55000000Y-50920000D03*
%TD*%
%TO.P,R3,1*%
%TO.N,Net-(A1-D0)*%
X55000000Y-89080000D03*
%TO.P,R3,2*%
%TO.N,Net-(D3-A)*%
X55000000Y-78920000D03*
%TD*%
D17*
%TO.N,Net-(J2-Pin_1)*%
X91578000Y-80578000D02*
X91600000Y-80600000D01*
D18*
X91578000Y-62000000D02*
X91578000Y-80578000D01*
D17*
%TO.N,Net-(A1-D4)*%
X67200000Y-99800000D02*
X67200000Y-75142000D01*
X79000000Y-111600000D02*
X67200000Y-99800000D01*
X84600000Y-106800000D02*
X84600000Y-110200000D01*
X83086000Y-105286000D02*
X84600000Y-106800000D01*
X81692000Y-105286000D02*
X83086000Y-105286000D01*
%TO.N,Net-(A1-D5)*%
X57800000Y-46000000D02*
X57800000Y-58630000D01*
X60000000Y-43800000D02*
X57800000Y-46000000D01*
X80400000Y-83400000D02*
X80400000Y-58200000D01*
X85800000Y-88800000D02*
X80400000Y-83400000D01*
X85800000Y-100800000D02*
X85800000Y-88800000D01*
X83854000Y-102746000D02*
X85800000Y-100800000D01*
%TO.N,Net-(A1-D6)*%
X75400000Y-73690000D02*
X61600000Y-59890000D01*
%TO.N,Net-(A1-D5)*%
X80400000Y-58200000D02*
X66000000Y-43800000D01*
%TO.N,Net-(A1-D6)*%
X75400000Y-91800000D02*
X75400000Y-73690000D01*
X81692000Y-98092000D02*
X75400000Y-91800000D01*
X81692000Y-100206000D02*
X81692000Y-98092000D01*
%TO.N,Net-(A1-D5)*%
X81692000Y-102746000D02*
X83854000Y-102746000D01*
X57800000Y-58630000D02*
X61600000Y-62430000D01*
%TO.N,Net-(A1-D4)*%
X67200000Y-75142000D02*
X61600000Y-69542000D01*
X84600000Y-110200000D02*
X83200000Y-111600000D01*
%TO.N,Net-(A1-D5)*%
X66000000Y-43800000D02*
X60000000Y-43800000D01*
%TO.N,Net-(A1-D4)*%
X83200000Y-111600000D02*
X79000000Y-111600000D01*
%TD*%
%TA.AperFunction,Conductor*%
%TO.N,Net-(A1-GND)_1*%
G36*
X65766942Y-44420185D02*
G01*
X65787584Y-44436819D01*
X79763181Y-58412416D01*
X79796666Y-58473739D01*
X79799500Y-58500097D01*
X79799500Y-83313330D01*
X79799499Y-83313348D01*
X79799499Y-83479054D01*
X79799498Y-83479054D01*
X79840423Y-83631785D01*
X79851612Y-83651164D01*
X79851613Y-83651167D01*
X79919475Y-83768709D01*
X79919481Y-83768717D01*
X80038349Y-83887585D01*
X80038355Y-83887590D01*
X85163181Y-89012416D01*
X85196666Y-89073739D01*
X85199500Y-89100097D01*
X85199500Y-100499902D01*
X85179815Y-100566941D01*
X85163181Y-100587583D01*
X83641584Y-102109181D01*
X83580261Y-102142666D01*
X83553903Y-102145500D01*
X83146068Y-102145500D01*
X83079029Y-102125815D01*
X83035583Y-102077795D01*
X82975342Y-101959566D01*
X82961999Y-101941201D01*
X82836517Y-101768490D01*
X82669510Y-101601483D01*
X82634872Y-101576317D01*
X82592207Y-101520989D01*
X82586228Y-101451375D01*
X82618833Y-101389580D01*
X82634873Y-101375682D01*
X82669510Y-101350517D01*
X82836517Y-101183510D01*
X82975343Y-100992433D01*
X83082568Y-100781992D01*
X83155553Y-100557368D01*
X83164655Y-100499902D01*
X83192500Y-100324097D01*
X83192500Y-100087902D01*
X83155553Y-99854631D01*
X83082566Y-99630003D01*
X82975342Y-99419566D01*
X82961999Y-99401201D01*
X82836517Y-99228490D01*
X82669510Y-99061483D01*
X82573971Y-98992070D01*
X82478431Y-98922655D01*
X82360204Y-98862415D01*
X82309409Y-98814441D01*
X82292500Y-98751931D01*
X82292500Y-98181060D01*
X82292501Y-98181047D01*
X82292501Y-98012944D01*
X82251576Y-97860214D01*
X82251573Y-97860209D01*
X82172524Y-97723290D01*
X82172518Y-97723282D01*
X76036819Y-91587583D01*
X76003334Y-91526260D01*
X76000500Y-91499902D01*
X76000500Y-73610945D01*
X76000500Y-73610943D01*
X75959577Y-73458216D01*
X75959577Y-73458215D01*
X75959577Y-73458214D01*
X75930639Y-73408095D01*
X75930637Y-73408092D01*
X75884147Y-73327567D01*
X75880520Y-73321284D01*
X75768716Y-73209480D01*
X75768715Y-73209479D01*
X75764385Y-73205149D01*
X75764374Y-73205139D01*
X63052798Y-60493563D01*
X63019313Y-60432240D01*
X63022547Y-60367566D01*
X63063553Y-60241368D01*
X63087839Y-60088034D01*
X63100500Y-60008097D01*
X63100500Y-59771902D01*
X63063553Y-59538631D01*
X62990566Y-59314003D01*
X62890488Y-59117590D01*
X62883343Y-59103567D01*
X62744517Y-58912490D01*
X62666708Y-58834681D01*
X62633223Y-58773358D01*
X62638207Y-58703666D01*
X62666708Y-58659319D01*
X62744517Y-58581510D01*
X62883343Y-58390433D01*
X62990568Y-58179992D01*
X63063553Y-57955368D01*
X63083206Y-57831284D01*
X63100500Y-57722097D01*
X63100500Y-57485902D01*
X63063553Y-57252631D01*
X62990566Y-57028003D01*
X62883342Y-56817566D01*
X62857177Y-56781553D01*
X62744517Y-56626490D01*
X62666708Y-56548681D01*
X62633223Y-56487358D01*
X62638207Y-56417666D01*
X62666708Y-56373319D01*
X62744517Y-56295510D01*
X62883343Y-56104433D01*
X62990568Y-55893992D01*
X63063553Y-55669368D01*
X63100500Y-55436097D01*
X63100500Y-55199902D01*
X63063553Y-54966631D01*
X63002931Y-54780057D01*
X62990568Y-54742008D01*
X62990566Y-54742005D01*
X62990566Y-54742003D01*
X62883342Y-54531566D01*
X62744517Y-54340490D01*
X62666708Y-54262681D01*
X62633223Y-54201358D01*
X62638207Y-54131666D01*
X62666708Y-54087319D01*
X62744517Y-54009510D01*
X62883343Y-53818433D01*
X62990568Y-53607992D01*
X63063553Y-53383368D01*
X63075061Y-53310711D01*
X63100500Y-53150097D01*
X63100500Y-52913902D01*
X63063553Y-52680631D01*
X62990566Y-52456003D01*
X62883342Y-52245566D01*
X62744517Y-52054490D01*
X62666708Y-51976681D01*
X62633223Y-51915358D01*
X62638207Y-51845666D01*
X62666708Y-51801319D01*
X62700814Y-51767213D01*
X62744517Y-51723510D01*
X62883343Y-51532433D01*
X62990568Y-51321992D01*
X63063553Y-51097368D01*
X63100500Y-50864097D01*
X63100500Y-50627902D01*
X63063553Y-50394631D01*
X62990566Y-50170003D01*
X62883342Y-49959566D01*
X62744517Y-49768490D01*
X62577510Y-49601483D01*
X62386433Y-49462657D01*
X62175996Y-49355433D01*
X61951368Y-49282446D01*
X61718097Y-49245500D01*
X61718092Y-49245500D01*
X61481908Y-49245500D01*
X61481903Y-49245500D01*
X61248631Y-49282446D01*
X61024003Y-49355433D01*
X60813566Y-49462657D01*
X60704550Y-49541862D01*
X60622490Y-49601483D01*
X60622488Y-49601485D01*
X60622487Y-49601485D01*
X60455485Y-49768487D01*
X60455485Y-49768488D01*
X60455483Y-49768490D01*
X60395862Y-49850550D01*
X60316657Y-49959566D01*
X60209433Y-50170003D01*
X60136446Y-50394631D01*
X60099500Y-50627902D01*
X60099500Y-50864097D01*
X60136446Y-51097368D01*
X60209433Y-51321996D01*
X60316657Y-51532433D01*
X60455483Y-51723510D01*
X60455485Y-51723512D01*
X60533292Y-51801319D01*
X60566777Y-51862642D01*
X60561793Y-51932334D01*
X60533292Y-51976681D01*
X60455485Y-52054487D01*
X60455485Y-52054488D01*
X60455483Y-52054490D01*
X60395862Y-52136550D01*
X60316657Y-52245566D01*
X60209433Y-52456003D01*
X60136446Y-52680631D01*
X60099500Y-52913902D01*
X60099500Y-53150097D01*
X60136446Y-53383368D01*
X60209433Y-53607996D01*
X60316657Y-53818433D01*
X60455483Y-54009510D01*
X60455485Y-54009512D01*
X60533292Y-54087319D01*
X60566777Y-54148642D01*
X60561793Y-54218334D01*
X60533292Y-54262681D01*
X60455485Y-54340487D01*
X60455485Y-54340488D01*
X60455483Y-54340490D01*
X60395862Y-54422550D01*
X60316657Y-54531566D01*
X60209433Y-54742003D01*
X60136446Y-54966631D01*
X60099500Y-55199902D01*
X60099500Y-55436097D01*
X60136446Y-55669368D01*
X60209433Y-55893996D01*
X60316657Y-56104433D01*
X60455483Y-56295510D01*
X60455485Y-56295512D01*
X60533292Y-56373319D01*
X60566777Y-56434642D01*
X60561793Y-56504334D01*
X60533292Y-56548681D01*
X60455485Y-56626487D01*
X60455485Y-56626488D01*
X60455483Y-56626490D01*
X60395862Y-56708550D01*
X60316657Y-56817566D01*
X60209433Y-57028003D01*
X60136446Y-57252631D01*
X60099500Y-57485902D01*
X60099500Y-57722097D01*
X60136446Y-57955368D01*
X60209433Y-58179996D01*
X60285815Y-58329902D01*
X60316657Y-58390433D01*
X60455483Y-58581510D01*
X60455485Y-58581512D01*
X60533292Y-58659319D01*
X60566777Y-58720642D01*
X60561793Y-58790334D01*
X60533292Y-58834681D01*
X60455485Y-58912487D01*
X60455485Y-58912488D01*
X60455483Y-58912490D01*
X60395862Y-58994550D01*
X60316657Y-59103566D01*
X60209433Y-59314003D01*
X60136446Y-59538631D01*
X60099500Y-59771902D01*
X60099500Y-59780902D01*
X60079815Y-59847941D01*
X60027011Y-59893696D01*
X59957853Y-59903640D01*
X59894297Y-59874615D01*
X59887819Y-59868583D01*
X58436819Y-58417583D01*
X58403334Y-58356260D01*
X58400500Y-58329902D01*
X58400500Y-46300097D01*
X58420185Y-46233058D01*
X58436819Y-46212416D01*
X58593333Y-46055902D01*
X60099500Y-46055902D01*
X60099500Y-46292097D01*
X60136446Y-46525368D01*
X60209433Y-46749996D01*
X60316657Y-46960433D01*
X60455483Y-47151510D01*
X60622490Y-47318517D01*
X60813567Y-47457343D01*
X60912991Y-47508002D01*
X61024003Y-47564566D01*
X61024005Y-47564566D01*
X61024008Y-47564568D01*
X61144412Y-47603689D01*
X61248631Y-47637553D01*
X61481903Y-47674500D01*
X61481908Y-47674500D01*
X61718097Y-47674500D01*
X61951368Y-47637553D01*
X62175992Y-47564568D01*
X62386433Y-47457343D01*
X62577510Y-47318517D01*
X62744517Y-47151510D01*
X62883343Y-46960433D01*
X62990568Y-46749992D01*
X63063553Y-46525368D01*
X63100500Y-46292097D01*
X63100500Y-46055902D01*
X63063553Y-45822631D01*
X62990566Y-45598003D01*
X62883342Y-45387566D01*
X62744517Y-45196490D01*
X62577510Y-45029483D01*
X62386433Y-44890657D01*
X62175996Y-44783433D01*
X61951368Y-44710446D01*
X61718097Y-44673500D01*
X61718092Y-44673500D01*
X61481908Y-44673500D01*
X61481903Y-44673500D01*
X61248631Y-44710446D01*
X61024003Y-44783433D01*
X60813566Y-44890657D01*
X60791678Y-44906560D01*
X60622490Y-45029483D01*
X60622488Y-45029485D01*
X60622487Y-45029485D01*
X60455485Y-45196487D01*
X60455485Y-45196488D01*
X60455483Y-45196490D01*
X60395862Y-45278550D01*
X60316657Y-45387566D01*
X60209433Y-45598003D01*
X60136446Y-45822631D01*
X60099500Y-46055902D01*
X58593333Y-46055902D01*
X60212416Y-44436819D01*
X60273739Y-44403334D01*
X60300097Y-44400500D01*
X65699903Y-44400500D01*
X65766942Y-44420185D01*
G37*
%TD.AperFunction*%
%TA.AperFunction,Conductor*%
G36*
X86448539Y-39020185D02*
G01*
X86494294Y-39072989D01*
X86505500Y-39124500D01*
X86505500Y-41473870D01*
X86505501Y-41473876D01*
X86511908Y-41533483D01*
X86562202Y-41668328D01*
X86562206Y-41668335D01*
X86648452Y-41783544D01*
X86648455Y-41783547D01*
X86763664Y-41869793D01*
X86763671Y-41869797D01*
X86898517Y-41920091D01*
X86898516Y-41920091D01*
X86905444Y-41920835D01*
X86958127Y-41926500D01*
X89593872Y-41926499D01*
X89653483Y-41920091D01*
X89788331Y-41869796D01*
X89903546Y-41783546D01*
X89989796Y-41668331D01*
X90040091Y-41533483D01*
X90046500Y-41473873D01*
X90046499Y-39124499D01*
X90066184Y-39057461D01*
X90118987Y-39011706D01*
X90170499Y-39000500D01*
X100605500Y-39000500D01*
X100672539Y-39020185D01*
X100718294Y-39072989D01*
X100729500Y-39124500D01*
X100729500Y-41473870D01*
X100729501Y-41473876D01*
X100735908Y-41533483D01*
X100786202Y-41668328D01*
X100786206Y-41668335D01*
X100872452Y-41783544D01*
X100872455Y-41783547D01*
X100987664Y-41869793D01*
X100987671Y-41869797D01*
X101122517Y-41920091D01*
X101122516Y-41920091D01*
X101129444Y-41920835D01*
X101182127Y-41926500D01*
X103817872Y-41926499D01*
X103877483Y-41920091D01*
X104012331Y-41869796D01*
X104127546Y-41783546D01*
X104213796Y-41668331D01*
X104259318Y-41546279D01*
X104301189Y-41490346D01*
X104366653Y-41465929D01*
X104434926Y-41480780D01*
X104484332Y-41530185D01*
X104499500Y-41589613D01*
X104499500Y-60566386D01*
X104479815Y-60633425D01*
X104427011Y-60679180D01*
X104357853Y-60689124D01*
X104294297Y-60660099D01*
X104259318Y-60609719D01*
X104213797Y-60487671D01*
X104213793Y-60487664D01*
X104127547Y-60372455D01*
X104127544Y-60372452D01*
X104012335Y-60286206D01*
X104012328Y-60286202D01*
X103877482Y-60235908D01*
X103877483Y-60235908D01*
X103817883Y-60229501D01*
X103817881Y-60229500D01*
X103817873Y-60229500D01*
X103817864Y-60229500D01*
X101182129Y-60229500D01*
X101182123Y-60229501D01*
X101122516Y-60235908D01*
X100987671Y-60286202D01*
X100987668Y-60286204D01*
X100923311Y-60334382D01*
X100857846Y-60358799D01*
X100789573Y-60343947D01*
X100774689Y-60334382D01*
X100710331Y-60286204D01*
X100710328Y-60286202D01*
X100575482Y-60235908D01*
X100575483Y-60235908D01*
X100515883Y-60229501D01*
X100515881Y-60229500D01*
X100515873Y-60229500D01*
X100515864Y-60229500D01*
X97880129Y-60229500D01*
X97880123Y-60229501D01*
X97820516Y-60235908D01*
X97685671Y-60286202D01*
X97685664Y-60286206D01*
X97570455Y-60372452D01*
X97570452Y-60372455D01*
X97484206Y-60487664D01*
X97484202Y-60487671D01*
X97433908Y-60622517D01*
X97429868Y-60660099D01*
X97427501Y-60682123D01*
X97427500Y-60682135D01*
X97427500Y-63317870D01*
X97427501Y-63317876D01*
X97433908Y-63377483D01*
X97484202Y-63512328D01*
X97484206Y-63512335D01*
X97570452Y-63627544D01*
X97570455Y-63627547D01*
X97685664Y-63713793D01*
X97685671Y-63713797D01*
X97820517Y-63764091D01*
X97820516Y-63764091D01*
X97827444Y-63764835D01*
X97880127Y-63770500D01*
X100515872Y-63770499D01*
X100575483Y-63764091D01*
X100710331Y-63713796D01*
X100774688Y-63665617D01*
X100840153Y-63641200D01*
X100908426Y-63656051D01*
X100923308Y-63665616D01*
X100969240Y-63700000D01*
X100987668Y-63713795D01*
X100987671Y-63713797D01*
X101122517Y-63764091D01*
X101122516Y-63764091D01*
X101129444Y-63764835D01*
X101182127Y-63770500D01*
X103817872Y-63770499D01*
X103877483Y-63764091D01*
X104012331Y-63713796D01*
X104127546Y-63627546D01*
X104213796Y-63512331D01*
X104259318Y-63390279D01*
X104301189Y-63334346D01*
X104366653Y-63309929D01*
X104434926Y-63324780D01*
X104484332Y-63374185D01*
X104499500Y-63433613D01*
X104499500Y-112875500D01*
X104479815Y-112942539D01*
X104427011Y-112988294D01*
X104375500Y-112999500D01*
X42624500Y-112999500D01*
X42557461Y-112979815D01*
X42511706Y-112927011D01*
X42500500Y-112875500D01*
X42500500Y-90819826D01*
X46099769Y-90819826D01*
X46099769Y-91040269D01*
X46134254Y-91258000D01*
X46202372Y-91467651D01*
X46202373Y-91467654D01*
X46302456Y-91664073D01*
X46432021Y-91842406D01*
X46432025Y-91842411D01*
X46587905Y-91998291D01*
X46587910Y-91998295D01*
X46634006Y-92031785D01*
X46766247Y-92127863D01*
X46846421Y-92168714D01*
X46962662Y-92227943D01*
X46962665Y-92227944D01*
X47067490Y-92262003D01*
X47172318Y-92296063D01*
X47390047Y-92330548D01*
X47390048Y-92330548D01*
X47610490Y-92330548D01*
X47610491Y-92330548D01*
X47828220Y-92296063D01*
X48037875Y-92227943D01*
X48234291Y-92127863D01*
X48412634Y-91998290D01*
X48568511Y-91842413D01*
X48698084Y-91664070D01*
X48798164Y-91467654D01*
X48866284Y-91257999D01*
X48900769Y-91040270D01*
X48900769Y-90819826D01*
X48866284Y-90602097D01*
X48798164Y-90392442D01*
X48798164Y-90392441D01*
X48743530Y-90285218D01*
X48698084Y-90196026D01*
X48681529Y-90173240D01*
X48568516Y-90017689D01*
X48568512Y-90017684D01*
X48412632Y-89861804D01*
X48412627Y-89861800D01*
X48234294Y-89732235D01*
X48234293Y-89732234D01*
X48234291Y-89732233D01*
X48171365Y-89700170D01*
X48037875Y-89632152D01*
X48037872Y-89632151D01*
X47828221Y-89564033D01*
X47719355Y-89546790D01*
X47610491Y-89529548D01*
X47390047Y-89529548D01*
X47317470Y-89541043D01*
X47172316Y-89564033D01*
X46962665Y-89632151D01*
X46962662Y-89632152D01*
X46766243Y-89732235D01*
X46587910Y-89861800D01*
X46587905Y-89861804D01*
X46432025Y-90017684D01*
X46432021Y-90017689D01*
X46302456Y-90196022D01*
X46202373Y-90392441D01*
X46202372Y-90392444D01*
X46134254Y-90602095D01*
X46099769Y-90819826D01*
X42500500Y-90819826D01*
X42500500Y-88977648D01*
X53699500Y-88977648D01*
X53699500Y-89182351D01*
X53731522Y-89384534D01*
X53794781Y-89579223D01*
X53887715Y-89761613D01*
X54008028Y-89927213D01*
X54152786Y-90071971D01*
X54307749Y-90184556D01*
X54318390Y-90192287D01*
X54434607Y-90251503D01*
X54500776Y-90285218D01*
X54500778Y-90285218D01*
X54500781Y-90285220D01*
X54605137Y-90319127D01*
X54695465Y-90348477D01*
X54796557Y-90364488D01*
X54897648Y-90380500D01*
X54897649Y-90380500D01*
X55102351Y-90380500D01*
X55102352Y-90380500D01*
X55304534Y-90348477D01*
X55499219Y-90285220D01*
X55681610Y-90192287D01*
X55774590Y-90124732D01*
X55847213Y-90071971D01*
X55847215Y-90071968D01*
X55847219Y-90071966D01*
X55991966Y-89927219D01*
X55991968Y-89927215D01*
X55991971Y-89927213D01*
X56044732Y-89854590D01*
X56112287Y-89761610D01*
X56205220Y-89579219D01*
X56268477Y-89384534D01*
X56300500Y-89182352D01*
X56300500Y-88977648D01*
X56268477Y-88775466D01*
X56250761Y-88720943D01*
X56205218Y-88580776D01*
X56165170Y-88502179D01*
X56112287Y-88398390D01*
X56104556Y-88387749D01*
X55991971Y-88232786D01*
X55847213Y-88088028D01*
X55681613Y-87967715D01*
X55681612Y-87967714D01*
X55681610Y-87967713D01*
X55624653Y-87938691D01*
X55499223Y-87874781D01*
X55304534Y-87811522D01*
X55129995Y-87783878D01*
X55102352Y-87779500D01*
X54897648Y-87779500D01*
X54873329Y-87783351D01*
X54695465Y-87811522D01*
X54500776Y-87874781D01*
X54318386Y-87967715D01*
X54152786Y-88088028D01*
X54008028Y-88232786D01*
X53887715Y-88398386D01*
X53794781Y-88580776D01*
X53731522Y-88775465D01*
X53699500Y-88977648D01*
X42500500Y-88977648D01*
X42500500Y-83447326D01*
X46099769Y-83447326D01*
X46099769Y-83667769D01*
X46134254Y-83885500D01*
X46202372Y-84095151D01*
X46202373Y-84095154D01*
X46302456Y-84291573D01*
X46432021Y-84469906D01*
X46432025Y-84469911D01*
X46587905Y-84625791D01*
X46587910Y-84625795D01*
X46743461Y-84738808D01*
X46766247Y-84755363D01*
X46894644Y-84820785D01*
X46962662Y-84855443D01*
X46962665Y-84855444D01*
X47067490Y-84889503D01*
X47172318Y-84923563D01*
X47390047Y-84958048D01*
X47390048Y-84958048D01*
X47610490Y-84958048D01*
X47610491Y-84958048D01*
X47828220Y-84923563D01*
X48037875Y-84855443D01*
X48234291Y-84755363D01*
X48412634Y-84625790D01*
X48568511Y-84469913D01*
X48698084Y-84291570D01*
X48798164Y-84095154D01*
X48866284Y-83885499D01*
X48900769Y-83667770D01*
X48900769Y-83447326D01*
X48866284Y-83229597D01*
X48798164Y-83019942D01*
X48798164Y-83019941D01*
X48763506Y-82951923D01*
X48698084Y-82823526D01*
X48681529Y-82800740D01*
X48568516Y-82645189D01*
X48568512Y-82645184D01*
X48412632Y-82489304D01*
X48412627Y-82489300D01*
X48234294Y-82359735D01*
X48234293Y-82359734D01*
X48234291Y-82359733D01*
X48171365Y-82327670D01*
X48037875Y-82259652D01*
X48037872Y-82259651D01*
X47828221Y-82191533D01*
X47719355Y-82174290D01*
X47610491Y-82157048D01*
X47390047Y-82157048D01*
X47317470Y-82168543D01*
X47172316Y-82191533D01*
X46962665Y-82259651D01*
X46962662Y-82259652D01*
X46766243Y-82359735D01*
X46587910Y-82489300D01*
X46587905Y-82489304D01*
X46432025Y-82645184D01*
X46432021Y-82645189D01*
X46302456Y-82823522D01*
X46202373Y-83019941D01*
X46202372Y-83019944D01*
X46134254Y-83229595D01*
X46099769Y-83447326D01*
X42500500Y-83447326D01*
X42500500Y-78817648D01*
X53699500Y-78817648D01*
X53699500Y-79022351D01*
X53731522Y-79224534D01*
X53794781Y-79419223D01*
X53887715Y-79601613D01*
X54008028Y-79767213D01*
X54152786Y-79911971D01*
X54307749Y-80024556D01*
X54318390Y-80032287D01*
X54434607Y-80091503D01*
X54500776Y-80125218D01*
X54500778Y-80125218D01*
X54500781Y-80125220D01*
X54605137Y-80159127D01*
X54695465Y-80188477D01*
X54796557Y-80204488D01*
X54897648Y-80220500D01*
X54897649Y-80220500D01*
X55102351Y-80220500D01*
X55102352Y-80220500D01*
X55304534Y-80188477D01*
X55499219Y-80125220D01*
X55681610Y-80032287D01*
X55774590Y-79964732D01*
X55847213Y-79911971D01*
X55847215Y-79911968D01*
X55847219Y-79911966D01*
X55991966Y-79767219D01*
X55991968Y-79767215D01*
X55991971Y-79767213D01*
X56067313Y-79663512D01*
X56112287Y-79601610D01*
X56205220Y-79419219D01*
X56268477Y-79224534D01*
X56300500Y-79022352D01*
X56300500Y-78817648D01*
X56268477Y-78615466D01*
X56253024Y-78567908D01*
X56205218Y-78420776D01*
X56161324Y-78334631D01*
X56112287Y-78238390D01*
X56104556Y-78227749D01*
X55991971Y-78072786D01*
X55847213Y-77928028D01*
X55681613Y-77807715D01*
X55681612Y-77807714D01*
X55681610Y-77807713D01*
X55624653Y-77778691D01*
X55499223Y-77714781D01*
X55304534Y-77651522D01*
X55129995Y-77623878D01*
X55102352Y-77619500D01*
X54897648Y-77619500D01*
X54873329Y-77623351D01*
X54695465Y-77651522D01*
X54500776Y-77714781D01*
X54318386Y-77807715D01*
X54152786Y-77928028D01*
X54008028Y-78072786D01*
X53887715Y-78238386D01*
X53794781Y-78420776D01*
X53731522Y-78615465D01*
X53699500Y-78817648D01*
X42500500Y-78817648D01*
X42500500Y-76074826D01*
X46099769Y-76074826D01*
X46099769Y-76295269D01*
X46134254Y-76513000D01*
X46202372Y-76722651D01*
X46202373Y-76722654D01*
X46302456Y-76919073D01*
X46432021Y-77097406D01*
X46432025Y-77097411D01*
X46587905Y-77253291D01*
X46587910Y-77253295D01*
X46743461Y-77366308D01*
X46766247Y-77382863D01*
X46894644Y-77448285D01*
X46962662Y-77482943D01*
X46962665Y-77482944D01*
X47066379Y-77516642D01*
X47172318Y-77551063D01*
X47390047Y-77585548D01*
X47390048Y-77585548D01*
X47610490Y-77585548D01*
X47610491Y-77585548D01*
X47828220Y-77551063D01*
X48037875Y-77482943D01*
X48234291Y-77382863D01*
X48412634Y-77253290D01*
X48568511Y-77097413D01*
X48698084Y-76919070D01*
X48798164Y-76722654D01*
X48866284Y-76512999D01*
X48900769Y-76295270D01*
X48900769Y-76074826D01*
X48866284Y-75857097D01*
X48798164Y-75647442D01*
X48798164Y-75647441D01*
X48763402Y-75579219D01*
X48698084Y-75451026D01*
X48627893Y-75354416D01*
X48568516Y-75272689D01*
X48568512Y-75272684D01*
X48412634Y-75116806D01*
X48412626Y-75116800D01*
X48352469Y-75073094D01*
X48352468Y-75073092D01*
X48234294Y-74987235D01*
X48234293Y-74987234D01*
X48234291Y-74987233D01*
X48215480Y-74977648D01*
X53699500Y-74977648D01*
X53699500Y-75182351D01*
X53731522Y-75384534D01*
X53794781Y-75579223D01*
X53887715Y-75761613D01*
X54008028Y-75927213D01*
X54152786Y-76071971D01*
X54307749Y-76184556D01*
X54318390Y-76192287D01*
X54434607Y-76251503D01*
X54500776Y-76285218D01*
X54500778Y-76285218D01*
X54500781Y-76285220D01*
X54605137Y-76319127D01*
X54695465Y-76348477D01*
X54796557Y-76364488D01*
X54897648Y-76380500D01*
X54897649Y-76380500D01*
X55102351Y-76380500D01*
X55102352Y-76380500D01*
X55304534Y-76348477D01*
X55499219Y-76285220D01*
X55681610Y-76192287D01*
X55843283Y-76074826D01*
X55847213Y-76071971D01*
X55847215Y-76071968D01*
X55847219Y-76071966D01*
X55991966Y-75927219D01*
X55991968Y-75927215D01*
X55991971Y-75927213D01*
X56044732Y-75854590D01*
X56112287Y-75761610D01*
X56205220Y-75579219D01*
X56268477Y-75384534D01*
X56300500Y-75182352D01*
X56300500Y-74977648D01*
X56268477Y-74775465D01*
X56205218Y-74580776D01*
X56146414Y-74465368D01*
X56112287Y-74398390D01*
X56104556Y-74387749D01*
X55991971Y-74232786D01*
X55847213Y-74088028D01*
X55681613Y-73967715D01*
X55681612Y-73967714D01*
X55681610Y-73967713D01*
X55624653Y-73938691D01*
X55499223Y-73874781D01*
X55304534Y-73811522D01*
X55129995Y-73783878D01*
X55102352Y-73779500D01*
X54897648Y-73779500D01*
X54873329Y-73783351D01*
X54695465Y-73811522D01*
X54500776Y-73874781D01*
X54318386Y-73967715D01*
X54152786Y-74088028D01*
X54008028Y-74232786D01*
X53887715Y-74398386D01*
X53794781Y-74580776D01*
X53731522Y-74775465D01*
X53699500Y-74977648D01*
X48215480Y-74977648D01*
X48171365Y-74955170D01*
X48037875Y-74887152D01*
X48037872Y-74887151D01*
X47828221Y-74819033D01*
X47719355Y-74801790D01*
X47610491Y-74784548D01*
X47390047Y-74784548D01*
X47317470Y-74796043D01*
X47172316Y-74819033D01*
X46962665Y-74887151D01*
X46962662Y-74887152D01*
X46766243Y-74987235D01*
X46587910Y-75116800D01*
X46587905Y-75116804D01*
X46432025Y-75272684D01*
X46432021Y-75272689D01*
X46302456Y-75451022D01*
X46202373Y-75647441D01*
X46202372Y-75647444D01*
X46134254Y-75857095D01*
X46099769Y-76074826D01*
X42500500Y-76074826D01*
X42500500Y-71674450D01*
X48249769Y-71674450D01*
X48249769Y-71910645D01*
X48286715Y-72143916D01*
X48359702Y-72368544D01*
X48466926Y-72578981D01*
X48605752Y-72770058D01*
X48772759Y-72937065D01*
X48963836Y-73075891D01*
X49063260Y-73126550D01*
X49174272Y-73183114D01*
X49174274Y-73183114D01*
X49174277Y-73183116D01*
X49255411Y-73209478D01*
X49398900Y-73256101D01*
X49632172Y-73293048D01*
X49632177Y-73293048D01*
X49868366Y-73293048D01*
X50101637Y-73256101D01*
X50326261Y-73183116D01*
X50536702Y-73075891D01*
X50727779Y-72937065D01*
X50894786Y-72770058D01*
X51033612Y-72578981D01*
X51140837Y-72368540D01*
X51213822Y-72143916D01*
X51214516Y-72139535D01*
X51250769Y-71910645D01*
X51250769Y-71674450D01*
X51213822Y-71441179D01*
X51140835Y-71216551D01*
X51084271Y-71105539D01*
X51033612Y-71006115D01*
X50894786Y-70815038D01*
X50727779Y-70648031D01*
X50536702Y-70509205D01*
X50326265Y-70401981D01*
X50101637Y-70328994D01*
X49868366Y-70292048D01*
X49868361Y-70292048D01*
X49632177Y-70292048D01*
X49632172Y-70292048D01*
X49398900Y-70328994D01*
X49174272Y-70401981D01*
X48963835Y-70509205D01*
X48854819Y-70588410D01*
X48772759Y-70648031D01*
X48772757Y-70648033D01*
X48772756Y-70648033D01*
X48605754Y-70815035D01*
X48605754Y-70815036D01*
X48605752Y-70815038D01*
X48579997Y-70850487D01*
X48466926Y-71006114D01*
X48359702Y-71216551D01*
X48286715Y-71441179D01*
X48249769Y-71674450D01*
X42500500Y-71674450D01*
X42500500Y-65174450D01*
X48249769Y-65174450D01*
X48249769Y-65410645D01*
X48286715Y-65643916D01*
X48359702Y-65868544D01*
X48443134Y-66032287D01*
X48466926Y-66078981D01*
X48605752Y-66270058D01*
X48772759Y-66437065D01*
X48963836Y-66575891D01*
X49063260Y-66626550D01*
X49174272Y-66683114D01*
X49174274Y-66683114D01*
X49174277Y-66683116D01*
X49294681Y-66722237D01*
X49398900Y-66756101D01*
X49632172Y-66793048D01*
X49632177Y-66793048D01*
X49868366Y-66793048D01*
X50101637Y-66756101D01*
X50326261Y-66683116D01*
X50536702Y-66575891D01*
X50727779Y-66437065D01*
X50894786Y-66270058D01*
X51033612Y-66078981D01*
X51140837Y-65868540D01*
X51213822Y-65643916D01*
X51249410Y-65419223D01*
X51250769Y-65410645D01*
X51250769Y-65174450D01*
X51213822Y-64941179D01*
X51202480Y-64906274D01*
X51173684Y-64817648D01*
X53699500Y-64817648D01*
X53699500Y-65022351D01*
X53731522Y-65224534D01*
X53794781Y-65419223D01*
X53887715Y-65601613D01*
X54008028Y-65767213D01*
X54152786Y-65911971D01*
X54307749Y-66024556D01*
X54318390Y-66032287D01*
X54410032Y-66078981D01*
X54500776Y-66125218D01*
X54500778Y-66125218D01*
X54500781Y-66125220D01*
X54596540Y-66156334D01*
X54695465Y-66188477D01*
X54772518Y-66200681D01*
X54897648Y-66220500D01*
X54897649Y-66220500D01*
X55102351Y-66220500D01*
X55102352Y-66220500D01*
X55304534Y-66188477D01*
X55499219Y-66125220D01*
X55681610Y-66032287D01*
X55798295Y-65947511D01*
X55847213Y-65911971D01*
X55847215Y-65911968D01*
X55847219Y-65911966D01*
X55991966Y-65767219D01*
X55991968Y-65767215D01*
X55991971Y-65767213D01*
X56081550Y-65643916D01*
X56112287Y-65601610D01*
X56205220Y-65419219D01*
X56268477Y-65224534D01*
X56300500Y-65022352D01*
X56300500Y-64817648D01*
X56284488Y-64716551D01*
X56268477Y-64615465D01*
X56205218Y-64420776D01*
X56151340Y-64315036D01*
X56112287Y-64238390D01*
X56072456Y-64183567D01*
X55991971Y-64072786D01*
X55847213Y-63928028D01*
X55681613Y-63807715D01*
X55681612Y-63807714D01*
X55681610Y-63807713D01*
X55624653Y-63778691D01*
X55499223Y-63714781D01*
X55304534Y-63651522D01*
X55129995Y-63623878D01*
X55102352Y-63619500D01*
X54897648Y-63619500D01*
X54873329Y-63623351D01*
X54695465Y-63651522D01*
X54500776Y-63714781D01*
X54318386Y-63807715D01*
X54152786Y-63928028D01*
X54008028Y-64072786D01*
X53887715Y-64238386D01*
X53794781Y-64420776D01*
X53731522Y-64615465D01*
X53699500Y-64817648D01*
X51173684Y-64817648D01*
X51140837Y-64716556D01*
X51033612Y-64506115D01*
X50894786Y-64315038D01*
X50727779Y-64148031D01*
X50536702Y-64009205D01*
X50503891Y-63992487D01*
X50326265Y-63901981D01*
X50101637Y-63828994D01*
X49868366Y-63792048D01*
X49868361Y-63792048D01*
X49632177Y-63792048D01*
X49632172Y-63792048D01*
X49398900Y-63828994D01*
X49174272Y-63901981D01*
X48963835Y-64009205D01*
X48854819Y-64088410D01*
X48772759Y-64148031D01*
X48772757Y-64148033D01*
X48772756Y-64148033D01*
X48605754Y-64315035D01*
X48605754Y-64315036D01*
X48605752Y-64315038D01*
X48548380Y-64394003D01*
X48466926Y-64506114D01*
X48359702Y-64716551D01*
X48286715Y-64941179D01*
X48249769Y-65174450D01*
X42500500Y-65174450D01*
X42500500Y-61697696D01*
X46187269Y-61697696D01*
X46187269Y-61902399D01*
X46219291Y-62104582D01*
X46282550Y-62299271D01*
X46323939Y-62380500D01*
X46356999Y-62445384D01*
X46375484Y-62481661D01*
X46495797Y-62647261D01*
X46640555Y-62792019D01*
X46795518Y-62904604D01*
X46806159Y-62912335D01*
X46922376Y-62971551D01*
X46988545Y-63005266D01*
X46988547Y-63005266D01*
X46988550Y-63005268D01*
X47092906Y-63039175D01*
X47183234Y-63068525D01*
X47284326Y-63084536D01*
X47385417Y-63100548D01*
X47385418Y-63100548D01*
X47590120Y-63100548D01*
X47590121Y-63100548D01*
X47792303Y-63068525D01*
X47986988Y-63005268D01*
X48169379Y-62912335D01*
X48262359Y-62844780D01*
X48334982Y-62792019D01*
X48334984Y-62792016D01*
X48334988Y-62792014D01*
X48479735Y-62647267D01*
X48479737Y-62647263D01*
X48479740Y-62647261D01*
X48532501Y-62574638D01*
X48600056Y-62481658D01*
X48692989Y-62299267D01*
X48756246Y-62104582D01*
X48788269Y-61902400D01*
X48788269Y-61697696D01*
X48779696Y-61643566D01*
X48756246Y-61495513D01*
X48692987Y-61300824D01*
X48600056Y-61118438D01*
X48547181Y-61045661D01*
X48547180Y-61045658D01*
X48497768Y-60977648D01*
X53699500Y-60977648D01*
X53699500Y-61182351D01*
X53731522Y-61384534D01*
X53794781Y-61579223D01*
X53887715Y-61761613D01*
X54008028Y-61927213D01*
X54152786Y-62071971D01*
X54307749Y-62184556D01*
X54318390Y-62192287D01*
X54434607Y-62251503D01*
X54500776Y-62285218D01*
X54500778Y-62285218D01*
X54500781Y-62285220D01*
X54544026Y-62299271D01*
X54695465Y-62348477D01*
X54796557Y-62364488D01*
X54897648Y-62380500D01*
X54897649Y-62380500D01*
X55102351Y-62380500D01*
X55102352Y-62380500D01*
X55304534Y-62348477D01*
X55499219Y-62285220D01*
X55681610Y-62192287D01*
X55802327Y-62104582D01*
X55847213Y-62071971D01*
X55847215Y-62071968D01*
X55847219Y-62071966D01*
X55991966Y-61927219D01*
X55991968Y-61927215D01*
X55991971Y-61927213D01*
X56065189Y-61826435D01*
X56112287Y-61761610D01*
X56205220Y-61579219D01*
X56268477Y-61384534D01*
X56300500Y-61182352D01*
X56300500Y-60977648D01*
X56268477Y-60775466D01*
X56205220Y-60580781D01*
X56205218Y-60580778D01*
X56205218Y-60580776D01*
X56146732Y-60465992D01*
X56112287Y-60398390D01*
X56083523Y-60358799D01*
X55991971Y-60232786D01*
X55847213Y-60088028D01*
X55681613Y-59967715D01*
X55681612Y-59967714D01*
X55681610Y-59967713D01*
X55624653Y-59938691D01*
X55499223Y-59874781D01*
X55304534Y-59811522D01*
X55129995Y-59783878D01*
X55102352Y-59779500D01*
X54897648Y-59779500D01*
X54873329Y-59783351D01*
X54695465Y-59811522D01*
X54500776Y-59874781D01*
X54318386Y-59967715D01*
X54152786Y-60088028D01*
X54008028Y-60232786D01*
X53887715Y-60398386D01*
X53794781Y-60580776D01*
X53731522Y-60775465D01*
X53699500Y-60977648D01*
X48497768Y-60977648D01*
X48479740Y-60952835D01*
X48479736Y-60952830D01*
X48334982Y-60808076D01*
X48169382Y-60687763D01*
X48169381Y-60687762D01*
X48169379Y-60687761D01*
X48112422Y-60658739D01*
X47986992Y-60594829D01*
X47792303Y-60531570D01*
X47617764Y-60503926D01*
X47590121Y-60499548D01*
X47385417Y-60499548D01*
X47361098Y-60503399D01*
X47183234Y-60531570D01*
X46988545Y-60594829D01*
X46806155Y-60687763D01*
X46640555Y-60808076D01*
X46495797Y-60952834D01*
X46375484Y-61118434D01*
X46282550Y-61300824D01*
X46219291Y-61495513D01*
X46187269Y-61697696D01*
X42500500Y-61697696D01*
X42500500Y-58709054D01*
X57199498Y-58709054D01*
X57199499Y-58709057D01*
X57233160Y-58834681D01*
X57240424Y-58861787D01*
X57255178Y-58887341D01*
X57255179Y-58887343D01*
X57319477Y-58998712D01*
X57319481Y-58998717D01*
X57438349Y-59117585D01*
X57438355Y-59117590D01*
X60147200Y-61826435D01*
X60180685Y-61887758D01*
X60177450Y-61952433D01*
X60136447Y-62078628D01*
X60099500Y-62311902D01*
X60099500Y-62548097D01*
X60136446Y-62781368D01*
X60209433Y-63005996D01*
X60316657Y-63216433D01*
X60455483Y-63407510D01*
X60622490Y-63574517D01*
X60813567Y-63713343D01*
X60875676Y-63744989D01*
X61024003Y-63820566D01*
X61024005Y-63820566D01*
X61024008Y-63820568D01*
X61049944Y-63828995D01*
X61248631Y-63893553D01*
X61481903Y-63930500D01*
X61481908Y-63930500D01*
X61718097Y-63930500D01*
X61951368Y-63893553D01*
X62175992Y-63820568D01*
X62386433Y-63713343D01*
X62577510Y-63574517D01*
X62744517Y-63407510D01*
X62883343Y-63216433D01*
X62990568Y-63005992D01*
X63063553Y-62781368D01*
X63100500Y-62548097D01*
X63100500Y-62539097D01*
X63120185Y-62472058D01*
X63172989Y-62426303D01*
X63242147Y-62416359D01*
X63305703Y-62445384D01*
X63312181Y-62451416D01*
X74763181Y-73902416D01*
X74796666Y-73963739D01*
X74799500Y-73990097D01*
X74799500Y-91713330D01*
X74799499Y-91713348D01*
X74799499Y-91879054D01*
X74799498Y-91879054D01*
X74840423Y-92031785D01*
X74869358Y-92081900D01*
X74869359Y-92081904D01*
X74869360Y-92081904D01*
X74919479Y-92168714D01*
X74919481Y-92168717D01*
X75038349Y-92287585D01*
X75038355Y-92287590D01*
X81055181Y-98304416D01*
X81088666Y-98365739D01*
X81091500Y-98392097D01*
X81091500Y-98751931D01*
X81071815Y-98818970D01*
X81023796Y-98862415D01*
X80905568Y-98922655D01*
X80771896Y-99019774D01*
X80714490Y-99061483D01*
X80714488Y-99061485D01*
X80714487Y-99061485D01*
X80547484Y-99228488D01*
X80522318Y-99263127D01*
X80466987Y-99305792D01*
X80397374Y-99311771D01*
X80335579Y-99279165D01*
X80321682Y-99263127D01*
X80296517Y-99228490D01*
X80129510Y-99061483D01*
X79938433Y-98922657D01*
X79938429Y-98922655D01*
X79727996Y-98815433D01*
X79503368Y-98742446D01*
X79270097Y-98705500D01*
X79270092Y-98705500D01*
X79033908Y-98705500D01*
X79033903Y-98705500D01*
X78800631Y-98742446D01*
X78576003Y-98815433D01*
X78365566Y-98922657D01*
X78256550Y-99001862D01*
X78174490Y-99061483D01*
X78174488Y-99061485D01*
X78174487Y-99061485D01*
X78007485Y-99228487D01*
X78007485Y-99228488D01*
X78007483Y-99228490D01*
X77951320Y-99305792D01*
X77868657Y-99419566D01*
X77761433Y-99630003D01*
X77688446Y-99854631D01*
X77651500Y-100087902D01*
X77651500Y-100324097D01*
X77688446Y-100557368D01*
X77761433Y-100781996D01*
X77810889Y-100879057D01*
X77868657Y-100992433D01*
X78007483Y-101183510D01*
X78174490Y-101350517D01*
X78209127Y-101375683D01*
X78251792Y-101431013D01*
X78257771Y-101500626D01*
X78225165Y-101562421D01*
X78209130Y-101576315D01*
X78191365Y-101589222D01*
X78174488Y-101601484D01*
X78007485Y-101768487D01*
X78007485Y-101768488D01*
X78007483Y-101768490D01*
X77951320Y-101845792D01*
X77868657Y-101959566D01*
X77761433Y-102170003D01*
X77688446Y-102394631D01*
X77651500Y-102627902D01*
X77651500Y-102864097D01*
X77688446Y-103097368D01*
X77761433Y-103321996D01*
X77868657Y-103532433D01*
X78007483Y-103723510D01*
X78174490Y-103890517D01*
X78209127Y-103915683D01*
X78251792Y-103971013D01*
X78257771Y-104040626D01*
X78225165Y-104102421D01*
X78209130Y-104116315D01*
X78191365Y-104129222D01*
X78174488Y-104141484D01*
X78007485Y-104308487D01*
X78007485Y-104308488D01*
X78007483Y-104308490D01*
X77951320Y-104385792D01*
X77868657Y-104499566D01*
X77761433Y-104710003D01*
X77688446Y-104934631D01*
X77651500Y-105167902D01*
X77651500Y-105404097D01*
X77688446Y-105637368D01*
X77761433Y-105861996D01*
X77868657Y-106072433D01*
X78007483Y-106263510D01*
X78174490Y-106430517D01*
X78209127Y-106455683D01*
X78251792Y-106511013D01*
X78257771Y-106580626D01*
X78225165Y-106642421D01*
X78209130Y-106656315D01*
X78191365Y-106669222D01*
X78174488Y-106681484D01*
X78007485Y-106848487D01*
X78007485Y-106848488D01*
X78007483Y-106848490D01*
X77947862Y-106930550D01*
X77868657Y-107039566D01*
X77761433Y-107250003D01*
X77688446Y-107474631D01*
X77651500Y-107707902D01*
X77651500Y-107944097D01*
X77688446Y-108177368D01*
X77761433Y-108401996D01*
X77868657Y-108612433D01*
X78007483Y-108803510D01*
X78174490Y-108970517D01*
X78365567Y-109109343D01*
X78445261Y-109149949D01*
X78576003Y-109216566D01*
X78576005Y-109216566D01*
X78576008Y-109216568D01*
X78696412Y-109255689D01*
X78800631Y-109289553D01*
X79033903Y-109326500D01*
X79033908Y-109326500D01*
X79270097Y-109326500D01*
X79503368Y-109289553D01*
X79727992Y-109216568D01*
X79938433Y-109109343D01*
X80129510Y-108970517D01*
X80296517Y-108803510D01*
X80435343Y-108612433D01*
X80542568Y-108401992D01*
X80615553Y-108177368D01*
X80642834Y-108005122D01*
X80652500Y-107944097D01*
X80652500Y-107707902D01*
X80615553Y-107474631D01*
X80581689Y-107370412D01*
X80542568Y-107250008D01*
X80542566Y-107250005D01*
X80542566Y-107250003D01*
X80486002Y-107138991D01*
X80435343Y-107039567D01*
X80296517Y-106848490D01*
X80129510Y-106681483D01*
X80094872Y-106656317D01*
X80052207Y-106600989D01*
X80046228Y-106531375D01*
X80078833Y-106469580D01*
X80094873Y-106455682D01*
X80129510Y-106430517D01*
X80296517Y-106263510D01*
X80321682Y-106228872D01*
X80377011Y-106186207D01*
X80446625Y-106180228D01*
X80508420Y-106212833D01*
X80522315Y-106228870D01*
X80547483Y-106263510D01*
X80714490Y-106430517D01*
X80905567Y-106569343D01*
X80967676Y-106600989D01*
X81116003Y-106676566D01*
X81116005Y-106676566D01*
X81116008Y-106676568D01*
X81236412Y-106715689D01*
X81340631Y-106749553D01*
X81573903Y-106786500D01*
X81573908Y-106786500D01*
X81810097Y-106786500D01*
X82043368Y-106749553D01*
X82267992Y-106676568D01*
X82478433Y-106569343D01*
X82669510Y-106430517D01*
X82836517Y-106263510D01*
X82910145Y-106162169D01*
X82965471Y-106119506D01*
X83035084Y-106113527D01*
X83096879Y-106146132D01*
X83098141Y-106147376D01*
X83963181Y-107012416D01*
X83996666Y-107073739D01*
X83999500Y-107100097D01*
X83999500Y-109899903D01*
X83979815Y-109966942D01*
X83963181Y-109987584D01*
X82987584Y-110963181D01*
X82926261Y-110996666D01*
X82899903Y-110999500D01*
X79300097Y-110999500D01*
X79233058Y-110979815D01*
X79212416Y-110963181D01*
X67836819Y-99587584D01*
X67803334Y-99526261D01*
X67800500Y-99499903D01*
X67800500Y-75231059D01*
X67800501Y-75231046D01*
X67800501Y-75062945D01*
X67800501Y-75062943D01*
X67759577Y-74910215D01*
X67726141Y-74852302D01*
X67680520Y-74773284D01*
X67568716Y-74661480D01*
X67568715Y-74661479D01*
X67564385Y-74657149D01*
X67564374Y-74657139D01*
X63052798Y-70145563D01*
X63019313Y-70084240D01*
X63022547Y-70019566D01*
X63063553Y-69893368D01*
X63083705Y-69766126D01*
X63100500Y-69660097D01*
X63100500Y-69423902D01*
X63063553Y-69190631D01*
X62990566Y-68966003D01*
X62883342Y-68755566D01*
X62744517Y-68564490D01*
X62666708Y-68486681D01*
X62633223Y-68425358D01*
X62638207Y-68355666D01*
X62666708Y-68311319D01*
X62744517Y-68233510D01*
X62883343Y-68042433D01*
X62990568Y-67831992D01*
X63063553Y-67607368D01*
X63100500Y-67374097D01*
X63100500Y-67137902D01*
X63063553Y-66904631D01*
X63015292Y-66756101D01*
X62990568Y-66680008D01*
X62990566Y-66680005D01*
X62990566Y-66680003D01*
X62883342Y-66469566D01*
X62744517Y-66278490D01*
X62577510Y-66111483D01*
X62386433Y-65972657D01*
X62175996Y-65865433D01*
X61951368Y-65792446D01*
X61718097Y-65755500D01*
X61718092Y-65755500D01*
X61481908Y-65755500D01*
X61481903Y-65755500D01*
X61248631Y-65792446D01*
X61024003Y-65865433D01*
X60813566Y-65972657D01*
X60704550Y-66051862D01*
X60622490Y-66111483D01*
X60622488Y-66111485D01*
X60622487Y-66111485D01*
X60455485Y-66278487D01*
X60455485Y-66278488D01*
X60455483Y-66278490D01*
X60395862Y-66360550D01*
X60316657Y-66469566D01*
X60209433Y-66680003D01*
X60136446Y-66904631D01*
X60099500Y-67137902D01*
X60099500Y-67374097D01*
X60136446Y-67607368D01*
X60209433Y-67831996D01*
X60316657Y-68042433D01*
X60455483Y-68233510D01*
X60455485Y-68233512D01*
X60533292Y-68311319D01*
X60566777Y-68372642D01*
X60561793Y-68442334D01*
X60533292Y-68486681D01*
X60455485Y-68564487D01*
X60455485Y-68564488D01*
X60455483Y-68564490D01*
X60395862Y-68646550D01*
X60316657Y-68755566D01*
X60209433Y-68966003D01*
X60136446Y-69190631D01*
X60099500Y-69423902D01*
X60099500Y-69660097D01*
X60136446Y-69893368D01*
X60209433Y-70117996D01*
X60298118Y-70292048D01*
X60316657Y-70328433D01*
X60455483Y-70519510D01*
X60455485Y-70519512D01*
X60533292Y-70597319D01*
X60566777Y-70658642D01*
X60561793Y-70728334D01*
X60533292Y-70772681D01*
X60455485Y-70850487D01*
X60455485Y-70850488D01*
X60455483Y-70850490D01*
X60395862Y-70932550D01*
X60316657Y-71041566D01*
X60209433Y-71252003D01*
X60136446Y-71476631D01*
X60099500Y-71709902D01*
X60099500Y-71946097D01*
X60136446Y-72179368D01*
X60209433Y-72403996D01*
X60298593Y-72578981D01*
X60316657Y-72614433D01*
X60455483Y-72805510D01*
X60455485Y-72805512D01*
X60533292Y-72883319D01*
X60566777Y-72944642D01*
X60561793Y-73014334D01*
X60533292Y-73058681D01*
X60455485Y-73136487D01*
X60455485Y-73136488D01*
X60455483Y-73136490D01*
X60395862Y-73218550D01*
X60316657Y-73327566D01*
X60209433Y-73538003D01*
X60136446Y-73762631D01*
X60099500Y-73995902D01*
X60099500Y-74232097D01*
X60136446Y-74465368D01*
X60209433Y-74689996D01*
X60316657Y-74900433D01*
X60455483Y-75091510D01*
X60455485Y-75091512D01*
X60533292Y-75169319D01*
X60566777Y-75230642D01*
X60561793Y-75300334D01*
X60533292Y-75344681D01*
X60455485Y-75422487D01*
X60455485Y-75422488D01*
X60455483Y-75422490D01*
X60395862Y-75504550D01*
X60316657Y-75613566D01*
X60209433Y-75824003D01*
X60136446Y-76048631D01*
X60099500Y-76281902D01*
X60099500Y-76518097D01*
X60136446Y-76751368D01*
X60209433Y-76975996D01*
X60271295Y-77097406D01*
X60316657Y-77186433D01*
X60455483Y-77377510D01*
X60455485Y-77377512D01*
X60533292Y-77455319D01*
X60566777Y-77516642D01*
X60561793Y-77586334D01*
X60533292Y-77630681D01*
X60455485Y-77708487D01*
X60455485Y-77708488D01*
X60455483Y-77708490D01*
X60395862Y-77790550D01*
X60316657Y-77899566D01*
X60209433Y-78110003D01*
X60136446Y-78334631D01*
X60099500Y-78567902D01*
X60099500Y-78804097D01*
X60136446Y-79037368D01*
X60209433Y-79261996D01*
X60289543Y-79419219D01*
X60316657Y-79472433D01*
X60455483Y-79663510D01*
X60622490Y-79830517D01*
X60813567Y-79969343D01*
X60912991Y-80020002D01*
X61024003Y-80076566D01*
X61024005Y-80076566D01*
X61024008Y-80076568D01*
X61144412Y-80115689D01*
X61248631Y-80149553D01*
X61481903Y-80186500D01*
X61481908Y-80186500D01*
X61718097Y-80186500D01*
X61951368Y-80149553D01*
X62175992Y-80076568D01*
X62386433Y-79969343D01*
X62577510Y-79830517D01*
X62744517Y-79663510D01*
X62883343Y-79472433D01*
X62990568Y-79261992D01*
X63063553Y-79037368D01*
X63065931Y-79022351D01*
X63100500Y-78804097D01*
X63100500Y-78567902D01*
X63063553Y-78334631D01*
X62990566Y-78110003D01*
X62934002Y-77998991D01*
X62883343Y-77899567D01*
X62744517Y-77708490D01*
X62666708Y-77630681D01*
X62633223Y-77569358D01*
X62638207Y-77499666D01*
X62666708Y-77455319D01*
X62744517Y-77377510D01*
X62883343Y-77186433D01*
X62990568Y-76975992D01*
X63063553Y-76751368D01*
X63068101Y-76722651D01*
X63100500Y-76518097D01*
X63100500Y-76281902D01*
X63063553Y-76048631D01*
X63001319Y-75857097D01*
X62990568Y-75824008D01*
X62990566Y-75824005D01*
X62990566Y-75824003D01*
X62900603Y-75647442D01*
X62883343Y-75613567D01*
X62744517Y-75422490D01*
X62666708Y-75344681D01*
X62633223Y-75283358D01*
X62638207Y-75213666D01*
X62666708Y-75169319D01*
X62744517Y-75091510D01*
X62883343Y-74900433D01*
X62990568Y-74689992D01*
X63063553Y-74465368D01*
X63074162Y-74398386D01*
X63100500Y-74232097D01*
X63100500Y-73995902D01*
X63063553Y-73762631D01*
X62990566Y-73538003D01*
X62924374Y-73408095D01*
X62883343Y-73327567D01*
X62744517Y-73136490D01*
X62666708Y-73058681D01*
X62633223Y-72997358D01*
X62638207Y-72927666D01*
X62666708Y-72883319D01*
X62744517Y-72805510D01*
X62883343Y-72614433D01*
X62990568Y-72403992D01*
X63063553Y-72179368D01*
X63069862Y-72139535D01*
X63099791Y-72076400D01*
X63159102Y-72039468D01*
X63228965Y-72040466D01*
X63280016Y-72071251D01*
X66563181Y-75354416D01*
X66596666Y-75415739D01*
X66599500Y-75442097D01*
X66599500Y-99713330D01*
X66599499Y-99713348D01*
X66599499Y-99879054D01*
X66599498Y-99879054D01*
X66640423Y-100031785D01*
X66669358Y-100081900D01*
X66669359Y-100081904D01*
X66669360Y-100081904D01*
X66719479Y-100168714D01*
X66719481Y-100168717D01*
X66838349Y-100287585D01*
X66838355Y-100287590D01*
X78515139Y-111964374D01*
X78515149Y-111964385D01*
X78519479Y-111968715D01*
X78519480Y-111968716D01*
X78631284Y-112080520D01*
X78718095Y-112130639D01*
X78718097Y-112130641D01*
X78756151Y-112152611D01*
X78768215Y-112159577D01*
X78920943Y-112200501D01*
X78920946Y-112200501D01*
X79086653Y-112200501D01*
X79086669Y-112200500D01*
X83113331Y-112200500D01*
X83113347Y-112200501D01*
X83120943Y-112200501D01*
X83279054Y-112200501D01*
X83279057Y-112200501D01*
X83431785Y-112159577D01*
X83481904Y-112130639D01*
X83568716Y-112080520D01*
X83680520Y-111968716D01*
X83680520Y-111968714D01*
X83690728Y-111958507D01*
X83690730Y-111958504D01*
X84958506Y-110690728D01*
X84958511Y-110690724D01*
X84968714Y-110680520D01*
X84968716Y-110680520D01*
X85080520Y-110568716D01*
X85144206Y-110458408D01*
X85159577Y-110431785D01*
X85200501Y-110279057D01*
X85200501Y-110120943D01*
X85200501Y-110113348D01*
X85200500Y-110113330D01*
X85200500Y-109359568D01*
X98499500Y-109359568D01*
X98499500Y-109640431D01*
X98530942Y-109919494D01*
X98530945Y-109919512D01*
X98593439Y-110193317D01*
X98593443Y-110193329D01*
X98686200Y-110458411D01*
X98808053Y-110711442D01*
X98808055Y-110711445D01*
X98957477Y-110949248D01*
X99132584Y-111168825D01*
X99331175Y-111367416D01*
X99550752Y-111542523D01*
X99788555Y-111691945D01*
X100041592Y-111813801D01*
X100240680Y-111883465D01*
X100306670Y-111906556D01*
X100306682Y-111906560D01*
X100580491Y-111969055D01*
X100580497Y-111969055D01*
X100580505Y-111969057D01*
X100766547Y-111990018D01*
X100859569Y-112000499D01*
X100859572Y-112000500D01*
X100859575Y-112000500D01*
X101140428Y-112000500D01*
X101140429Y-112000499D01*
X101283055Y-111984429D01*
X101419494Y-111969057D01*
X101419499Y-111969056D01*
X101419509Y-111969055D01*
X101693318Y-111906560D01*
X101958408Y-111813801D01*
X102211445Y-111691945D01*
X102449248Y-111542523D01*
X102668825Y-111367416D01*
X102867416Y-111168825D01*
X103042523Y-110949248D01*
X103191945Y-110711445D01*
X103313801Y-110458408D01*
X103406560Y-110193318D01*
X103469055Y-109919509D01*
X103500500Y-109640425D01*
X103500500Y-109359575D01*
X103469055Y-109080491D01*
X103406560Y-108806682D01*
X103405450Y-108803511D01*
X103383465Y-108740680D01*
X103313801Y-108541592D01*
X103191945Y-108288555D01*
X103042523Y-108050752D01*
X102867416Y-107831175D01*
X102668825Y-107632584D01*
X102449248Y-107457477D01*
X102211445Y-107308055D01*
X102211442Y-107308053D01*
X101958411Y-107186200D01*
X101693329Y-107093443D01*
X101693317Y-107093439D01*
X101419512Y-107030945D01*
X101419494Y-107030942D01*
X101140431Y-106999500D01*
X101140425Y-106999500D01*
X100859575Y-106999500D01*
X100859568Y-106999500D01*
X100580505Y-107030942D01*
X100580487Y-107030945D01*
X100306682Y-107093439D01*
X100306670Y-107093443D01*
X100041588Y-107186200D01*
X99788557Y-107308053D01*
X99550753Y-107457476D01*
X99331175Y-107632583D01*
X99132583Y-107831175D01*
X98957476Y-108050753D01*
X98808053Y-108288557D01*
X98686200Y-108541588D01*
X98593443Y-108806670D01*
X98593439Y-108806682D01*
X98530945Y-109080487D01*
X98530942Y-109080505D01*
X98499500Y-109359568D01*
X85200500Y-109359568D01*
X85200500Y-106720945D01*
X85200500Y-106720943D01*
X85159577Y-106568216D01*
X85102630Y-106469580D01*
X85080524Y-106431290D01*
X85080521Y-106431286D01*
X85080520Y-106431284D01*
X84968716Y-106319480D01*
X84968715Y-106319479D01*
X84964385Y-106315149D01*
X84964374Y-106315139D01*
X83573590Y-104924355D01*
X83573588Y-104924352D01*
X83454717Y-104805481D01*
X83454716Y-104805480D01*
X83367904Y-104755360D01*
X83367904Y-104755359D01*
X83367900Y-104755358D01*
X83317785Y-104726423D01*
X83165057Y-104685499D01*
X83165054Y-104685499D01*
X83146068Y-104685499D01*
X83079029Y-104665814D01*
X83035583Y-104617794D01*
X82975342Y-104499566D01*
X82961999Y-104481201D01*
X82836517Y-104308490D01*
X82669510Y-104141483D01*
X82634872Y-104116317D01*
X82592207Y-104060989D01*
X82586228Y-103991375D01*
X82618833Y-103929580D01*
X82634873Y-103915682D01*
X82669510Y-103890517D01*
X82836517Y-103723510D01*
X82975343Y-103532433D01*
X83035583Y-103414204D01*
X83083558Y-103363409D01*
X83146068Y-103346500D01*
X83767331Y-103346500D01*
X83767347Y-103346501D01*
X83774943Y-103346501D01*
X83933054Y-103346501D01*
X83933057Y-103346501D01*
X84085785Y-103305577D01*
X84135904Y-103276639D01*
X84222716Y-103226520D01*
X84334520Y-103114716D01*
X84334520Y-103114714D01*
X84344728Y-103104507D01*
X84344729Y-103104504D01*
X86280520Y-101168716D01*
X86359577Y-101031784D01*
X86400501Y-100879057D01*
X86400501Y-100720942D01*
X86400501Y-100713347D01*
X86400500Y-100713329D01*
X86400500Y-88720945D01*
X86400500Y-88720943D01*
X86359577Y-88568216D01*
X86359577Y-88568215D01*
X86323637Y-88505965D01*
X86280520Y-88431284D01*
X86168716Y-88319480D01*
X86168715Y-88319479D01*
X86164385Y-88315149D01*
X86164374Y-88315139D01*
X81036819Y-83187584D01*
X81003334Y-83126261D01*
X81000500Y-83099903D01*
X81000500Y-59771902D01*
X82959500Y-59771902D01*
X82959500Y-60008097D01*
X82996446Y-60241368D01*
X83069433Y-60465996D01*
X83149185Y-60622516D01*
X83176657Y-60676433D01*
X83315483Y-60867510D01*
X83482490Y-61034517D01*
X83517127Y-61059683D01*
X83559792Y-61115013D01*
X83565771Y-61184626D01*
X83533165Y-61246421D01*
X83517130Y-61260315D01*
X83499365Y-61273222D01*
X83482488Y-61285484D01*
X83315485Y-61452487D01*
X83315485Y-61452488D01*
X83315483Y-61452490D01*
X83284225Y-61495513D01*
X83176657Y-61643566D01*
X83069433Y-61854003D01*
X82996446Y-62078631D01*
X82959500Y-62311902D01*
X82959500Y-62548097D01*
X82996446Y-62781368D01*
X83069433Y-63005996D01*
X83176657Y-63216433D01*
X83315483Y-63407510D01*
X83482490Y-63574517D01*
X83517127Y-63599683D01*
X83559792Y-63655013D01*
X83565771Y-63724626D01*
X83533165Y-63786421D01*
X83517130Y-63800315D01*
X83499365Y-63813222D01*
X83482488Y-63825484D01*
X83315485Y-63992487D01*
X83315485Y-63992488D01*
X83315483Y-63992490D01*
X83303339Y-64009205D01*
X83176657Y-64183566D01*
X83069433Y-64394003D01*
X82996446Y-64618631D01*
X82959500Y-64851902D01*
X82959500Y-65088097D01*
X82996446Y-65321368D01*
X83069433Y-65545996D01*
X83176182Y-65755500D01*
X83176657Y-65756433D01*
X83315483Y-65947510D01*
X83315485Y-65947512D01*
X83393292Y-66025319D01*
X83426777Y-66086642D01*
X83421793Y-66156334D01*
X83393292Y-66200681D01*
X83315485Y-66278487D01*
X83315485Y-66278488D01*
X83315483Y-66278490D01*
X83255862Y-66360550D01*
X83176657Y-66469566D01*
X83069433Y-66680003D01*
X82996446Y-66904631D01*
X82959500Y-67137902D01*
X82959500Y-67374097D01*
X82996446Y-67607368D01*
X83069433Y-67831996D01*
X83176657Y-68042433D01*
X83315483Y-68233510D01*
X83315485Y-68233512D01*
X83393292Y-68311319D01*
X83426777Y-68372642D01*
X83421793Y-68442334D01*
X83393292Y-68486681D01*
X83315485Y-68564487D01*
X83315485Y-68564488D01*
X83315483Y-68564490D01*
X83255862Y-68646550D01*
X83176657Y-68755566D01*
X83069433Y-68966003D01*
X82996446Y-69190631D01*
X82959500Y-69423902D01*
X82959500Y-69660097D01*
X82996446Y-69893368D01*
X83069433Y-70117996D01*
X83158118Y-70292048D01*
X83176657Y-70328433D01*
X83315483Y-70519510D01*
X83315485Y-70519512D01*
X83393292Y-70597319D01*
X83426777Y-70658642D01*
X83421793Y-70728334D01*
X83393292Y-70772681D01*
X83315485Y-70850487D01*
X83315485Y-70850488D01*
X83315483Y-70850490D01*
X83255862Y-70932550D01*
X83176657Y-71041566D01*
X83069433Y-71252003D01*
X82996446Y-71476631D01*
X82959500Y-71709902D01*
X82959500Y-71946097D01*
X82996446Y-72179368D01*
X83069433Y-72403996D01*
X83158593Y-72578981D01*
X83176657Y-72614433D01*
X83315483Y-72805510D01*
X83315485Y-72805512D01*
X83393292Y-72883319D01*
X83426777Y-72944642D01*
X83421793Y-73014334D01*
X83393292Y-73058681D01*
X83315485Y-73136487D01*
X83315485Y-73136488D01*
X83315483Y-73136490D01*
X83255862Y-73218550D01*
X83176657Y-73327566D01*
X83069433Y-73538003D01*
X82996446Y-73762631D01*
X82959500Y-73995902D01*
X82959500Y-74232097D01*
X82996446Y-74465368D01*
X83069433Y-74689996D01*
X83176657Y-74900433D01*
X83315483Y-75091510D01*
X83315485Y-75091512D01*
X83393292Y-75169319D01*
X83426777Y-75230642D01*
X83421793Y-75300334D01*
X83393292Y-75344681D01*
X83315485Y-75422487D01*
X83315485Y-75422488D01*
X83315483Y-75422490D01*
X83255862Y-75504550D01*
X83176657Y-75613566D01*
X83069433Y-75824003D01*
X82996446Y-76048631D01*
X82959500Y-76281902D01*
X82959500Y-76518097D01*
X82996446Y-76751368D01*
X83069433Y-76975996D01*
X83131295Y-77097406D01*
X83176657Y-77186433D01*
X83315483Y-77377510D01*
X83315485Y-77377512D01*
X83393292Y-77455319D01*
X83426777Y-77516642D01*
X83421793Y-77586334D01*
X83393292Y-77630681D01*
X83315485Y-77708487D01*
X83315485Y-77708488D01*
X83315483Y-77708490D01*
X83255862Y-77790550D01*
X83176657Y-77899566D01*
X83069433Y-78110003D01*
X82996446Y-78334631D01*
X82959500Y-78567902D01*
X82959500Y-78804097D01*
X82996446Y-79037368D01*
X83069433Y-79261996D01*
X83149543Y-79419219D01*
X83176657Y-79472433D01*
X83315483Y-79663510D01*
X83482490Y-79830517D01*
X83673567Y-79969343D01*
X83772991Y-80020002D01*
X83884003Y-80076566D01*
X83884005Y-80076566D01*
X83884008Y-80076568D01*
X84004412Y-80115689D01*
X84108631Y-80149553D01*
X84341903Y-80186500D01*
X84341908Y-80186500D01*
X84578097Y-80186500D01*
X84811368Y-80149553D01*
X85035992Y-80076568D01*
X85246433Y-79969343D01*
X85437510Y-79830517D01*
X85604517Y-79663510D01*
X85743343Y-79472433D01*
X85850568Y-79261992D01*
X85923553Y-79037368D01*
X85925931Y-79022351D01*
X85960500Y-78804097D01*
X85960500Y-78567902D01*
X85923553Y-78334631D01*
X85850566Y-78110003D01*
X85794002Y-77998991D01*
X85743343Y-77899567D01*
X85604517Y-77708490D01*
X85526708Y-77630681D01*
X85493223Y-77569358D01*
X85498207Y-77499666D01*
X85526708Y-77455319D01*
X85604517Y-77377510D01*
X85743343Y-77186433D01*
X85850568Y-76975992D01*
X85923553Y-76751368D01*
X85928101Y-76722651D01*
X85960500Y-76518097D01*
X85960500Y-76281902D01*
X85923553Y-76048631D01*
X85861319Y-75857097D01*
X85850568Y-75824008D01*
X85850566Y-75824005D01*
X85850566Y-75824003D01*
X85760603Y-75647442D01*
X85743343Y-75613567D01*
X85604517Y-75422490D01*
X85526708Y-75344681D01*
X85493223Y-75283358D01*
X85498207Y-75213666D01*
X85526708Y-75169319D01*
X85604517Y-75091510D01*
X85743343Y-74900433D01*
X85850568Y-74689992D01*
X85923553Y-74465368D01*
X85934162Y-74398386D01*
X85960500Y-74232097D01*
X85960500Y-73995902D01*
X85923553Y-73762631D01*
X85850566Y-73538003D01*
X85784374Y-73408095D01*
X85743343Y-73327567D01*
X85604517Y-73136490D01*
X85526708Y-73058681D01*
X85493223Y-72997358D01*
X85498207Y-72927666D01*
X85526708Y-72883319D01*
X85604517Y-72805510D01*
X85743343Y-72614433D01*
X85850568Y-72403992D01*
X85923553Y-72179368D01*
X85929862Y-72139535D01*
X85960500Y-71946097D01*
X85960500Y-71709902D01*
X85923553Y-71476631D01*
X85850566Y-71252003D01*
X85743342Y-71041566D01*
X85604517Y-70850490D01*
X85526708Y-70772681D01*
X85493223Y-70711358D01*
X85498207Y-70641666D01*
X85526708Y-70597319D01*
X85604517Y-70519510D01*
X85743343Y-70328433D01*
X85850568Y-70117992D01*
X85923553Y-69893368D01*
X85923554Y-69893362D01*
X85960500Y-69660097D01*
X85960500Y-69423902D01*
X85923553Y-69190631D01*
X85850566Y-68966003D01*
X85743342Y-68755566D01*
X85604517Y-68564490D01*
X85526708Y-68486681D01*
X85493223Y-68425358D01*
X85498207Y-68355666D01*
X85526708Y-68311319D01*
X85604517Y-68233510D01*
X85743343Y-68042433D01*
X85850568Y-67831992D01*
X85923553Y-67607368D01*
X85960500Y-67374097D01*
X85960500Y-67137902D01*
X85923553Y-66904631D01*
X85875292Y-66756101D01*
X85850568Y-66680008D01*
X85850566Y-66680005D01*
X85850566Y-66680003D01*
X85743342Y-66469566D01*
X85604517Y-66278490D01*
X85526708Y-66200681D01*
X85493223Y-66139358D01*
X85498207Y-66069666D01*
X85526708Y-66025319D01*
X85604517Y-65947510D01*
X85743343Y-65756433D01*
X85850568Y-65545992D01*
X85923553Y-65321368D01*
X85938890Y-65224534D01*
X85960500Y-65088097D01*
X85960500Y-64851902D01*
X85923553Y-64618631D01*
X85850566Y-64394003D01*
X85794002Y-64282991D01*
X85743343Y-64183567D01*
X85604517Y-63992490D01*
X85437510Y-63825483D01*
X85402872Y-63800317D01*
X85360207Y-63744989D01*
X85354228Y-63675375D01*
X85386833Y-63613580D01*
X85402873Y-63599682D01*
X85407645Y-63596215D01*
X85437510Y-63574517D01*
X85604517Y-63407510D01*
X85743343Y-63216433D01*
X85850568Y-63005992D01*
X85923553Y-62781368D01*
X85960500Y-62548097D01*
X85960500Y-62311902D01*
X85927663Y-62104582D01*
X85923553Y-62078632D01*
X85923552Y-62078628D01*
X85923552Y-62078627D01*
X85866532Y-61903139D01*
X85861534Y-61887758D01*
X85855398Y-61868872D01*
X89577500Y-61868872D01*
X89577500Y-80709127D01*
X89604123Y-80911339D01*
X89611730Y-80969116D01*
X89679602Y-81222418D01*
X89679605Y-81222428D01*
X89779953Y-81464690D01*
X89779958Y-81464700D01*
X89911075Y-81691803D01*
X90070718Y-81899851D01*
X90070726Y-81899860D01*
X90256140Y-82085274D01*
X90256148Y-82085281D01*
X90464196Y-82244924D01*
X90691299Y-82376041D01*
X90691309Y-82376046D01*
X90933571Y-82476394D01*
X90933581Y-82476398D01*
X91186884Y-82544270D01*
X91446880Y-82578500D01*
X91446887Y-82578500D01*
X91709113Y-82578500D01*
X91709120Y-82578500D01*
X91969116Y-82544270D01*
X92222419Y-82476398D01*
X92464697Y-82376043D01*
X92691803Y-82244924D01*
X92899851Y-82085282D01*
X92899855Y-82085277D01*
X92899860Y-82085274D01*
X93085274Y-81899860D01*
X93085277Y-81899855D01*
X93085282Y-81899851D01*
X93244924Y-81691803D01*
X93376043Y-81464697D01*
X93476398Y-81222419D01*
X93544270Y-80969116D01*
X93578500Y-80709120D01*
X93578500Y-61868880D01*
X93544270Y-61608884D01*
X93476398Y-61355581D01*
X93447363Y-61285484D01*
X93376046Y-61113309D01*
X93376044Y-61113305D01*
X93376043Y-61113303D01*
X93370949Y-61104480D01*
X93365111Y-61094367D01*
X93348499Y-61032369D01*
X93348499Y-60682129D01*
X93348498Y-60682123D01*
X93348497Y-60682116D01*
X93342091Y-60622517D01*
X93326524Y-60580781D01*
X93291797Y-60487671D01*
X93291793Y-60487664D01*
X93205547Y-60372455D01*
X93205544Y-60372452D01*
X93090335Y-60286206D01*
X93090328Y-60286202D01*
X92955482Y-60235908D01*
X92955483Y-60235908D01*
X92895883Y-60229501D01*
X92895881Y-60229500D01*
X92895873Y-60229500D01*
X92895865Y-60229500D01*
X92545628Y-60229500D01*
X92483629Y-60212887D01*
X92464697Y-60201957D01*
X92464691Y-60201954D01*
X92464690Y-60201953D01*
X92222428Y-60101605D01*
X92222421Y-60101603D01*
X92222419Y-60101602D01*
X91969116Y-60033730D01*
X91911339Y-60026123D01*
X91709127Y-59999500D01*
X91709120Y-59999500D01*
X91446880Y-59999500D01*
X91446872Y-59999500D01*
X91215772Y-60029926D01*
X91186884Y-60033730D01*
X90984240Y-60088028D01*
X90933581Y-60101602D01*
X90933571Y-60101605D01*
X90691306Y-60201955D01*
X90691294Y-60201961D01*
X90672368Y-60212888D01*
X90610370Y-60229500D01*
X90260130Y-60229500D01*
X90260123Y-60229501D01*
X90200516Y-60235908D01*
X90065671Y-60286202D01*
X90065664Y-60286206D01*
X89950455Y-60372452D01*
X89950452Y-60372455D01*
X89864206Y-60487664D01*
X89864202Y-60487671D01*
X89813908Y-60622517D01*
X89809868Y-60660099D01*
X89807501Y-60682123D01*
X89807500Y-60682135D01*
X89807500Y-61032370D01*
X89790889Y-61094367D01*
X89779957Y-61113301D01*
X89779953Y-61113309D01*
X89679605Y-61355571D01*
X89679602Y-61355581D01*
X89653636Y-61452490D01*
X89611730Y-61608885D01*
X89577500Y-61868872D01*
X85855398Y-61868872D01*
X85850568Y-61854008D01*
X85743343Y-61643567D01*
X85604517Y-61452490D01*
X85437510Y-61285483D01*
X85402872Y-61260317D01*
X85360207Y-61204989D01*
X85354228Y-61135375D01*
X85386833Y-61073580D01*
X85402873Y-61059682D01*
X85437510Y-61034517D01*
X85604517Y-60867510D01*
X85743343Y-60676433D01*
X85850568Y-60465992D01*
X85923553Y-60241368D01*
X85928064Y-60212887D01*
X85960500Y-60008097D01*
X85960500Y-59771902D01*
X85923553Y-59538631D01*
X85850566Y-59314003D01*
X85750488Y-59117590D01*
X85743343Y-59103567D01*
X85604517Y-58912490D01*
X85437510Y-58745483D01*
X85246433Y-58606657D01*
X85035996Y-58499433D01*
X84811368Y-58426446D01*
X84578097Y-58389500D01*
X84578092Y-58389500D01*
X84341908Y-58389500D01*
X84341903Y-58389500D01*
X84108631Y-58426446D01*
X83884003Y-58499433D01*
X83673566Y-58606657D01*
X83601084Y-58659319D01*
X83482490Y-58745483D01*
X83482488Y-58745485D01*
X83482487Y-58745485D01*
X83315485Y-58912487D01*
X83315485Y-58912488D01*
X83315483Y-58912490D01*
X83255862Y-58994550D01*
X83176657Y-59103566D01*
X83069433Y-59314003D01*
X82996446Y-59538631D01*
X82959500Y-59771902D01*
X81000500Y-59771902D01*
X81000500Y-58120945D01*
X81000500Y-58120943D01*
X80959577Y-57968216D01*
X80959577Y-57968215D01*
X80909368Y-57881251D01*
X80880520Y-57831284D01*
X80768716Y-57719480D01*
X80768715Y-57719479D01*
X80764385Y-57715149D01*
X80764374Y-57715139D01*
X73677137Y-50627902D01*
X82959500Y-50627902D01*
X82959500Y-50864097D01*
X82996446Y-51097368D01*
X83069433Y-51321996D01*
X83176657Y-51532433D01*
X83315483Y-51723510D01*
X83315485Y-51723512D01*
X83393292Y-51801319D01*
X83426777Y-51862642D01*
X83421793Y-51932334D01*
X83393292Y-51976681D01*
X83315485Y-52054487D01*
X83315485Y-52054488D01*
X83315483Y-52054490D01*
X83255862Y-52136550D01*
X83176657Y-52245566D01*
X83069433Y-52456003D01*
X82996446Y-52680631D01*
X82959500Y-52913902D01*
X82959500Y-53150097D01*
X82996446Y-53383368D01*
X83069433Y-53607996D01*
X83176657Y-53818433D01*
X83315483Y-54009510D01*
X83315485Y-54009512D01*
X83393292Y-54087319D01*
X83426777Y-54148642D01*
X83421793Y-54218334D01*
X83393292Y-54262681D01*
X83315485Y-54340487D01*
X83315485Y-54340488D01*
X83315483Y-54340490D01*
X83255862Y-54422550D01*
X83176657Y-54531566D01*
X83069433Y-54742003D01*
X82996446Y-54966631D01*
X82959500Y-55199902D01*
X82959500Y-55436097D01*
X82996446Y-55669368D01*
X83069433Y-55893996D01*
X83176657Y-56104433D01*
X83315483Y-56295510D01*
X83482490Y-56462517D01*
X83673567Y-56601343D01*
X83722915Y-56626487D01*
X83884003Y-56708566D01*
X83884005Y-56708566D01*
X83884008Y-56708568D01*
X84004412Y-56747689D01*
X84108631Y-56781553D01*
X84341903Y-56818500D01*
X84341908Y-56818500D01*
X84578097Y-56818500D01*
X84811368Y-56781553D01*
X85035992Y-56708568D01*
X85246433Y-56601343D01*
X85437510Y-56462517D01*
X85604517Y-56295510D01*
X85743343Y-56104433D01*
X85850568Y-55893992D01*
X85923553Y-55669368D01*
X85960500Y-55436097D01*
X85960500Y-55199902D01*
X85923553Y-54966631D01*
X85862931Y-54780057D01*
X85850568Y-54742008D01*
X85850566Y-54742005D01*
X85850566Y-54742003D01*
X85743342Y-54531566D01*
X85604517Y-54340490D01*
X85526708Y-54262681D01*
X85493223Y-54201358D01*
X85498207Y-54131666D01*
X85526708Y-54087319D01*
X85604517Y-54009510D01*
X85743343Y-53818433D01*
X85850568Y-53607992D01*
X85923553Y-53383368D01*
X85935061Y-53310711D01*
X85960500Y-53150097D01*
X85960500Y-52913902D01*
X85923553Y-52680631D01*
X85850566Y-52456003D01*
X85743342Y-52245566D01*
X85604517Y-52054490D01*
X85526708Y-51976681D01*
X85493223Y-51915358D01*
X85498207Y-51845666D01*
X85526708Y-51801319D01*
X85560814Y-51767213D01*
X85604517Y-51723510D01*
X85743343Y-51532433D01*
X85850568Y-51321992D01*
X85923553Y-51097368D01*
X85960500Y-50864097D01*
X85960500Y-50627902D01*
X85923553Y-50394631D01*
X85850566Y-50170003D01*
X85743342Y-49959566D01*
X85604517Y-49768490D01*
X85437510Y-49601483D01*
X85246433Y-49462657D01*
X85035996Y-49355433D01*
X84811368Y-49282446D01*
X84578097Y-49245500D01*
X84578092Y-49245500D01*
X84341908Y-49245500D01*
X84341903Y-49245500D01*
X84108631Y-49282446D01*
X83884003Y-49355433D01*
X83673566Y-49462657D01*
X83564550Y-49541862D01*
X83482490Y-49601483D01*
X83482488Y-49601485D01*
X83482487Y-49601485D01*
X83315485Y-49768487D01*
X83315485Y-49768488D01*
X83315483Y-49768490D01*
X83255862Y-49850550D01*
X83176657Y-49959566D01*
X83069433Y-50170003D01*
X82996446Y-50394631D01*
X82959500Y-50627902D01*
X73677137Y-50627902D01*
X69105137Y-46055902D01*
X82959500Y-46055902D01*
X82959500Y-46292097D01*
X82996446Y-46525368D01*
X83069433Y-46749996D01*
X83176657Y-46960433D01*
X83315483Y-47151510D01*
X83482490Y-47318517D01*
X83673567Y-47457343D01*
X83772991Y-47508002D01*
X83884003Y-47564566D01*
X83884005Y-47564566D01*
X83884008Y-47564568D01*
X84004412Y-47603689D01*
X84108631Y-47637553D01*
X84341903Y-47674500D01*
X84341908Y-47674500D01*
X84578097Y-47674500D01*
X84811368Y-47637553D01*
X85035992Y-47564568D01*
X85246433Y-47457343D01*
X85437510Y-47318517D01*
X85604517Y-47151510D01*
X85743343Y-46960433D01*
X85850568Y-46749992D01*
X85923553Y-46525368D01*
X85960500Y-46292097D01*
X85960500Y-46055902D01*
X85923553Y-45822631D01*
X85850566Y-45598003D01*
X85743342Y-45387566D01*
X85604517Y-45196490D01*
X85437510Y-45029483D01*
X85246433Y-44890657D01*
X85035996Y-44783433D01*
X84811368Y-44710446D01*
X84578097Y-44673500D01*
X84578092Y-44673500D01*
X84341908Y-44673500D01*
X84341903Y-44673500D01*
X84108631Y-44710446D01*
X83884003Y-44783433D01*
X83673566Y-44890657D01*
X83651678Y-44906560D01*
X83482490Y-45029483D01*
X83482488Y-45029485D01*
X83482487Y-45029485D01*
X83315485Y-45196487D01*
X83315485Y-45196488D01*
X83315483Y-45196490D01*
X83255862Y-45278550D01*
X83176657Y-45387566D01*
X83069433Y-45598003D01*
X82996446Y-45822631D01*
X82959500Y-46055902D01*
X69105137Y-46055902D01*
X66487590Y-43438355D01*
X66487588Y-43438352D01*
X66368717Y-43319481D01*
X66368716Y-43319480D01*
X66281904Y-43269360D01*
X66281904Y-43269359D01*
X66281900Y-43269358D01*
X66231785Y-43240423D01*
X66079057Y-43199499D01*
X65920943Y-43199499D01*
X65913347Y-43199499D01*
X65913331Y-43199500D01*
X60086669Y-43199500D01*
X60086653Y-43199499D01*
X60079057Y-43199499D01*
X59920943Y-43199499D01*
X59813587Y-43228265D01*
X59768210Y-43240424D01*
X59768209Y-43240425D01*
X59718096Y-43269359D01*
X59718095Y-43269360D01*
X59693626Y-43283487D01*
X59631285Y-43319479D01*
X59631282Y-43319481D01*
X57319481Y-45631282D01*
X57319479Y-45631285D01*
X57269361Y-45718094D01*
X57269359Y-45718096D01*
X57240425Y-45768209D01*
X57240424Y-45768210D01*
X57240423Y-45768215D01*
X57199499Y-45920943D01*
X57199499Y-46079057D01*
X57199499Y-46079059D01*
X57199500Y-46089053D01*
X57199500Y-58543330D01*
X57199499Y-58543348D01*
X57199499Y-58709054D01*
X57199498Y-58709054D01*
X42500500Y-58709054D01*
X42500500Y-53580031D01*
X46187269Y-53580031D01*
X46187269Y-54780049D01*
X46187270Y-54780066D01*
X46197769Y-54882844D01*
X46197770Y-54882847D01*
X46225534Y-54966631D01*
X46252955Y-55049382D01*
X46345057Y-55198704D01*
X46469113Y-55322760D01*
X46618435Y-55414862D01*
X46784972Y-55470047D01*
X46887760Y-55480548D01*
X48087777Y-55480547D01*
X48190566Y-55470047D01*
X48357103Y-55414862D01*
X48506425Y-55322760D01*
X48630481Y-55198704D01*
X48722583Y-55049382D01*
X48777768Y-54882845D01*
X48788269Y-54780057D01*
X48788268Y-53580040D01*
X48777768Y-53477251D01*
X48722583Y-53310714D01*
X48630481Y-53161392D01*
X48506425Y-53037336D01*
X48357103Y-52945234D01*
X48190566Y-52890049D01*
X48190564Y-52890048D01*
X48087779Y-52879548D01*
X46887767Y-52879548D01*
X46887750Y-52879549D01*
X46784972Y-52890048D01*
X46784969Y-52890049D01*
X46618437Y-52945233D01*
X46618432Y-52945235D01*
X46469111Y-53037337D01*
X46345058Y-53161390D01*
X46252956Y-53310711D01*
X46252955Y-53310714D01*
X46197770Y-53477251D01*
X46197770Y-53477252D01*
X46197769Y-53477252D01*
X46187269Y-53580031D01*
X42500500Y-53580031D01*
X42500500Y-50817648D01*
X53699500Y-50817648D01*
X53699500Y-51022351D01*
X53731522Y-51224534D01*
X53794781Y-51419223D01*
X53887715Y-51601613D01*
X54008028Y-51767213D01*
X54152786Y-51911971D01*
X54307749Y-52024556D01*
X54318390Y-52032287D01*
X54434607Y-52091503D01*
X54500776Y-52125218D01*
X54500778Y-52125218D01*
X54500781Y-52125220D01*
X54605137Y-52159127D01*
X54695465Y-52188477D01*
X54796557Y-52204488D01*
X54897648Y-52220500D01*
X54897649Y-52220500D01*
X55102351Y-52220500D01*
X55102352Y-52220500D01*
X55304534Y-52188477D01*
X55499219Y-52125220D01*
X55681610Y-52032287D01*
X55819185Y-51932334D01*
X55847213Y-51911971D01*
X55847215Y-51911968D01*
X55847219Y-51911966D01*
X55991966Y-51767219D01*
X55991968Y-51767215D01*
X55991971Y-51767213D01*
X56044732Y-51694590D01*
X56112287Y-51601610D01*
X56205220Y-51419219D01*
X56268477Y-51224534D01*
X56300500Y-51022352D01*
X56300500Y-50817648D01*
X56268477Y-50615466D01*
X56205220Y-50420781D01*
X56205218Y-50420778D01*
X56205218Y-50420776D01*
X56171503Y-50354607D01*
X56112287Y-50238390D01*
X56062605Y-50170008D01*
X55991971Y-50072786D01*
X55847213Y-49928028D01*
X55681613Y-49807715D01*
X55681612Y-49807714D01*
X55681610Y-49807713D01*
X55604625Y-49768487D01*
X55499223Y-49714781D01*
X55304534Y-49651522D01*
X55129995Y-49623878D01*
X55102352Y-49619500D01*
X54897648Y-49619500D01*
X54873329Y-49623351D01*
X54695465Y-49651522D01*
X54500776Y-49714781D01*
X54318386Y-49807715D01*
X54152786Y-49928028D01*
X54008028Y-50072786D01*
X53887715Y-50238386D01*
X53794781Y-50420776D01*
X53731522Y-50615465D01*
X53699500Y-50817648D01*
X42500500Y-50817648D01*
X42500500Y-42359568D01*
X43499500Y-42359568D01*
X43499500Y-42640431D01*
X43530942Y-42919494D01*
X43530945Y-42919512D01*
X43593439Y-43193317D01*
X43593443Y-43193329D01*
X43686200Y-43458411D01*
X43808053Y-43711442D01*
X43808055Y-43711445D01*
X43957477Y-43949248D01*
X44132584Y-44168825D01*
X44331175Y-44367416D01*
X44550752Y-44542523D01*
X44788555Y-44691945D01*
X45041592Y-44813801D01*
X45240680Y-44883465D01*
X45306670Y-44906556D01*
X45306682Y-44906560D01*
X45580491Y-44969055D01*
X45580497Y-44969055D01*
X45580505Y-44969057D01*
X45766547Y-44990018D01*
X45859569Y-45000499D01*
X45859572Y-45000500D01*
X45859575Y-45000500D01*
X46140428Y-45000500D01*
X46140429Y-45000499D01*
X46283055Y-44984429D01*
X46419494Y-44969057D01*
X46419499Y-44969056D01*
X46419509Y-44969055D01*
X46693318Y-44906560D01*
X46958408Y-44813801D01*
X47211445Y-44691945D01*
X47449248Y-44542523D01*
X47668825Y-44367416D01*
X47867416Y-44168825D01*
X48042523Y-43949248D01*
X48191945Y-43711445D01*
X48313801Y-43458408D01*
X48406560Y-43193318D01*
X48469055Y-42919509D01*
X48500500Y-42640425D01*
X48500500Y-42359575D01*
X48469055Y-42080491D01*
X48406560Y-41806682D01*
X48313801Y-41541592D01*
X48191945Y-41288555D01*
X48042523Y-41050752D01*
X47867416Y-40831175D01*
X47668825Y-40632584D01*
X47449248Y-40457477D01*
X47211445Y-40308055D01*
X47211442Y-40308053D01*
X46958411Y-40186200D01*
X46693329Y-40093443D01*
X46693317Y-40093439D01*
X46419512Y-40030945D01*
X46419494Y-40030942D01*
X46140431Y-39999500D01*
X46140425Y-39999500D01*
X45859575Y-39999500D01*
X45859568Y-39999500D01*
X45580505Y-40030942D01*
X45580487Y-40030945D01*
X45306682Y-40093439D01*
X45306670Y-40093443D01*
X45041588Y-40186200D01*
X44788557Y-40308053D01*
X44550753Y-40457476D01*
X44331175Y-40632583D01*
X44132583Y-40831175D01*
X43957476Y-41050753D01*
X43808053Y-41288557D01*
X43686200Y-41541588D01*
X43593443Y-41806670D01*
X43593439Y-41806682D01*
X43530945Y-42080487D01*
X43530942Y-42080505D01*
X43499500Y-42359568D01*
X42500500Y-42359568D01*
X42500500Y-39124500D01*
X42520185Y-39057461D01*
X42572989Y-39011706D01*
X42624500Y-39000500D01*
X86381500Y-39000500D01*
X86448539Y-39020185D01*
G37*
%TD.AperFunction*%
%TD*%
M02*
