M48
; DRILL file {KiCad 9.0.3} date 2025-10-27T16:18:54+0300
; FORMAT={-:-/ absolute / metric / decimal}
; #@! TF.CreationDate,2025-10-27T16:18:54+03:00
; #@! TF.GenerationSoftware,Kicad,Pcbnew,9.0.3
; #@! TF.FileFunction,Plated,1,2,PTH
FMAT,2
METRIC
; #@! TA.AperFunction,Plated,PTH,ComponentDrill
T1C0.800
; #@! TA.AperFunction,Plated,PTH,ComponentDrill
T2C0.900
; #@! TA.AperFunction,Plated,PTH,ComponentDrill
T3C1.000
; #@! TA.AperFunction,Plated,PTH,ComponentDrill
T4C1.100
; #@! TA.AperFunction,Plated,PTH,ComponentDrill
T5C1.200
%
G90
G05
T1
X55.0Y-50.92
X55.0Y-61.08
X55.0Y-64.92
X55.0Y-75.08
X55.0Y-78.92
X55.0Y-89.08
T2
X47.5Y-76.185
X47.5Y-78.725
X47.5Y-83.558
X47.5Y-86.098
X47.5Y-90.93
X47.5Y-93.47
X48.257Y-50.752
X48.257Y-53.8
X48.257Y-56.848
X61.6Y-44.65
X61.6Y-47.19
X61.6Y-49.73
X61.6Y-52.27
X61.6Y-54.81
X61.6Y-57.35
X61.6Y-59.89
X61.6Y-62.43
X61.6Y-64.97
X61.6Y-67.51
X61.6Y-70.05
X61.6Y-72.59
X61.6Y-75.13
X61.6Y-77.67
X61.6Y-80.21
X84.46Y-44.65
X84.46Y-47.19
X84.46Y-49.73
X84.46Y-52.27
X84.46Y-54.81
X84.46Y-57.35
X84.46Y-59.89
X84.46Y-62.43
X84.46Y-64.97
X84.46Y-67.51
X84.46Y-70.05
X84.46Y-72.59
X84.46Y-75.13
X84.46Y-77.67
X84.46Y-80.21
X89.88Y-99.665
X89.88Y-102.205
X89.88Y-104.745
X89.88Y-107.285
X92.42Y-99.665
X92.42Y-102.205
X92.42Y-104.745
X92.42Y-107.285
T3
X91.6Y-80.6
X99.2Y-80.6
T4
X45.25Y-65.293
X45.25Y-71.793
X49.75Y-65.293
X49.75Y-71.793
T5
X88.276Y-40.156
X88.276Y-62.0
X90.816Y-62.0
X99.96Y-62.0
X102.5Y-40.156
X102.5Y-62.0
M30
